<ttFont>
    <TTGlyph name="A" xMin="-27" yMin="-8" xMax="627" yMax="733">
      <contour>
        <pt x="216" y="308" on="1"/>
        <pt x="324" y="304" on="1"/>
        <pt x="382" y="304" on="0"/>
        <pt x="420" y="307" on="1"/>
        <pt x="359" y="613" on="1"/>
      </contour>
      <contour>
        <pt x="621" y="-3" on="1"/>
        <pt x="516" y="0" on="1"/>
        <pt x="448" y="0" on="0"/>
        <pt x="393" y="-8" on="1"/>
        <pt x="391" y="-6" on="0"/>
        <pt x="391" y="3" on="1"/>
        <pt x="393" y="17" on="1"/>
        <pt x="434" y="26" on="0"/>
        <pt x="465" y="52" on="0"/>
        <pt x="465" y="92" on="0"/>
        <pt x="459" y="119" on="1"/>
        <pt x="427" y="269" on="1"/>
        <pt x="385" y="272" on="0"/>
        <pt x="321" y="272" on="1"/>
        <pt x="201" y="269" on="1"/>
        <pt x="171" y="205" on="1"/>
        <pt x="117" y="93" on="0"/>
        <pt x="112" y="29" on="1"/>
        <pt x="132" y="28" on="0"/>
        <pt x="175" y="28" on="1"/>
        <pt x="176" y="23" on="0"/>
        <pt x="176" y="6" on="0"/>
        <pt x="172" y="-3" on="1"/>
        <pt x="77" y="0" on="1"/>
        <pt x="21" y="0" on="0"/>
        <pt x="-24" y="-8" on="1"/>
        <pt x="-27" y="4" on="0"/>
        <pt x="-27" y="8" on="1"/>
        <pt x="-25" y="17" on="1"/>
        <pt x="23" y="31" on="0"/>
        <pt x="71" y="91" on="0"/>
        <pt x="123" y="197" on="1"/>
        <pt x="363" y="688" on="1"/>
        <pt x="369" y="716" on="1"/>
        <pt x="421" y="733" on="1"/>
        <pt x="540" y="169" on="1"/>
        <pt x="565" y="60" on="0"/>
        <pt x="579" y="31" on="1"/>
        <pt x="604" y="28" on="0"/>
        <pt x="625" y="28" on="1"/>
        <pt x="627" y="25" on="0"/>
        <pt x="627" y="9" on="0"/>
      </contour>
    </TTGlyph>
    <TTGlyph name="AE" xMin="-27" yMin="-8" xMax="923" yMax="727">
      <contour>
        <pt x="391" y="285" on="1"/>
        <pt x="260" y="283" on="1"/>
        <pt x="211" y="205" on="1"/>
        <pt x="135" y="82" on="0"/>
        <pt x="120" y="29" on="1"/>
        <pt x="140" y="28" on="0"/>
        <pt x="183" y="28" on="1"/>
        <pt x="184" y="23" on="0"/>
        <pt x="184" y="6" on="0"/>
        <pt x="180" y="-3" on="1"/>
        <pt x="77" y="0" on="1"/>
        <pt x="21" y="0" on="0"/>
        <pt x="-24" y="-8" on="1"/>
        <pt x="-27" y="4" on="0"/>
        <pt x="-27" y="8" on="1"/>
        <pt x="-25" y="17" on="1"/>
        <pt x="25" y="31" on="0"/>
        <pt x="85" y="91" on="0"/>
        <pt x="155" y="197" on="1"/>
        <pt x="483" y="692" on="1"/>
        <pt x="469" y="696" on="0"/>
        <pt x="421" y="696" on="1"/>
        <pt x="420" y="700" on="0"/>
        <pt x="420" y="714" on="0"/>
        <pt x="424" y="723" on="1"/>
        <pt x="424" y="723" on="0"/>
        <pt x="516" y="720" on="1"/>
        <pt x="695" y="720" on="1"/>
        <pt x="909" y="727" on="1"/>
        <pt x="923" y="727" on="0"/>
        <pt x="923" y="717" on="1"/>
        <pt x="923" y="715" on="0"/>
        <pt x="918" y="692" on="1"/>
        <pt x="902" y="619" on="0"/>
        <pt x="893" y="544" on="1"/>
        <pt x="887" y="541" on="0"/>
        <pt x="875" y="541" on="0"/>
        <pt x="863" y="544" on="1"/>
        <pt x="862" y="560" on="0"/>
        <pt x="860" y="590" on="1"/>
        <pt x="857" y="661" on="0"/>
        <pt x="855" y="668" on="1"/>
        <pt x="774" y="689" on="0"/>
        <pt x="680" y="689" on="1"/>
        <pt x="641" y="689" on="0"/>
        <pt x="616" y="685" on="1"/>
        <pt x="604" y="661" on="0"/>
        <pt x="580" y="392" on="1"/>
        <pt x="595" y="388" on="0"/>
        <pt x="718" y="388" on="0"/>
        <pt x="801" y="398" on="0"/>
        <pt x="813" y="433" on="1"/>
        <pt x="828" y="433" on="0"/>
        <pt x="837" y="427" on="1"/>
        <pt x="825" y="361" on="0"/>
        <pt x="819" y="269" on="1"/>
        <pt x="811" y="267" on="0"/>
        <pt x="808" y="267" on="1"/>
        <pt x="793" y="271" on="1"/>
        <pt x="793" y="347" on="1"/>
        <pt x="739" y="356" on="0"/>
        <pt x="614" y="356" on="0"/>
        <pt x="576" y="351" on="1"/>
        <pt x="560" y="169" on="1"/>
        <pt x="555" y="116" on="0"/>
        <pt x="555" y="36" on="1"/>
        <pt x="579" y="32" on="0"/>
        <pt x="617" y="32" on="1"/>
        <pt x="711" y="32" on="0"/>
        <pt x="808" y="59" on="1"/>
        <pt x="825" y="85" on="0"/>
        <pt x="857" y="167" on="1"/>
        <pt x="871" y="167" on="0"/>
        <pt x="887" y="159" on="1"/>
        <pt x="875" y="117" on="0"/>
        <pt x="855" y="15" on="1"/>
        <pt x="851" y="4" on="0"/>
        <pt x="841" y="3" on="1"/>
        <pt x="801" y="-4" on="0"/>
        <pt x="736" y="-4" on="1"/>
        <pt x="583" y="0" on="1"/>
        <pt x="532" y="0" on="1"/>
        <pt x="440" y="0" on="0"/>
        <pt x="383" y="-8" on="1"/>
        <pt x="380" y="-2" on="0"/>
        <pt x="380" y="5" on="1"/>
        <pt x="381" y="17" on="1"/>
        <pt x="413" y="24" on="0"/>
        <pt x="451" y="55" on="0"/>
        <pt x="456" y="68" on="1"/>
        <pt x="474" y="109" on="0"/>
        <pt x="492" y="283" on="1"/>
        <pt x="436" y="285" on="0"/>
      </contour>
      <contour>
        <pt x="283" y="321" on="1"/>
        <pt x="343" y="319" on="0"/>
        <pt x="469" y="319" on="0"/>
        <pt x="496" y="320" on="1"/>
        <pt x="521" y="580" on="0"/>
        <pt x="521" y="683" on="1"/>
        <pt x="499" y="659" on="0"/>
        <pt x="337" y="406" on="1"/>
      </contour>
    </TTGlyph>
    <TTGlyph name="Aacute" xMin="-27" yMin="-8" xMax="627" yMax="943">
      <contour>
        <pt x="340" y="773" on="1"/>
        <pt x="331" y="782" on="0"/>
        <pt x="329" y="795" on="1"/>
        <pt x="452" y="864" on="0"/>
        <pt x="543" y="943" on="1"/>
        <pt x="575" y="925" on="0"/>
        <pt x="589" y="889" on="1"/>
        <pt x="548" y="862" on="0"/>
        <pt x="424" y="804" on="0"/>
        <pt x="382" y="788" on="1"/>
      </contour>
      <contour>
        <pt x="216" y="308" on="1"/>
        <pt x="324" y="304" on="1"/>
        <pt x="382" y="304" on="0"/>
        <pt x="420" y="307" on="1"/>
        <pt x="359" y="613" on="1"/>
      </contour>
      <contour>
        <pt x="621" y="-3" on="1"/>
        <pt x="516" y="0" on="1"/>
        <pt x="448" y="0" on="0"/>
        <pt x="393" y="-8" on="1"/>
        <pt x="391" y="-6" on="0"/>
        <pt x="391" y="3" on="1"/>
        <pt x="393" y="17" on="1"/>
        <pt x="434" y="26" on="0"/>
        <pt x="465" y="52" on="0"/>
        <pt x="465" y="92" on="0"/>
        <pt x="459" y="119" on="1"/>
        <pt x="427" y="269" on="1"/>
        <pt x="385" y="272" on="0"/>
        <pt x="321" y="272" on="1"/>
        <pt x="201" y="269" on="1"/>
        <pt x="171" y="205" on="1"/>
        <pt x="117" y="93" on="0"/>
        <pt x="112" y="29" on="1"/>
        <pt x="132" y="28" on="0"/>
        <pt x="175" y="28" on="1"/>
        <pt x="176" y="23" on="0"/>
        <pt x="176" y="6" on="0"/>
        <pt x="172" y="-3" on="1"/>
        <pt x="77" y="0" on="1"/>
        <pt x="21" y="0" on="0"/>
        <pt x="-24" y="-8" on="1"/>
        <pt x="-27" y="4" on="0"/>
        <pt x="-27" y="8" on="1"/>
        <pt x="-25" y="17" on="1"/>
        <pt x="23" y="31" on="0"/>
        <pt x="71" y="91" on="0"/>
        <pt x="123" y="197" on="1"/>
        <pt x="363" y="688" on="1"/>
        <pt x="369" y="716" on="1"/>
        <pt x="421" y="733" on="1"/>
        <pt x="540" y="169" on="1"/>
        <pt x="565" y="60" on="0"/>
        <pt x="579" y="31" on="1"/>
        <pt x="604" y="28" on="0"/>
        <pt x="625" y="28" on="1"/>
        <pt x="627" y="25" on="0"/>
        <pt x="627" y="9" on="0"/>
      </contour>
    </TTGlyph>
    <TTGlyph name="Acircumflex" xMin="-27" yMin="-8" xMax="627" yMax="944">
      <contour>
        <pt x="405" y="861" on="1"/>
        <pt x="255" y="761" on="1"/>
        <pt x="249" y="761" on="0"/>
        <pt x="241" y="770" on="0"/>
        <pt x="239" y="779" on="1"/>
        <pt x="344" y="869" on="0"/>
        <pt x="417" y="944" on="1"/>
        <pt x="429" y="944" on="1"/>
        <pt x="513" y="776" on="1"/>
        <pt x="505" y="761" on="0"/>
        <pt x="491" y="761" on="1"/>
      </contour>
      <contour>
        <pt x="216" y="308" on="1"/>
        <pt x="324" y="304" on="1"/>
        <pt x="382" y="304" on="0"/>
        <pt x="420" y="307" on="1"/>
        <pt x="359" y="613" on="1"/>
      </contour>
      <contour>
        <pt x="621" y="-3" on="1"/>
        <pt x="516" y="0" on="1"/>
        <pt x="448" y="0" on="0"/>
        <pt x="393" y="-8" on="1"/>
        <pt x="391" y="-6" on="0"/>
        <pt x="391" y="3" on="1"/>
        <pt x="393" y="17" on="1"/>
        <pt x="434" y="26" on="0"/>
        <pt x="465" y="52" on="0"/>
        <pt x="465" y="92" on="0"/>
        <pt x="459" y="119" on="1"/>
        <pt x="427" y="269" on="1"/>
        <pt x="385" y="272" on="0"/>
        <pt x="321" y="272" on="1"/>
        <pt x="201" y="269" on="1"/>
        <pt x="171" y="205" on="1"/>
        <pt x="117" y="93" on="0"/>
        <pt x="112" y="29" on="1"/>
        <pt x="132" y="28" on="0"/>
        <pt x="175" y="28" on="1"/>
        <pt x="176" y="23" on="0"/>
        <pt x="176" y="6" on="0"/>
        <pt x="172" y="-3" on="1"/>
        <pt x="77" y="0" on="1"/>
        <pt x="21" y="0" on="0"/>
        <pt x="-24" y="-8" on="1"/>
        <pt x="-27" y="4" on="0"/>
        <pt x="-27" y="8" on="1"/>
        <pt x="-25" y="17" on="1"/>
        <pt x="23" y="31" on="0"/>
        <pt x="71" y="91" on="0"/>
        <pt x="123" y="197" on="1"/>
        <pt x="363" y="688" on="1"/>
        <pt x="369" y="716" on="1"/>
        <pt x="421" y="733" on="1"/>
        <pt x="540" y="169" on="1"/>
        <pt x="565" y="60" on="0"/>
        <pt x="579" y="31" on="1"/>
        <pt x="604" y="28" on="0"/>
        <pt x="625" y="28" on="1"/>
        <pt x="627" y="25" on="0"/>
        <pt x="627" y="9" on="0"/>
      </contour>
    </TTGlyph>
    <TTGlyph name="Adieresis" xMin="-27" yMin="-8" xMax="627" yMax="905">
      <contour>
        <pt x="367" y="841" on="1"/>
        <pt x="367" y="826" on="0"/>
        <pt x="318" y="791" on="0"/>
        <pt x="297" y="791" on="1"/>
        <pt x="281" y="835" on="0"/>
        <pt x="264" y="853" on="1"/>
        <pt x="287" y="890" on="0"/>
        <pt x="332" y="905" on="1"/>
        <pt x="367" y="874" on="0"/>
      </contour>
      <contour>
        <pt x="540" y="841" on="1"/>
        <pt x="540" y="826" on="0"/>
        <pt x="492" y="791" on="0"/>
        <pt x="471" y="791" on="1"/>
        <pt x="456" y="833" on="0"/>
        <pt x="437" y="853" on="1"/>
        <pt x="460" y="890" on="0"/>
        <pt x="505" y="905" on="1"/>
        <pt x="540" y="874" on="0"/>
      </contour>
      <contour>
        <pt x="216" y="308" on="1"/>
        <pt x="324" y="304" on="1"/>
        <pt x="382" y="304" on="0"/>
        <pt x="420" y="307" on="1"/>
        <pt x="359" y="613" on="1"/>
      </contour>
      <contour>
        <pt x="621" y="-3" on="1"/>
        <pt x="516" y="0" on="1"/>
        <pt x="448" y="0" on="0"/>
        <pt x="393" y="-8" on="1"/>
        <pt x="391" y="-6" on="0"/>
        <pt x="391" y="3" on="1"/>
        <pt x="393" y="17" on="1"/>
        <pt x="434" y="26" on="0"/>
        <pt x="465" y="52" on="0"/>
        <pt x="465" y="92" on="0"/>
        <pt x="459" y="119" on="1"/>
        <pt x="427" y="269" on="1"/>
        <pt x="385" y="272" on="0"/>
        <pt x="321" y="272" on="1"/>
        <pt x="201" y="269" on="1"/>
        <pt x="171" y="205" on="1"/>
        <pt x="117" y="93" on="0"/>
        <pt x="112" y="29" on="1"/>
        <pt x="132" y="28" on="0"/>
        <pt x="175" y="28" on="1"/>
        <pt x="176" y="23" on="0"/>
        <pt x="176" y="6" on="0"/>
        <pt x="172" y="-3" on="1"/>
        <pt x="77" y="0" on="1"/>
        <pt x="21" y="0" on="0"/>
        <pt x="-24" y="-8" on="1"/>
        <pt x="-27" y="4" on="0"/>
        <pt x="-27" y="8" on="1"/>
        <pt x="-25" y="17" on="1"/>
        <pt x="23" y="31" on="0"/>
        <pt x="71" y="91" on="0"/>
        <pt x="123" y="197" on="1"/>
        <pt x="363" y="688" on="1"/>
        <pt x="369" y="716" on="1"/>
        <pt x="421" y="733" on="1"/>
        <pt x="540" y="169" on="1"/>
        <pt x="565" y="60" on="0"/>
        <pt x="579" y="31" on="1"/>
        <pt x="604" y="28" on="0"/>
        <pt x="625" y="28" on="1"/>
        <pt x="627" y="25" on="0"/>
        <pt x="627" y="9" on="0"/>
      </contour>
    </TTGlyph>
    <TTGlyph name="Agrave" xMin="-27" yMin="-8" xMax="627" yMax="943">
      <contour>
        <pt x="471" y="773" on="1"/>
        <pt x="313" y="829" on="0"/>
        <pt x="221" y="889" on="1"/>
        <pt x="236" y="925" on="0"/>
        <pt x="268" y="943" on="1"/>
        <pt x="346" y="875" on="0"/>
        <pt x="448" y="814" on="1"/>
        <pt x="481" y="795" on="1"/>
        <pt x="481" y="784" on="0"/>
      </contour>
      <contour>
        <pt x="216" y="308" on="1"/>
        <pt x="324" y="304" on="1"/>
        <pt x="382" y="304" on="0"/>
        <pt x="420" y="307" on="1"/>
        <pt x="359" y="613" on="1"/>
      </contour>
      <contour>
        <pt x="621" y="-3" on="1"/>
        <pt x="516" y="0" on="1"/>
        <pt x="448" y="0" on="0"/>
        <pt x="393" y="-8" on="1"/>
        <pt x="391" y="-6" on="0"/>
        <pt x="391" y="3" on="1"/>
        <pt x="393" y="17" on="1"/>
        <pt x="434" y="26" on="0"/>
        <pt x="465" y="52" on="0"/>
        <pt x="465" y="92" on="0"/>
        <pt x="459" y="119" on="1"/>
        <pt x="427" y="269" on="1"/>
        <pt x="385" y="272" on="0"/>
        <pt x="321" y="272" on="1"/>
        <pt x="201" y="269" on="1"/>
        <pt x="171" y="205" on="1"/>
        <pt x="117" y="93" on="0"/>
        <pt x="112" y="29" on="1"/>
        <pt x="132" y="28" on="0"/>
        <pt x="175" y="28" on="1"/>
        <pt x="176" y="23" on="0"/>
        <pt x="176" y="6" on="0"/>
        <pt x="172" y="-3" on="1"/>
        <pt x="77" y="0" on="1"/>
        <pt x="21" y="0" on="0"/>
        <pt x="-24" y="-8" on="1"/>
        <pt x="-27" y="4" on="0"/>
        <pt x="-27" y="8" on="1"/>
        <pt x="-25" y="17" on="1"/>
        <pt x="23" y="31" on="0"/>
        <pt x="71" y="91" on="0"/>
        <pt x="123" y="197" on="1"/>
        <pt x="363" y="688" on="1"/>
        <pt x="369" y="716" on="1"/>
        <pt x="421" y="733" on="1"/>
        <pt x="540" y="169" on="1"/>
        <pt x="565" y="60" on="0"/>
        <pt x="579" y="31" on="1"/>
        <pt x="604" y="28" on="0"/>
        <pt x="625" y="28" on="1"/>
        <pt x="627" y="25" on="0"/>
        <pt x="627" y="9" on="0"/>
      </contour>
    </TTGlyph>
    <TTGlyph name="Aring" xMin="-27" yMin="-8" xMax="627" yMax="968">
      <contour>
        <pt x="533" y="900" on="1"/>
        <pt x="533" y="856" on="0"/>
        <pt x="453" y="774" on="0"/>
        <pt x="395" y="768" on="1"/>
        <pt x="366" y="768" on="0"/>
        <pt x="332" y="801" on="0"/>
        <pt x="332" y="828" on="1"/>
        <pt x="332" y="872" on="0"/>
        <pt x="400" y="960" on="0"/>
        <pt x="469" y="968" on="1"/>
        <pt x="498" y="968" on="0"/>
        <pt x="533" y="930" on="0"/>
      </contour>
      <contour>
        <pt x="381" y="799" on="0"/>
        <pt x="445" y="799" on="0"/>
        <pt x="481" y="859" on="0"/>
        <pt x="481" y="937" on="0"/>
        <pt x="418" y="937" on="0"/>
        <pt x="381" y="878" on="0"/>
      </contour>
      <contour>
        <pt x="216" y="308" on="1"/>
        <pt x="324" y="304" on="1"/>
        <pt x="382" y="304" on="0"/>
        <pt x="420" y="307" on="1"/>
        <pt x="359" y="613" on="1"/>
      </contour>
      <contour>
        <pt x="621" y="-3" on="1"/>
        <pt x="516" y="0" on="1"/>
        <pt x="448" y="0" on="0"/>
        <pt x="393" y="-8" on="1"/>
        <pt x="391" y="-6" on="0"/>
        <pt x="391" y="3" on="1"/>
        <pt x="393" y="17" on="1"/>
        <pt x="434" y="26" on="0"/>
        <pt x="465" y="52" on="0"/>
        <pt x="465" y="92" on="0"/>
        <pt x="459" y="119" on="1"/>
        <pt x="427" y="269" on="1"/>
        <pt x="385" y="272" on="0"/>
        <pt x="321" y="272" on="1"/>
        <pt x="201" y="269" on="1"/>
        <pt x="171" y="205" on="1"/>
        <pt x="117" y="93" on="0"/>
        <pt x="112" y="29" on="1"/>
        <pt x="132" y="28" on="0"/>
        <pt x="175" y="28" on="1"/>
        <pt x="176" y="23" on="0"/>
        <pt x="176" y="6" on="0"/>
        <pt x="172" y="-3" on="1"/>
        <pt x="77" y="0" on="1"/>
        <pt x="21" y="0" on="0"/>
        <pt x="-24" y="-8" on="1"/>
        <pt x="-27" y="4" on="0"/>
        <pt x="-27" y="8" on="1"/>
        <pt x="-25" y="17" on="1"/>
        <pt x="23" y="31" on="0"/>
        <pt x="71" y="91" on="0"/>
        <pt x="123" y="197" on="1"/>
        <pt x="363" y="688" on="1"/>
        <pt x="369" y="716" on="1"/>
        <pt x="421" y="733" on="1"/>
        <pt x="540" y="169" on="1"/>
        <pt x="565" y="60" on="0"/>
        <pt x="579" y="31" on="1"/>
        <pt x="604" y="28" on="0"/>
        <pt x="625" y="28" on="1"/>
        <pt x="627" y="25" on="0"/>
        <pt x="627" y="9" on="0"/>
      </contour>
    </TTGlyph>
    <TTGlyph name="Atilde" xMin="-27" yMin="-8" xMax="627" yMax="888">
      <contour>
        <pt x="483" y="797" on="0"/>
        <pt x="472" y="793" on="0"/>
        <pt x="443" y="793" on="0"/>
        <pt x="352" y="829" on="0"/>
        <pt x="316" y="829" on="0"/>
        <pt x="304" y="826" on="0"/>
        <pt x="288" y="818" on="0"/>
        <pt x="284" y="816" on="1"/>
        <pt x="265" y="805" on="0"/>
        <pt x="260" y="800" on="1"/>
        <pt x="245" y="806" on="0"/>
        <pt x="245" y="819" on="1"/>
        <pt x="303" y="867" on="1"/>
        <pt x="329" y="888" on="0"/>
        <pt x="371" y="888" on="0"/>
        <pt x="458" y="853" on="0"/>
        <pt x="511" y="853" on="0"/>
        <pt x="551" y="883" on="1"/>
        <pt x="564" y="877" on="0"/>
        <pt x="565" y="864" on="1"/>
        <pt x="529" y="833" on="1"/>
        <pt x="526" y="831" on="0"/>
        <pt x="506" y="814" on="0"/>
        <pt x="498" y="808" on="0"/>
      </contour>
      <contour>
        <pt x="216" y="308" on="1"/>
        <pt x="324" y="304" on="1"/>
        <pt x="382" y="304" on="0"/>
        <pt x="420" y="307" on="1"/>
        <pt x="359" y="613" on="1"/>
      </contour>
      <contour>
        <pt x="621" y="-3" on="1"/>
        <pt x="516" y="0" on="1"/>
        <pt x="448" y="0" on="0"/>
        <pt x="393" y="-8" on="1"/>
        <pt x="391" y="-6" on="0"/>
        <pt x="391" y="3" on="1"/>
        <pt x="393" y="17" on="1"/>
        <pt x="434" y="26" on="0"/>
        <pt x="465" y="52" on="0"/>
        <pt x="465" y="92" on="0"/>
        <pt x="459" y="119" on="1"/>
        <pt x="427" y="269" on="1"/>
        <pt x="385" y="272" on="0"/>
        <pt x="321" y="272" on="1"/>
        <pt x="201" y="269" on="1"/>
        <pt x="171" y="205" on="1"/>
        <pt x="117" y="93" on="0"/>
        <pt x="112" y="29" on="1"/>
        <pt x="132" y="28" on="0"/>
        <pt x="175" y="28" on="1"/>
        <pt x="176" y="23" on="0"/>
        <pt x="176" y="6" on="0"/>
        <pt x="172" y="-3" on="1"/>
        <pt x="77" y="0" on="1"/>
        <pt x="21" y="0" on="0"/>
        <pt x="-24" y="-8" on="1"/>
        <pt x="-27" y="4" on="0"/>
        <pt x="-27" y="8" on="1"/>
        <pt x="-25" y="17" on="1"/>
        <pt x="23" y="31" on="0"/>
        <pt x="71" y="91" on="0"/>
        <pt x="123" y="197" on="1"/>
        <pt x="363" y="688" on="1"/>
        <pt x="369" y="716" on="1"/>
        <pt x="421" y="733" on="1"/>
        <pt x="540" y="169" on="1"/>
        <pt x="565" y="60" on="0"/>
        <pt x="579" y="31" on="1"/>
        <pt x="604" y="28" on="0"/>
        <pt x="625" y="28" on="1"/>
        <pt x="627" y="25" on="0"/>
        <pt x="627" y="9" on="0"/>
      </contour>
    </TTGlyph>
    <TTGlyph name="B" xMin="19" yMin="-8" xMax="548" yMax="727">
      <contour>
        <pt x="276" y="371" on="1"/>
        <pt x="275" y="375" on="0"/>
        <pt x="275" y="395" on="0"/>
        <pt x="281" y="407" on="1"/>
        <pt x="309" y="407" on="1"/>
        <pt x="358" y="407" on="0"/>
        <pt x="405" y="442" on="1"/>
        <pt x="429" y="459" on="0"/>
        <pt x="459" y="525" on="0"/>
        <pt x="459" y="623" on="0"/>
        <pt x="397" y="692" on="0"/>
        <pt x="332" y="692" on="1"/>
        <pt x="290" y="692" on="0"/>
        <pt x="252" y="684" on="1"/>
        <pt x="235" y="592" on="0"/>
        <pt x="216" y="388" on="1"/>
        <pt x="197" y="172" on="1"/>
        <pt x="191" y="106" on="0"/>
        <pt x="191" y="51" on="0"/>
        <pt x="192" y="40" on="1"/>
        <pt x="224" y="36" on="0"/>
        <pt x="253" y="36" on="1"/>
        <pt x="452" y="36" on="0"/>
        <pt x="452" y="204" on="1"/>
        <pt x="452" y="278" on="0"/>
        <pt x="379" y="371" on="0"/>
        <pt x="317" y="371" on="1"/>
      </contour>
      <contour>
        <pt x="75" y="705" on="1"/>
        <pt x="295" y="727" on="0"/>
        <pt x="441" y="727" on="0"/>
        <pt x="544" y="647" on="0"/>
        <pt x="544" y="508" on="0"/>
        <pt x="465" y="415" on="0"/>
        <pt x="413" y="397" on="1"/>
        <pt x="548" y="350" on="0"/>
        <pt x="548" y="217" on="1"/>
        <pt x="548" y="121" on="0"/>
        <pt x="402" y="0" on="0"/>
        <pt x="264" y="0" on="1"/>
        <pt x="82" y="0" on="0"/>
        <pt x="23" y="-8" on="1"/>
        <pt x="19" y="-3" on="0"/>
        <pt x="19" y="7" on="1"/>
        <pt x="20" y="17" on="1"/>
        <pt x="52" y="24" on="0"/>
        <pt x="89" y="55" on="0"/>
        <pt x="101" y="81" on="0"/>
        <pt x="105" y="104" on="1"/>
        <pt x="125" y="208" on="0"/>
        <pt x="156" y="554" on="0"/>
        <pt x="156" y="678" on="0"/>
        <pt x="149" y="681" on="1"/>
        <pt x="120" y="681" on="0"/>
        <pt x="75" y="679" on="1"/>
        <pt x="72" y="684" on="0"/>
        <pt x="72" y="702" on="0"/>
      </contour>
    </TTGlyph>
    <TTGlyph name="C" xMin="55" yMin="-20" xMax="667" yMax="736">
      <contour>
        <pt x="204" y="114" on="1"/>
        <pt x="228" y="71" on="0"/>
        <pt x="310" y="20" on="0"/>
        <pt x="365" y="20" on="1"/>
        <pt x="470" y="20" on="0"/>
        <pt x="576" y="157" on="1"/>
        <pt x="593" y="157" on="0"/>
        <pt x="602" y="142" on="1"/>
        <pt x="605" y="137" on="1"/>
        <pt x="531" y="19" on="0"/>
        <pt x="512" y="13" on="1"/>
        <pt x="411" y="-20" on="0"/>
        <pt x="331" y="-20" on="1"/>
        <pt x="206" y="-20" on="0"/>
        <pt x="55" y="152" on="0"/>
        <pt x="55" y="398" on="0"/>
        <pt x="165" y="607" on="0"/>
        <pt x="355" y="736" on="0"/>
        <pt x="572" y="736" on="0"/>
        <pt x="661" y="704" on="1"/>
        <pt x="667" y="699" on="0"/>
        <pt x="667" y="691" on="0"/>
        <pt x="662" y="662" on="1"/>
        <pt x="646" y="569" on="0"/>
        <pt x="641" y="519" on="1"/>
        <pt x="634" y="515" on="0"/>
        <pt x="615" y="515" on="0"/>
        <pt x="607" y="517" on="1"/>
        <pt x="601" y="628" on="0"/>
        <pt x="597" y="645" on="1"/>
        <pt x="577" y="666" on="0"/>
        <pt x="491" y="700" on="0"/>
        <pt x="451" y="700" on="1"/>
        <pt x="371" y="700" on="0"/>
        <pt x="234" y="581" on="0"/>
        <pt x="159" y="401" on="0"/>
        <pt x="159" y="196" on="0"/>
      </contour>
    </TTGlyph>
    <TTGlyph name="Ccedilla" xMin="55" yMin="-268" xMax="667" yMax="736">
      <contour>
        <pt x="204" y="114" on="1"/>
        <pt x="228" y="71" on="0"/>
        <pt x="310" y="20" on="0"/>
        <pt x="365" y="20" on="1"/>
        <pt x="470" y="20" on="0"/>
        <pt x="576" y="157" on="1"/>
        <pt x="593" y="157" on="0"/>
        <pt x="602" y="142" on="1"/>
        <pt x="605" y="137" on="1"/>
        <pt x="531" y="19" on="0"/>
        <pt x="512" y="13" on="1"/>
        <pt x="421" y="-16" on="0"/>
        <pt x="345" y="-20" on="1"/>
        <pt x="335" y="-68" on="1"/>
        <pt x="374" y="-87" on="0"/>
        <pt x="409" y="-126" on="0"/>
        <pt x="409" y="-195" on="0"/>
        <pt x="368" y="-254" on="0"/>
        <pt x="332" y="-268" on="1"/>
        <pt x="232" y="-268" on="1"/>
        <pt x="231" y="-265" on="0"/>
        <pt x="231" y="-259" on="1"/>
        <pt x="235" y="-243" on="1"/>
        <pt x="361" y="-240" on="0"/>
        <pt x="361" y="-177" on="1"/>
        <pt x="361" y="-140" on="0"/>
        <pt x="288" y="-117" on="1"/>
        <pt x="281" y="-116" on="0"/>
        <pt x="281" y="-109" on="1"/>
        <pt x="285" y="-89" on="1"/>
        <pt x="308" y="-19" on="1"/>
        <pt x="193" y="-11" on="0"/>
        <pt x="55" y="159" on="0"/>
        <pt x="55" y="398" on="0"/>
        <pt x="165" y="607" on="0"/>
        <pt x="355" y="736" on="0"/>
        <pt x="572" y="736" on="0"/>
        <pt x="661" y="704" on="1"/>
        <pt x="667" y="699" on="0"/>
        <pt x="667" y="691" on="0"/>
        <pt x="662" y="662" on="1"/>
        <pt x="646" y="569" on="0"/>
        <pt x="641" y="519" on="1"/>
        <pt x="634" y="515" on="0"/>
        <pt x="615" y="515" on="0"/>
        <pt x="607" y="517" on="1"/>
        <pt x="601" y="628" on="0"/>
        <pt x="597" y="645" on="1"/>
        <pt x="577" y="666" on="0"/>
        <pt x="491" y="700" on="0"/>
        <pt x="451" y="700" on="1"/>
        <pt x="371" y="700" on="0"/>
        <pt x="234" y="581" on="0"/>
        <pt x="159" y="401" on="0"/>
        <pt x="159" y="196" on="0"/>
      </contour>
    </TTGlyph>
    <TTGlyph name="D" xMin="19" yMin="-8" xMax="691" yMax="727">
      <contour>
        <pt x="339" y="692" on="1"/>
        <pt x="281" y="692" on="0"/>
        <pt x="252" y="687" on="1"/>
        <pt x="239" y="643" on="0"/>
        <pt x="191" y="88" on="0"/>
        <pt x="191" y="49" on="1"/>
        <pt x="245" y="32" on="0"/>
        <pt x="401" y="32" on="0"/>
        <pt x="531" y="139" on="0"/>
        <pt x="595" y="308" on="0"/>
        <pt x="595" y="408" on="1"/>
        <pt x="595" y="536" on="0"/>
        <pt x="458" y="692" on="0"/>
      </contour>
      <contour>
        <pt x="321" y="-4" on="1"/>
        <pt x="188" y="0" on="1"/>
        <pt x="79" y="0" on="0"/>
        <pt x="21" y="-8" on="1"/>
        <pt x="19" y="0" on="0"/>
        <pt x="19" y="5" on="1"/>
        <pt x="20" y="17" on="1"/>
        <pt x="52" y="24" on="0"/>
        <pt x="89" y="55" on="0"/>
        <pt x="94" y="68" on="1"/>
        <pt x="117" y="121" on="0"/>
        <pt x="156" y="554" on="0"/>
        <pt x="156" y="681" on="0"/>
        <pt x="148" y="681" on="1"/>
        <pt x="105" y="681" on="0"/>
        <pt x="75" y="679" on="1"/>
        <pt x="72" y="685" on="0"/>
        <pt x="72" y="702" on="0"/>
        <pt x="75" y="705" on="1"/>
        <pt x="82" y="706" on="0"/>
        <pt x="159" y="714" on="0"/>
        <pt x="192" y="718" on="1"/>
        <pt x="282" y="727" on="0"/>
        <pt x="359" y="727" on="1"/>
        <pt x="510" y="727" on="0"/>
        <pt x="691" y="575" on="0"/>
        <pt x="691" y="428" on="1"/>
        <pt x="691" y="317" on="0"/>
        <pt x="602" y="121" on="0"/>
        <pt x="430" y="-4" on="0"/>
      </contour>
    </TTGlyph>
    <TTGlyph name="E" xMin="19" yMin="-8" xMax="561" yMax="727">
      <contour>
        <pt x="97" y="723" on="1"/>
        <pt x="193" y="720" on="1"/>
        <pt x="333" y="720" on="1"/>
        <pt x="548" y="727" on="1"/>
        <pt x="561" y="727" on="0"/>
        <pt x="561" y="717" on="1"/>
        <pt x="561" y="715" on="0"/>
        <pt x="556" y="692" on="1"/>
        <pt x="542" y="630" on="0"/>
        <pt x="532" y="544" on="1"/>
        <pt x="525" y="541" on="0"/>
        <pt x="513" y="541" on="0"/>
        <pt x="501" y="544" on="1"/>
        <pt x="496" y="657" on="0"/>
        <pt x="493" y="668" on="1"/>
        <pt x="414" y="689" on="0"/>
        <pt x="319" y="689" on="1"/>
        <pt x="280" y="689" on="0"/>
        <pt x="255" y="685" on="1"/>
        <pt x="247" y="668" on="0"/>
        <pt x="235" y="575" on="0"/>
        <pt x="219" y="392" on="1"/>
        <pt x="232" y="388" on="0"/>
        <pt x="357" y="388" on="0"/>
        <pt x="438" y="398" on="0"/>
        <pt x="452" y="433" on="1"/>
        <pt x="467" y="433" on="0"/>
        <pt x="476" y="427" on="1"/>
        <pt x="462" y="353" on="0"/>
        <pt x="457" y="269" on="1"/>
        <pt x="449" y="267" on="0"/>
        <pt x="447" y="267" on="1"/>
        <pt x="432" y="271" on="1"/>
        <pt x="432" y="347" on="1"/>
        <pt x="378" y="356" on="0"/>
        <pt x="250" y="356" on="0"/>
        <pt x="215" y="351" on="1"/>
        <pt x="199" y="169" on="1"/>
        <pt x="193" y="106" on="0"/>
        <pt x="193" y="36" on="1"/>
        <pt x="218" y="32" on="0"/>
        <pt x="256" y="32" on="1"/>
        <pt x="350" y="32" on="0"/>
        <pt x="447" y="59" on="1"/>
        <pt x="464" y="85" on="0"/>
        <pt x="492" y="158" on="0"/>
        <pt x="496" y="167" on="1"/>
        <pt x="511" y="167" on="0"/>
        <pt x="525" y="159" on="1"/>
        <pt x="511" y="109" on="0"/>
        <pt x="493" y="15" on="1"/>
        <pt x="490" y="4" on="0"/>
        <pt x="480" y="3" on="1"/>
        <pt x="440" y="-4" on="0"/>
        <pt x="375" y="-4" on="1"/>
        <pt x="221" y="0" on="1"/>
        <pt x="171" y="0" on="1"/>
        <pt x="79" y="0" on="0"/>
        <pt x="21" y="-8" on="1"/>
        <pt x="19" y="0" on="0"/>
        <pt x="19" y="5" on="1"/>
        <pt x="20" y="17" on="1"/>
        <pt x="52" y="24" on="0"/>
        <pt x="89" y="55" on="0"/>
        <pt x="94" y="68" on="1"/>
        <pt x="120" y="129" on="0"/>
        <pt x="160" y="635" on="0"/>
        <pt x="160" y="693" on="0"/>
        <pt x="156" y="693" on="1"/>
        <pt x="139" y="696" on="0"/>
        <pt x="95" y="696" on="1"/>
        <pt x="93" y="700" on="0"/>
        <pt x="93" y="709" on="0"/>
      </contour>
    </TTGlyph>
    <TTGlyph name="Eacute" xMin="19" yMin="-8" xMax="561" yMax="943">
      <contour>
        <pt x="255" y="773" on="1"/>
        <pt x="246" y="782" on="0"/>
        <pt x="244" y="795" on="1"/>
        <pt x="367" y="864" on="0"/>
        <pt x="457" y="943" on="1"/>
        <pt x="488" y="926" on="0"/>
        <pt x="504" y="889" on="1"/>
        <pt x="463" y="862" on="0"/>
        <pt x="339" y="804" on="0"/>
        <pt x="297" y="788" on="1"/>
      </contour>
      <contour>
        <pt x="97" y="723" on="1"/>
        <pt x="193" y="720" on="1"/>
        <pt x="333" y="720" on="1"/>
        <pt x="548" y="727" on="1"/>
        <pt x="561" y="727" on="0"/>
        <pt x="561" y="717" on="1"/>
        <pt x="561" y="715" on="0"/>
        <pt x="556" y="692" on="1"/>
        <pt x="542" y="630" on="0"/>
        <pt x="532" y="544" on="1"/>
        <pt x="525" y="541" on="0"/>
        <pt x="513" y="541" on="0"/>
        <pt x="501" y="544" on="1"/>
        <pt x="496" y="657" on="0"/>
        <pt x="493" y="668" on="1"/>
        <pt x="414" y="689" on="0"/>
        <pt x="319" y="689" on="1"/>
        <pt x="280" y="689" on="0"/>
        <pt x="255" y="685" on="1"/>
        <pt x="247" y="668" on="0"/>
        <pt x="235" y="575" on="0"/>
        <pt x="219" y="392" on="1"/>
        <pt x="232" y="388" on="0"/>
        <pt x="357" y="388" on="0"/>
        <pt x="438" y="398" on="0"/>
        <pt x="452" y="433" on="1"/>
        <pt x="467" y="433" on="0"/>
        <pt x="476" y="427" on="1"/>
        <pt x="462" y="353" on="0"/>
        <pt x="457" y="269" on="1"/>
        <pt x="449" y="267" on="0"/>
        <pt x="447" y="267" on="1"/>
        <pt x="432" y="271" on="1"/>
        <pt x="432" y="347" on="1"/>
        <pt x="378" y="356" on="0"/>
        <pt x="250" y="356" on="0"/>
        <pt x="215" y="351" on="1"/>
        <pt x="199" y="169" on="1"/>
        <pt x="193" y="106" on="0"/>
        <pt x="193" y="36" on="1"/>
        <pt x="218" y="32" on="0"/>
        <pt x="256" y="32" on="1"/>
        <pt x="350" y="32" on="0"/>
        <pt x="447" y="59" on="1"/>
        <pt x="464" y="85" on="0"/>
        <pt x="492" y="158" on="0"/>
        <pt x="496" y="167" on="1"/>
        <pt x="511" y="167" on="0"/>
        <pt x="525" y="159" on="1"/>
        <pt x="511" y="109" on="0"/>
        <pt x="493" y="15" on="1"/>
        <pt x="490" y="4" on="0"/>
        <pt x="480" y="3" on="1"/>
        <pt x="440" y="-4" on="0"/>
        <pt x="375" y="-4" on="1"/>
        <pt x="221" y="0" on="1"/>
        <pt x="171" y="0" on="1"/>
        <pt x="79" y="0" on="0"/>
        <pt x="21" y="-8" on="1"/>
        <pt x="19" y="0" on="0"/>
        <pt x="19" y="5" on="1"/>
        <pt x="20" y="17" on="1"/>
        <pt x="52" y="24" on="0"/>
        <pt x="89" y="55" on="0"/>
        <pt x="94" y="68" on="1"/>
        <pt x="120" y="129" on="0"/>
        <pt x="160" y="635" on="0"/>
        <pt x="160" y="693" on="0"/>
        <pt x="156" y="693" on="1"/>
        <pt x="139" y="696" on="0"/>
        <pt x="95" y="696" on="1"/>
        <pt x="93" y="700" on="0"/>
        <pt x="93" y="709" on="0"/>
      </contour>
    </TTGlyph>
    <TTGlyph name="Ecircumflex" xMin="19" yMin="-8" xMax="561" yMax="944">
      <contour>
        <pt x="380" y="861" on="1"/>
        <pt x="229" y="761" on="1"/>
        <pt x="223" y="761" on="0"/>
        <pt x="215" y="770" on="0"/>
        <pt x="213" y="779" on="1"/>
        <pt x="319" y="869" on="0"/>
        <pt x="392" y="944" on="1"/>
        <pt x="404" y="944" on="1"/>
        <pt x="488" y="776" on="1"/>
        <pt x="480" y="761" on="0"/>
        <pt x="465" y="761" on="1"/>
      </contour>
      <contour>
        <pt x="97" y="723" on="1"/>
        <pt x="193" y="720" on="1"/>
        <pt x="333" y="720" on="1"/>
        <pt x="333" y="720" on="0"/>
        <pt x="548" y="727" on="1"/>
        <pt x="561" y="727" on="0"/>
        <pt x="561" y="717" on="1"/>
        <pt x="561" y="715" on="0"/>
        <pt x="556" y="692" on="1"/>
        <pt x="542" y="630" on="0"/>
        <pt x="532" y="544" on="1"/>
        <pt x="525" y="541" on="0"/>
        <pt x="513" y="541" on="0"/>
        <pt x="501" y="544" on="1"/>
        <pt x="496" y="657" on="0"/>
        <pt x="493" y="668" on="1"/>
        <pt x="414" y="689" on="0"/>
        <pt x="319" y="689" on="1"/>
        <pt x="280" y="689" on="0"/>
        <pt x="255" y="685" on="1"/>
        <pt x="247" y="668" on="0"/>
        <pt x="235" y="575" on="0"/>
        <pt x="219" y="392" on="1"/>
        <pt x="232" y="388" on="0"/>
        <pt x="357" y="388" on="0"/>
        <pt x="438" y="398" on="0"/>
        <pt x="452" y="433" on="1"/>
        <pt x="467" y="433" on="0"/>
        <pt x="476" y="427" on="1"/>
        <pt x="462" y="353" on="0"/>
        <pt x="457" y="269" on="1"/>
        <pt x="449" y="267" on="0"/>
        <pt x="447" y="267" on="1"/>
        <pt x="432" y="271" on="1"/>
        <pt x="432" y="347" on="1"/>
        <pt x="378" y="356" on="0"/>
        <pt x="250" y="356" on="0"/>
        <pt x="215" y="351" on="1"/>
        <pt x="199" y="169" on="1"/>
        <pt x="193" y="106" on="0"/>
        <pt x="193" y="36" on="1"/>
        <pt x="218" y="32" on="0"/>
        <pt x="256" y="32" on="1"/>
        <pt x="350" y="32" on="0"/>
        <pt x="447" y="59" on="1"/>
        <pt x="464" y="85" on="0"/>
        <pt x="492" y="158" on="0"/>
        <pt x="496" y="167" on="1"/>
        <pt x="511" y="167" on="0"/>
        <pt x="525" y="159" on="1"/>
        <pt x="511" y="109" on="0"/>
        <pt x="493" y="15" on="1"/>
        <pt x="490" y="4" on="0"/>
        <pt x="480" y="3" on="1"/>
        <pt x="440" y="-4" on="0"/>
        <pt x="375" y="-4" on="1"/>
        <pt x="221" y="0" on="1"/>
        <pt x="171" y="0" on="1"/>
        <pt x="79" y="0" on="0"/>
        <pt x="21" y="-8" on="1"/>
        <pt x="19" y="0" on="0"/>
        <pt x="19" y="5" on="1"/>
        <pt x="20" y="17" on="1"/>
        <pt x="52" y="24" on="0"/>
        <pt x="89" y="55" on="0"/>
        <pt x="94" y="68" on="1"/>
        <pt x="120" y="129" on="0"/>
        <pt x="160" y="635" on="0"/>
        <pt x="160" y="693" on="0"/>
        <pt x="156" y="693" on="1"/>
        <pt x="139" y="696" on="0"/>
        <pt x="95" y="696" on="1"/>
        <pt x="93" y="700" on="0"/>
        <pt x="93" y="709" on="0"/>
      </contour>
    </TTGlyph>
    <TTGlyph name="Edieresis" xMin="19" yMin="-8" xMax="561" yMax="905">
      <contour>
        <pt x="319" y="841" on="1"/>
        <pt x="319" y="826" on="0"/>
        <pt x="270" y="791" on="0"/>
        <pt x="249" y="791" on="1"/>
        <pt x="233" y="835" on="0"/>
        <pt x="216" y="853" on="1"/>
        <pt x="239" y="890" on="0"/>
        <pt x="284" y="905" on="1"/>
        <pt x="319" y="874" on="0"/>
      </contour>
      <contour>
        <pt x="492" y="841" on="1"/>
        <pt x="492" y="826" on="0"/>
        <pt x="444" y="791" on="0"/>
        <pt x="423" y="791" on="1"/>
        <pt x="408" y="833" on="0"/>
        <pt x="389" y="853" on="1"/>
        <pt x="412" y="890" on="0"/>
        <pt x="457" y="905" on="1"/>
        <pt x="492" y="874" on="0"/>
      </contour>
      <contour>
        <pt x="97" y="723" on="1"/>
        <pt x="193" y="720" on="1"/>
        <pt x="333" y="720" on="1"/>
        <pt x="548" y="727" on="1"/>
        <pt x="561" y="727" on="0"/>
        <pt x="561" y="717" on="1"/>
        <pt x="561" y="715" on="0"/>
        <pt x="556" y="692" on="1"/>
        <pt x="542" y="630" on="0"/>
        <pt x="532" y="544" on="1"/>
        <pt x="525" y="541" on="0"/>
        <pt x="513" y="541" on="0"/>
        <pt x="501" y="544" on="1"/>
        <pt x="496" y="657" on="0"/>
        <pt x="493" y="668" on="1"/>
        <pt x="414" y="689" on="0"/>
        <pt x="319" y="689" on="1"/>
        <pt x="280" y="689" on="0"/>
        <pt x="255" y="685" on="1"/>
        <pt x="247" y="668" on="0"/>
        <pt x="235" y="575" on="0"/>
        <pt x="219" y="392" on="1"/>
        <pt x="232" y="388" on="0"/>
        <pt x="357" y="388" on="0"/>
        <pt x="438" y="398" on="0"/>
        <pt x="452" y="433" on="1"/>
        <pt x="467" y="433" on="0"/>
        <pt x="476" y="427" on="1"/>
        <pt x="462" y="353" on="0"/>
        <pt x="457" y="269" on="1"/>
        <pt x="449" y="267" on="0"/>
        <pt x="447" y="267" on="1"/>
        <pt x="432" y="271" on="1"/>
        <pt x="432" y="347" on="1"/>
        <pt x="378" y="356" on="0"/>
        <pt x="250" y="356" on="0"/>
        <pt x="215" y="351" on="1"/>
        <pt x="199" y="169" on="1"/>
        <pt x="193" y="106" on="0"/>
        <pt x="193" y="36" on="1"/>
        <pt x="218" y="32" on="0"/>
        <pt x="256" y="32" on="1"/>
        <pt x="350" y="32" on="0"/>
        <pt x="447" y="59" on="1"/>
        <pt x="464" y="85" on="0"/>
        <pt x="492" y="158" on="0"/>
        <pt x="496" y="167" on="1"/>
        <pt x="511" y="167" on="0"/>
        <pt x="525" y="159" on="1"/>
        <pt x="511" y="109" on="0"/>
        <pt x="493" y="15" on="1"/>
        <pt x="490" y="4" on="0"/>
        <pt x="480" y="3" on="1"/>
        <pt x="440" y="-4" on="0"/>
        <pt x="375" y="-4" on="1"/>
        <pt x="221" y="0" on="1"/>
        <pt x="171" y="0" on="1"/>
        <pt x="79" y="0" on="0"/>
        <pt x="21" y="-8" on="1"/>
        <pt x="19" y="0" on="0"/>
        <pt x="19" y="5" on="1"/>
        <pt x="20" y="17" on="1"/>
        <pt x="52" y="24" on="0"/>
        <pt x="89" y="55" on="0"/>
        <pt x="94" y="68" on="1"/>
        <pt x="120" y="129" on="0"/>
        <pt x="160" y="635" on="0"/>
        <pt x="160" y="693" on="0"/>
        <pt x="156" y="693" on="1"/>
        <pt x="139" y="696" on="0"/>
        <pt x="95" y="696" on="1"/>
        <pt x="93" y="700" on="0"/>
        <pt x="93" y="709" on="0"/>
      </contour>
    </TTGlyph>
    <TTGlyph name="Egrave" xMin="19" yMin="-8" xMax="561" yMax="943">
      <contour>
        <pt x="457" y="773" on="1"/>
        <pt x="300" y="829" on="0"/>
        <pt x="208" y="889" on="1"/>
        <pt x="224" y="926" on="0"/>
        <pt x="255" y="943" on="1"/>
        <pt x="333" y="875" on="0"/>
        <pt x="435" y="814" on="1"/>
        <pt x="468" y="795" on="1"/>
        <pt x="468" y="784" on="0"/>
      </contour>
      <contour>
        <pt x="97" y="723" on="1"/>
        <pt x="193" y="720" on="1"/>
        <pt x="333" y="720" on="1"/>
        <pt x="333" y="720" on="0"/>
        <pt x="548" y="727" on="1"/>
        <pt x="561" y="727" on="0"/>
        <pt x="561" y="717" on="1"/>
        <pt x="561" y="715" on="0"/>
        <pt x="556" y="692" on="1"/>
        <pt x="542" y="630" on="0"/>
        <pt x="532" y="544" on="1"/>
        <pt x="525" y="541" on="0"/>
        <pt x="513" y="541" on="0"/>
        <pt x="501" y="544" on="1"/>
        <pt x="496" y="657" on="0"/>
        <pt x="493" y="668" on="1"/>
        <pt x="414" y="689" on="0"/>
        <pt x="319" y="689" on="1"/>
        <pt x="280" y="689" on="0"/>
        <pt x="255" y="685" on="1"/>
        <pt x="247" y="668" on="0"/>
        <pt x="235" y="575" on="0"/>
        <pt x="219" y="392" on="1"/>
        <pt x="232" y="388" on="0"/>
        <pt x="357" y="388" on="0"/>
        <pt x="438" y="398" on="0"/>
        <pt x="452" y="433" on="1"/>
        <pt x="467" y="433" on="0"/>
        <pt x="476" y="427" on="1"/>
        <pt x="462" y="353" on="0"/>
        <pt x="457" y="269" on="1"/>
        <pt x="449" y="267" on="0"/>
        <pt x="447" y="267" on="1"/>
        <pt x="432" y="271" on="1"/>
        <pt x="432" y="347" on="1"/>
        <pt x="378" y="356" on="0"/>
        <pt x="250" y="356" on="0"/>
        <pt x="215" y="351" on="1"/>
        <pt x="199" y="169" on="1"/>
        <pt x="193" y="106" on="0"/>
        <pt x="193" y="36" on="1"/>
        <pt x="218" y="32" on="0"/>
        <pt x="256" y="32" on="1"/>
        <pt x="350" y="32" on="0"/>
        <pt x="447" y="59" on="1"/>
        <pt x="464" y="85" on="0"/>
        <pt x="492" y="158" on="0"/>
        <pt x="496" y="167" on="1"/>
        <pt x="511" y="167" on="0"/>
        <pt x="525" y="159" on="1"/>
        <pt x="511" y="109" on="0"/>
        <pt x="493" y="15" on="1"/>
        <pt x="490" y="4" on="0"/>
        <pt x="480" y="3" on="1"/>
        <pt x="440" y="-4" on="0"/>
        <pt x="375" y="-4" on="1"/>
        <pt x="221" y="0" on="1"/>
        <pt x="171" y="0" on="1"/>
        <pt x="79" y="0" on="0"/>
        <pt x="21" y="-8" on="1"/>
        <pt x="19" y="0" on="0"/>
        <pt x="19" y="5" on="1"/>
        <pt x="20" y="17" on="1"/>
        <pt x="52" y="24" on="0"/>
        <pt x="89" y="55" on="0"/>
        <pt x="94" y="68" on="1"/>
        <pt x="120" y="129" on="0"/>
        <pt x="160" y="635" on="0"/>
        <pt x="160" y="693" on="0"/>
        <pt x="156" y="693" on="1"/>
        <pt x="139" y="696" on="0"/>
        <pt x="95" y="696" on="1"/>
        <pt x="93" y="700" on="0"/>
        <pt x="93" y="709" on="0"/>
      </contour>
    </TTGlyph>
    <TTGlyph name="Eth" xMin="19" yMin="-8" xMax="691" yMax="727">
      <contour>
        <pt x="321" y="-4" on="1"/>
        <pt x="188" y="0" on="1"/>
        <pt x="79" y="0" on="0"/>
        <pt x="21" y="-8" on="1"/>
        <pt x="19" y="0" on="0"/>
        <pt x="19" y="5" on="1"/>
        <pt x="20" y="17" on="1"/>
        <pt x="52" y="24" on="0"/>
        <pt x="89" y="55" on="0"/>
        <pt x="100" y="81" on="0"/>
        <pt x="118" y="160" on="0"/>
        <pt x="136" y="341" on="1"/>
        <pt x="102" y="341" on="0"/>
        <pt x="60" y="335" on="1"/>
        <pt x="52" y="339" on="0"/>
        <pt x="52" y="347" on="1"/>
        <pt x="62" y="368" on="0"/>
        <pt x="67" y="391" on="1"/>
        <pt x="141" y="391" on="1"/>
        <pt x="156" y="560" on="0"/>
        <pt x="156" y="681" on="0"/>
        <pt x="148" y="681" on="1"/>
        <pt x="105" y="681" on="0"/>
        <pt x="75" y="679" on="1"/>
        <pt x="72" y="685" on="0"/>
        <pt x="72" y="702" on="0"/>
        <pt x="75" y="705" on="1"/>
        <pt x="82" y="706" on="0"/>
        <pt x="159" y="714" on="0"/>
        <pt x="192" y="718" on="1"/>
        <pt x="282" y="727" on="0"/>
        <pt x="359" y="727" on="1"/>
        <pt x="510" y="727" on="0"/>
        <pt x="691" y="575" on="0"/>
        <pt x="691" y="428" on="1"/>
        <pt x="691" y="317" on="0"/>
        <pt x="602" y="121" on="0"/>
        <pt x="430" y="-4" on="0"/>
      </contour>
      <contour>
        <pt x="217" y="396" on="1"/>
        <pt x="217" y="394" on="0"/>
        <pt x="216" y="391" on="1"/>
        <pt x="324" y="391" on="0"/>
        <pt x="399" y="399" on="1"/>
        <pt x="407" y="397" on="0"/>
        <pt x="407" y="385" on="1"/>
        <pt x="392" y="366" on="0"/>
        <pt x="392" y="343" on="1"/>
        <pt x="212" y="343" on="1"/>
        <pt x="191" y="105" on="0"/>
        <pt x="191" y="49" on="1"/>
        <pt x="245" y="32" on="0"/>
        <pt x="401" y="32" on="0"/>
        <pt x="531" y="139" on="0"/>
        <pt x="595" y="308" on="0"/>
        <pt x="595" y="408" on="1"/>
        <pt x="595" y="536" on="0"/>
        <pt x="458" y="692" on="0"/>
        <pt x="339" y="692" on="1"/>
        <pt x="281" y="692" on="0"/>
        <pt x="252" y="687" on="1"/>
        <pt x="239" y="643" on="0"/>
      </contour>
    </TTGlyph>
    <TTGlyph name="Euro" xMin="27" yMin="-20" xMax="446" yMax="509">
      <contour>
        <pt x="204" y="311" on="1"/>
        <pt x="309" y="311" on="0"/>
        <pt x="365" y="317" on="1"/>
        <pt x="371" y="315" on="0"/>
        <pt x="371" y="305" on="1"/>
        <pt x="359" y="281" on="0"/>
        <pt x="358" y="271" on="1"/>
        <pt x="185" y="271" on="1"/>
        <pt x="127" y="271" on="0"/>
        <pt x="59" y="264" on="1"/>
        <pt x="52" y="268" on="0"/>
        <pt x="52" y="276" on="1"/>
        <pt x="63" y="294" on="0"/>
        <pt x="65" y="311" on="1"/>
      </contour>
      <contour>
        <pt x="163" y="207" on="1"/>
        <pt x="275" y="207" on="0"/>
        <pt x="339" y="213" on="1"/>
        <pt x="346" y="211" on="0"/>
        <pt x="346" y="201" on="1"/>
        <pt x="334" y="181" on="0"/>
        <pt x="333" y="167" on="1"/>
        <pt x="193" y="167" on="1"/>
        <pt x="117" y="167" on="0"/>
        <pt x="33" y="160" on="1"/>
        <pt x="27" y="164" on="0"/>
        <pt x="27" y="172" on="1"/>
        <pt x="37" y="191" on="0"/>
        <pt x="40" y="207" on="1"/>
      </contour>
      <contour>
        <pt x="166" y="175" on="1"/>
        <pt x="166" y="120" on="0"/>
        <pt x="207" y="41" on="0"/>
        <pt x="240" y="41" on="1"/>
        <pt x="302" y="41" on="0"/>
        <pt x="387" y="101" on="1"/>
        <pt x="397" y="98" on="0"/>
        <pt x="401" y="81" on="1"/>
        <pt x="282" y="1" on="1"/>
        <pt x="250" y="-20" on="0"/>
        <pt x="145" y="-20" on="0"/>
        <pt x="86" y="74" on="0"/>
        <pt x="86" y="139" on="1"/>
        <pt x="86" y="168" on="0"/>
        <pt x="89" y="193" on="1"/>
        <pt x="166" y="194" on="1"/>
      </contour>
      <contour>
        <pt x="329" y="509" on="0"/>
        <pt x="276" y="487" on="0"/>
        <pt x="203" y="442" on="0"/>
        <pt x="129" y="348" on="0"/>
        <pt x="109" y="288" on="1"/>
        <pt x="180" y="289" on="1"/>
        <pt x="200" y="369" on="0"/>
        <pt x="277" y="474" on="0"/>
        <pt x="318" y="474" on="1"/>
        <pt x="334" y="474" on="0"/>
        <pt x="382" y="459" on="0"/>
        <pt x="395" y="446" on="1"/>
        <pt x="402" y="383" on="0"/>
        <pt x="402" y="370" on="1"/>
        <pt x="406" y="368" on="0"/>
        <pt x="420" y="368" on="0"/>
        <pt x="425" y="372" on="1"/>
        <pt x="435" y="431" on="0"/>
        <pt x="446" y="482" on="1"/>
        <pt x="431" y="491" on="0"/>
        <pt x="366" y="509" on="0"/>
      </contour>
    </TTGlyph>
    <TTGlyph name="F" xMin="19" yMin="-8" xMax="573" yMax="727">
      <contour>
        <pt x="97" y="723" on="1"/>
        <pt x="193" y="720" on="1"/>
        <pt x="333" y="720" on="1"/>
        <pt x="560" y="727" on="1"/>
        <pt x="573" y="727" on="0"/>
        <pt x="573" y="717" on="1"/>
        <pt x="573" y="716" on="0"/>
        <pt x="568" y="692" on="1"/>
        <pt x="550" y="610" on="0"/>
        <pt x="544" y="544" on="1"/>
        <pt x="536" y="541" on="0"/>
        <pt x="522" y="541" on="0"/>
        <pt x="513" y="544" on="1"/>
        <pt x="508" y="657" on="0"/>
        <pt x="505" y="668" on="1"/>
        <pt x="419" y="689" on="0"/>
        <pt x="319" y="689" on="1"/>
        <pt x="280" y="689" on="0"/>
        <pt x="255" y="685" on="1"/>
        <pt x="245" y="667" on="0"/>
        <pt x="217" y="381" on="1"/>
        <pt x="239" y="377" on="0"/>
        <pt x="348" y="377" on="0"/>
        <pt x="392" y="383" on="1"/>
        <pt x="437" y="387" on="0"/>
        <pt x="451" y="423" on="1"/>
        <pt x="465" y="423" on="0"/>
        <pt x="475" y="416" on="1"/>
        <pt x="462" y="353" on="0"/>
        <pt x="456" y="257" on="1"/>
        <pt x="448" y="255" on="0"/>
        <pt x="445" y="255" on="1"/>
        <pt x="431" y="259" on="1"/>
        <pt x="431" y="336" on="1"/>
        <pt x="395" y="345" on="0"/>
        <pt x="238" y="345" on="0"/>
        <pt x="213" y="340" on="1"/>
        <pt x="204" y="224" on="1"/>
        <pt x="193" y="83" on="0"/>
        <pt x="193" y="37" on="1"/>
        <pt x="235" y="31" on="0"/>
        <pt x="307" y="31" on="1"/>
        <pt x="308" y="21" on="0"/>
        <pt x="308" y="4" on="0"/>
        <pt x="304" y="-3" on="1"/>
        <pt x="171" y="0" on="1"/>
        <pt x="79" y="0" on="0"/>
        <pt x="21" y="-8" on="1"/>
        <pt x="19" y="0" on="0"/>
        <pt x="19" y="5" on="1"/>
        <pt x="20" y="17" on="1"/>
        <pt x="52" y="24" on="0"/>
        <pt x="89" y="55" on="0"/>
        <pt x="94" y="68" on="1"/>
        <pt x="120" y="129" on="0"/>
        <pt x="160" y="635" on="0"/>
        <pt x="160" y="693" on="0"/>
        <pt x="156" y="693" on="1"/>
        <pt x="139" y="696" on="0"/>
        <pt x="95" y="696" on="1"/>
        <pt x="93" y="700" on="0"/>
        <pt x="93" y="709" on="0"/>
      </contour>
    </TTGlyph>
    <TTGlyph name="G" xMin="53" yMin="-20" xMax="669" yMax="736">
      <contour>
        <pt x="427" y="281" on="1"/>
        <pt x="571" y="279" on="1"/>
        <pt x="626" y="279" on="0"/>
        <pt x="667" y="287" on="1"/>
        <pt x="669" y="279" on="0"/>
        <pt x="669" y="272" on="1"/>
        <pt x="667" y="257" on="1"/>
        <pt x="640" y="253" on="0"/>
        <pt x="612" y="228" on="0"/>
        <pt x="605" y="192" on="1"/>
        <pt x="579" y="56" on="1"/>
        <pt x="539" y="24" on="0"/>
        <pt x="399" y="-20" on="0"/>
        <pt x="329" y="-20" on="1"/>
        <pt x="205" y="-20" on="0"/>
        <pt x="53" y="153" on="0"/>
        <pt x="53" y="398" on="0"/>
        <pt x="163" y="607" on="0"/>
        <pt x="354" y="736" on="0"/>
        <pt x="571" y="736" on="0"/>
        <pt x="660" y="704" on="1"/>
        <pt x="665" y="700" on="0"/>
        <pt x="665" y="691" on="0"/>
        <pt x="660" y="662" on="1"/>
        <pt x="643" y="550" on="0"/>
        <pt x="640" y="519" on="1"/>
        <pt x="633" y="515" on="0"/>
        <pt x="613" y="515" on="0"/>
        <pt x="605" y="517" on="1"/>
        <pt x="601" y="623" on="0"/>
        <pt x="596" y="645" on="1"/>
        <pt x="576" y="666" on="0"/>
        <pt x="489" y="700" on="0"/>
        <pt x="449" y="700" on="1"/>
        <pt x="370" y="700" on="0"/>
        <pt x="233" y="581" on="0"/>
        <pt x="157" y="401" on="0"/>
        <pt x="157" y="308" on="1"/>
        <pt x="157" y="198" on="0"/>
        <pt x="203" y="114" on="1"/>
        <pt x="226" y="71" on="0"/>
        <pt x="309" y="20" on="0"/>
        <pt x="404" y="20" on="0"/>
        <pt x="485" y="44" on="0"/>
        <pt x="507" y="65" on="1"/>
        <pt x="527" y="243" on="1"/>
        <pt x="488" y="248" on="0"/>
        <pt x="424" y="248" on="1"/>
        <pt x="421" y="255" on="0"/>
        <pt x="421" y="271" on="0"/>
      </contour>
    </TTGlyph>
    <TTGlyph name="H" xMin="19" yMin="-8" xMax="760" yMax="724">
      <contour>
        <pt x="536" y="723" on="1"/>
        <pt x="628" y="720" on="1"/>
        <pt x="709" y="720" on="0"/>
        <pt x="756" y="724" on="1"/>
        <pt x="760" y="720" on="0"/>
        <pt x="760" y="709" on="1"/>
        <pt x="759" y="699" on="1"/>
        <pt x="721" y="688" on="0"/>
        <pt x="691" y="648" on="0"/>
        <pt x="685" y="616" on="1"/>
        <pt x="666" y="518" on="0"/>
        <pt x="649" y="317" on="1"/>
        <pt x="636" y="168" on="1"/>
        <pt x="631" y="108" on="0"/>
        <pt x="631" y="31" on="0"/>
        <pt x="635" y="31" on="1"/>
        <pt x="652" y="28" on="0"/>
        <pt x="701" y="28" on="1"/>
        <pt x="703" y="23" on="0"/>
        <pt x="703" y="11" on="0"/>
        <pt x="699" y="-3" on="1"/>
        <pt x="605" y="0" on="1"/>
        <pt x="509" y="0" on="0"/>
        <pt x="448" y="-8" on="1"/>
        <pt x="445" y="-4" on="0"/>
        <pt x="445" y="5" on="1"/>
        <pt x="447" y="17" on="1"/>
        <pt x="500" y="27" on="0"/>
        <pt x="537" y="68" on="0"/>
        <pt x="544" y="104" on="1"/>
        <pt x="557" y="175" on="0"/>
        <pt x="576" y="352" on="1"/>
        <pt x="408" y="357" on="1"/>
        <pt x="335" y="357" on="0"/>
        <pt x="215" y="352" on="1"/>
        <pt x="199" y="168" on="1"/>
        <pt x="193" y="96" on="0"/>
        <pt x="193" y="31" on="0"/>
        <pt x="197" y="31" on="1"/>
        <pt x="213" y="28" on="0"/>
        <pt x="259" y="28" on="1"/>
        <pt x="260" y="23" on="0"/>
        <pt x="260" y="6" on="0"/>
        <pt x="256" y="-3" on="1"/>
        <pt x="167" y="0" on="1"/>
        <pt x="79" y="0" on="0"/>
        <pt x="21" y="-8" on="1"/>
        <pt x="19" y="0" on="0"/>
        <pt x="19" y="5" on="1"/>
        <pt x="20" y="17" on="1"/>
        <pt x="52" y="24" on="0"/>
        <pt x="89" y="55" on="0"/>
        <pt x="94" y="68" on="1"/>
        <pt x="120" y="129" on="0"/>
        <pt x="160" y="635" on="0"/>
        <pt x="160" y="693" on="0"/>
        <pt x="156" y="693" on="1"/>
        <pt x="139" y="696" on="0"/>
        <pt x="95" y="696" on="1"/>
        <pt x="93" y="700" on="0"/>
        <pt x="93" y="709" on="0"/>
        <pt x="97" y="723" on="1"/>
        <pt x="189" y="720" on="1"/>
        <pt x="272" y="720" on="0"/>
        <pt x="319" y="724" on="1"/>
        <pt x="323" y="718" on="0"/>
        <pt x="323" y="709" on="1"/>
        <pt x="321" y="699" on="1"/>
        <pt x="283" y="688" on="0"/>
        <pt x="255" y="650" on="0"/>
        <pt x="237" y="557" on="0"/>
        <pt x="219" y="396" on="1"/>
        <pt x="307" y="392" on="0"/>
        <pt x="412" y="392" on="1"/>
        <pt x="580" y="396" on="1"/>
        <pt x="593" y="552" on="1"/>
        <pt x="599" y="624" on="0"/>
        <pt x="599" y="693" on="0"/>
        <pt x="595" y="693" on="1"/>
        <pt x="577" y="696" on="0"/>
        <pt x="533" y="696" on="1"/>
        <pt x="532" y="700" on="0"/>
        <pt x="532" y="716" on="0"/>
      </contour>
    </TTGlyph>
    <TTGlyph name="I" xMin="9" yMin="-8" xMax="327" yMax="723">
      <contour>
        <pt x="83" y="723" on="1"/>
        <pt x="211" y="720" on="1"/>
        <pt x="325" y="723" on="1"/>
        <pt x="327" y="719" on="0"/>
        <pt x="327" y="712" on="1"/>
        <pt x="323" y="696" on="1"/>
        <pt x="284" y="696" on="0"/>
        <pt x="263" y="693" on="1"/>
        <pt x="247" y="691" on="0"/>
        <pt x="228" y="464" on="1"/>
        <pt x="215" y="301" on="1"/>
        <pt x="201" y="137" on="0"/>
        <pt x="201" y="27" on="0"/>
        <pt x="204" y="27" on="1"/>
        <pt x="228" y="24" on="0"/>
        <pt x="297" y="24" on="1"/>
        <pt x="299" y="20" on="0"/>
        <pt x="299" y="11" on="0"/>
        <pt x="295" y="-3" on="1"/>
        <pt x="167" y="0" on="1"/>
        <pt x="75" y="0" on="0"/>
        <pt x="13" y="-8" on="1"/>
        <pt x="9" y="0" on="0"/>
        <pt x="9" y="8" on="1"/>
        <pt x="11" y="16" on="1"/>
        <pt x="67" y="28" on="0"/>
        <pt x="100" y="61" on="0"/>
        <pt x="107" y="97" on="1"/>
        <pt x="128" y="211" on="0"/>
        <pt x="139" y="352" on="1"/>
        <pt x="148" y="464" on="1"/>
        <pt x="159" y="591" on="0"/>
        <pt x="159" y="693" on="0"/>
        <pt x="152" y="693" on="1"/>
        <pt x="119" y="696" on="0"/>
        <pt x="80" y="696" on="1"/>
        <pt x="79" y="700" on="0"/>
        <pt x="79" y="716" on="0"/>
      </contour>
    </TTGlyph>
    <TTGlyph name="Iacute" xMin="9" yMin="-8" xMax="415" yMax="943">
      <contour>
        <pt x="165" y="773" on="1"/>
        <pt x="157" y="783" on="0"/>
        <pt x="155" y="795" on="1"/>
        <pt x="277" y="864" on="0"/>
        <pt x="368" y="943" on="1"/>
        <pt x="400" y="925" on="0"/>
        <pt x="415" y="889" on="1"/>
        <pt x="374" y="862" on="0"/>
        <pt x="249" y="804" on="0"/>
        <pt x="207" y="788" on="1"/>
      </contour>
      <contour>
        <pt x="83" y="723" on="1"/>
        <pt x="211" y="720" on="1"/>
        <pt x="325" y="723" on="1"/>
        <pt x="327" y="719" on="0"/>
        <pt x="327" y="712" on="1"/>
        <pt x="323" y="696" on="1"/>
        <pt x="284" y="696" on="0"/>
        <pt x="263" y="693" on="1"/>
        <pt x="247" y="691" on="0"/>
        <pt x="228" y="464" on="1"/>
        <pt x="215" y="301" on="1"/>
        <pt x="201" y="137" on="0"/>
        <pt x="201" y="27" on="0"/>
        <pt x="204" y="27" on="1"/>
        <pt x="228" y="24" on="0"/>
        <pt x="297" y="24" on="1"/>
        <pt x="299" y="20" on="0"/>
        <pt x="299" y="11" on="0"/>
        <pt x="295" y="-3" on="1"/>
        <pt x="167" y="0" on="1"/>
        <pt x="75" y="0" on="0"/>
        <pt x="13" y="-8" on="1"/>
        <pt x="9" y="0" on="0"/>
        <pt x="9" y="8" on="1"/>
        <pt x="11" y="16" on="1"/>
        <pt x="67" y="28" on="0"/>
        <pt x="100" y="61" on="0"/>
        <pt x="107" y="97" on="1"/>
        <pt x="128" y="211" on="0"/>
        <pt x="139" y="352" on="1"/>
        <pt x="148" y="464" on="1"/>
        <pt x="159" y="591" on="0"/>
        <pt x="159" y="693" on="0"/>
        <pt x="152" y="693" on="1"/>
        <pt x="119" y="696" on="0"/>
        <pt x="80" y="696" on="1"/>
        <pt x="79" y="700" on="0"/>
        <pt x="79" y="716" on="0"/>
      </contour>
    </TTGlyph>
    <TTGlyph name="Icircumflex" xMin="9" yMin="-8" xMax="347" yMax="944">
      <contour>
        <pt x="239" y="861" on="1"/>
        <pt x="88" y="761" on="1"/>
        <pt x="82" y="761" on="0"/>
        <pt x="74" y="770" on="0"/>
        <pt x="72" y="779" on="1"/>
        <pt x="177" y="869" on="0"/>
        <pt x="251" y="944" on="1"/>
        <pt x="263" y="944" on="1"/>
        <pt x="347" y="776" on="1"/>
        <pt x="339" y="761" on="0"/>
        <pt x="324" y="761" on="1"/>
      </contour>
      <contour>
        <pt x="83" y="723" on="1"/>
        <pt x="211" y="720" on="1"/>
        <pt x="211" y="720" on="0"/>
        <pt x="325" y="723" on="1"/>
        <pt x="327" y="719" on="0"/>
        <pt x="327" y="712" on="1"/>
        <pt x="323" y="696" on="1"/>
        <pt x="284" y="696" on="0"/>
        <pt x="263" y="693" on="1"/>
        <pt x="247" y="691" on="0"/>
        <pt x="228" y="464" on="1"/>
        <pt x="215" y="301" on="1"/>
        <pt x="201" y="137" on="0"/>
        <pt x="201" y="27" on="0"/>
        <pt x="204" y="27" on="1"/>
        <pt x="228" y="24" on="0"/>
        <pt x="297" y="24" on="1"/>
        <pt x="299" y="20" on="0"/>
        <pt x="299" y="11" on="0"/>
        <pt x="295" y="-3" on="1"/>
        <pt x="167" y="0" on="1"/>
        <pt x="75" y="0" on="0"/>
        <pt x="13" y="-8" on="1"/>
        <pt x="9" y="0" on="0"/>
        <pt x="9" y="8" on="1"/>
        <pt x="11" y="16" on="1"/>
        <pt x="67" y="28" on="0"/>
        <pt x="100" y="61" on="0"/>
        <pt x="107" y="97" on="1"/>
        <pt x="128" y="211" on="0"/>
        <pt x="139" y="352" on="1"/>
        <pt x="148" y="464" on="1"/>
        <pt x="159" y="591" on="0"/>
        <pt x="159" y="693" on="0"/>
        <pt x="152" y="693" on="1"/>
        <pt x="119" y="696" on="0"/>
        <pt x="80" y="696" on="1"/>
        <pt x="79" y="700" on="0"/>
        <pt x="79" y="716" on="0"/>
      </contour>
    </TTGlyph>
    <TTGlyph name="Idieresis" xMin="9" yMin="-8" xMax="348" yMax="905">
      <contour>
        <pt x="175" y="841" on="1"/>
        <pt x="175" y="826" on="0"/>
        <pt x="126" y="791" on="0"/>
        <pt x="105" y="791" on="1"/>
        <pt x="89" y="835" on="0"/>
        <pt x="72" y="853" on="1"/>
        <pt x="95" y="890" on="0"/>
        <pt x="140" y="905" on="1"/>
        <pt x="175" y="874" on="0"/>
      </contour>
      <contour>
        <pt x="348" y="841" on="1"/>
        <pt x="348" y="826" on="0"/>
        <pt x="300" y="791" on="0"/>
        <pt x="279" y="791" on="1"/>
        <pt x="264" y="833" on="0"/>
        <pt x="245" y="853" on="1"/>
        <pt x="268" y="890" on="0"/>
        <pt x="313" y="905" on="1"/>
        <pt x="348" y="874" on="0"/>
      </contour>
      <contour>
        <pt x="83" y="723" on="1"/>
        <pt x="211" y="720" on="1"/>
        <pt x="325" y="723" on="1"/>
        <pt x="327" y="719" on="0"/>
        <pt x="327" y="712" on="1"/>
        <pt x="323" y="696" on="1"/>
        <pt x="284" y="696" on="0"/>
        <pt x="263" y="693" on="1"/>
        <pt x="247" y="691" on="0"/>
        <pt x="228" y="464" on="1"/>
        <pt x="215" y="301" on="1"/>
        <pt x="201" y="137" on="0"/>
        <pt x="201" y="27" on="0"/>
        <pt x="204" y="27" on="1"/>
        <pt x="228" y="24" on="0"/>
        <pt x="297" y="24" on="1"/>
        <pt x="299" y="20" on="0"/>
        <pt x="299" y="11" on="0"/>
        <pt x="295" y="-3" on="1"/>
        <pt x="167" y="0" on="1"/>
        <pt x="75" y="0" on="0"/>
        <pt x="13" y="-8" on="1"/>
        <pt x="9" y="0" on="0"/>
        <pt x="9" y="8" on="1"/>
        <pt x="11" y="16" on="1"/>
        <pt x="67" y="28" on="0"/>
        <pt x="100" y="61" on="0"/>
        <pt x="107" y="97" on="1"/>
        <pt x="128" y="211" on="0"/>
        <pt x="139" y="352" on="1"/>
        <pt x="148" y="464" on="1"/>
        <pt x="159" y="591" on="0"/>
        <pt x="159" y="693" on="0"/>
        <pt x="152" y="693" on="1"/>
        <pt x="119" y="696" on="0"/>
        <pt x="80" y="696" on="1"/>
        <pt x="79" y="700" on="0"/>
        <pt x="79" y="716" on="0"/>
      </contour>
    </TTGlyph>
    <TTGlyph name="Igrave" xMin="9" yMin="-8" xMax="327" yMax="943">
      <contour>
        <pt x="296" y="773" on="1"/>
        <pt x="139" y="829" on="0"/>
        <pt x="47" y="889" on="1"/>
        <pt x="61" y="925" on="0"/>
        <pt x="93" y="943" on="1"/>
        <pt x="133" y="908" on="0"/>
        <pt x="240" y="834" on="0"/>
        <pt x="274" y="814" on="1"/>
        <pt x="307" y="795" on="1"/>
        <pt x="307" y="784" on="0"/>
      </contour>
      <contour>
        <pt x="83" y="723" on="1"/>
        <pt x="211" y="720" on="1"/>
        <pt x="325" y="723" on="1"/>
        <pt x="327" y="719" on="0"/>
        <pt x="327" y="712" on="1"/>
        <pt x="323" y="696" on="1"/>
        <pt x="284" y="696" on="0"/>
        <pt x="263" y="693" on="1"/>
        <pt x="247" y="691" on="0"/>
        <pt x="228" y="464" on="1"/>
        <pt x="215" y="301" on="1"/>
        <pt x="201" y="137" on="0"/>
        <pt x="201" y="27" on="0"/>
        <pt x="204" y="27" on="1"/>
        <pt x="228" y="24" on="0"/>
        <pt x="297" y="24" on="1"/>
        <pt x="299" y="20" on="0"/>
        <pt x="299" y="11" on="0"/>
        <pt x="295" y="-3" on="1"/>
        <pt x="167" y="0" on="1"/>
        <pt x="75" y="0" on="0"/>
        <pt x="13" y="-8" on="1"/>
        <pt x="9" y="0" on="0"/>
        <pt x="9" y="8" on="1"/>
        <pt x="11" y="16" on="1"/>
        <pt x="67" y="28" on="0"/>
        <pt x="100" y="61" on="0"/>
        <pt x="107" y="97" on="1"/>
        <pt x="128" y="211" on="0"/>
        <pt x="139" y="352" on="1"/>
        <pt x="148" y="464" on="1"/>
        <pt x="159" y="591" on="0"/>
        <pt x="159" y="693" on="0"/>
        <pt x="152" y="693" on="1"/>
        <pt x="119" y="696" on="0"/>
        <pt x="80" y="696" on="1"/>
        <pt x="79" y="700" on="0"/>
        <pt x="79" y="716" on="0"/>
      </contour>
    </TTGlyph>
    <TTGlyph name="Itilde" xMin="9" yMin="-8" xMax="372" yMax="891">
      <contour>
        <pt x="296" y="800" on="0"/>
        <pt x="287" y="796" on="0"/>
        <pt x="262" y="796" on="0"/>
        <pt x="179" y="832" on="0"/>
        <pt x="135" y="832" on="0"/>
        <pt x="97" y="803" on="1"/>
        <pt x="84" y="806" on="0"/>
        <pt x="84" y="821" on="1"/>
        <pt x="136" y="869" on="1"/>
        <pt x="156" y="891" on="0"/>
        <pt x="196" y="891" on="0"/>
        <pt x="275" y="856" on="0"/>
        <pt x="321" y="856" on="0"/>
        <pt x="359" y="885" on="1"/>
        <pt x="371" y="881" on="0"/>
        <pt x="372" y="867" on="1"/>
        <pt x="340" y="836" on="1"/>
        <pt x="312" y="808" on="0"/>
      </contour>
      <contour>
        <pt x="325" y="723" on="1"/>
        <pt x="327" y="719" on="0"/>
        <pt x="327" y="703" on="0"/>
        <pt x="323" y="696" on="1"/>
        <pt x="284" y="696" on="0"/>
        <pt x="263" y="693" on="1"/>
        <pt x="247" y="691" on="0"/>
        <pt x="228" y="464" on="1"/>
        <pt x="215" y="301" on="1"/>
        <pt x="201" y="137" on="0"/>
        <pt x="201" y="27" on="0"/>
        <pt x="204" y="27" on="1"/>
        <pt x="228" y="24" on="0"/>
        <pt x="297" y="24" on="1"/>
        <pt x="299" y="15" on="1"/>
        <pt x="299" y="11" on="0"/>
        <pt x="295" y="-3" on="1"/>
        <pt x="167" y="0" on="1"/>
        <pt x="75" y="0" on="0"/>
        <pt x="13" y="-8" on="1"/>
        <pt x="9" y="0" on="0"/>
        <pt x="9" y="13" on="0"/>
        <pt x="11" y="16" on="1"/>
        <pt x="71" y="28" on="0"/>
        <pt x="87" y="48" on="1"/>
        <pt x="96" y="60" on="0"/>
        <pt x="103" y="78" on="0"/>
        <pt x="128" y="212" on="0"/>
        <pt x="139" y="352" on="1"/>
        <pt x="148" y="464" on="1"/>
        <pt x="159" y="593" on="0"/>
        <pt x="159" y="693" on="0"/>
        <pt x="152" y="693" on="1"/>
        <pt x="119" y="696" on="0"/>
        <pt x="80" y="696" on="1"/>
        <pt x="79" y="705" on="1"/>
        <pt x="79" y="716" on="0"/>
        <pt x="83" y="723" on="1"/>
        <pt x="211" y="720" on="1"/>
      </contour>
    </TTGlyph>
    <TTGlyph name="J" xMin="-44" yMin="-276" xMax="312" yMax="728">
      <contour>
        <pt x="72" y="723" on="1"/>
        <pt x="193" y="720" on="1"/>
        <pt x="268" y="720" on="0"/>
        <pt x="308" y="728" on="1"/>
        <pt x="312" y="723" on="0"/>
        <pt x="312" y="713" on="1"/>
        <pt x="311" y="703" on="1"/>
        <pt x="283" y="697" on="0"/>
        <pt x="269" y="667" on="1"/>
        <pt x="257" y="641" on="0"/>
        <pt x="251" y="616" on="1"/>
        <pt x="239" y="575" on="0"/>
        <pt x="224" y="395" on="1"/>
        <pt x="196" y="84" on="1"/>
        <pt x="184" y="-39" on="0"/>
        <pt x="139" y="-142" on="0"/>
        <pt x="67" y="-200" on="1"/>
        <pt x="-29" y="-276" on="1"/>
        <pt x="-44" y="-272" on="0"/>
        <pt x="-44" y="-253" on="1"/>
        <pt x="7" y="-200" on="1"/>
        <pt x="63" y="-140" on="0"/>
        <pt x="110" y="17" on="0"/>
        <pt x="123" y="167" on="1"/>
        <pt x="145" y="433" on="1"/>
        <pt x="159" y="592" on="0"/>
        <pt x="159" y="692" on="0"/>
        <pt x="153" y="692" on="1"/>
        <pt x="114" y="696" on="0"/>
        <pt x="71" y="696" on="1"/>
        <pt x="69" y="700" on="0"/>
        <pt x="69" y="707" on="1"/>
      </contour>
    </TTGlyph>
    <TTGlyph name="Jcircumflex" xMin="-44" yMin="-276" xMax="340" yMax="944">
      <contour>
        <pt x="232" y="861" on="1"/>
        <pt x="81" y="761" on="1"/>
        <pt x="75" y="761" on="0"/>
        <pt x="67" y="770" on="0"/>
        <pt x="65" y="779" on="1"/>
        <pt x="171" y="869" on="0"/>
        <pt x="244" y="944" on="1"/>
        <pt x="256" y="944" on="1"/>
        <pt x="340" y="776" on="1"/>
        <pt x="332" y="761" on="0"/>
        <pt x="317" y="761" on="1"/>
      </contour>
      <contour>
        <pt x="72" y="723" on="1"/>
        <pt x="193" y="720" on="1"/>
        <pt x="268" y="720" on="0"/>
        <pt x="308" y="728" on="1"/>
        <pt x="312" y="723" on="0"/>
        <pt x="312" y="713" on="1"/>
        <pt x="311" y="703" on="1"/>
        <pt x="283" y="697" on="0"/>
        <pt x="269" y="667" on="1"/>
        <pt x="257" y="641" on="0"/>
        <pt x="251" y="616" on="1"/>
        <pt x="239" y="575" on="0"/>
        <pt x="224" y="395" on="1"/>
        <pt x="196" y="84" on="1"/>
        <pt x="184" y="-39" on="0"/>
        <pt x="139" y="-142" on="0"/>
        <pt x="67" y="-200" on="1"/>
        <pt x="-29" y="-276" on="1"/>
        <pt x="-44" y="-272" on="0"/>
        <pt x="-44" y="-253" on="1"/>
        <pt x="7" y="-200" on="1"/>
        <pt x="63" y="-140" on="0"/>
        <pt x="110" y="17" on="0"/>
        <pt x="123" y="167" on="1"/>
        <pt x="145" y="433" on="1"/>
        <pt x="159" y="592" on="0"/>
        <pt x="159" y="692" on="0"/>
        <pt x="153" y="692" on="1"/>
        <pt x="114" y="696" on="0"/>
        <pt x="71" y="696" on="1"/>
        <pt x="69" y="700" on="0"/>
        <pt x="69" y="707" on="1"/>
      </contour>
    </TTGlyph>
    <TTGlyph name="K" xMin="19" yMin="-20" xMax="645" yMax="725">
      <contour>
        <pt x="640" y="27" on="1"/>
        <pt x="643" y="18" on="0"/>
        <pt x="643" y="8" on="0"/>
        <pt x="639" y="0" on="1"/>
        <pt x="581" y="-3" on="0"/>
        <pt x="498" y="-20" on="0"/>
        <pt x="493" y="-20" on="1"/>
        <pt x="465" y="-20" on="0"/>
        <pt x="325" y="274" on="1"/>
        <pt x="270" y="390" on="0"/>
        <pt x="264" y="401" on="1"/>
        <pt x="393" y="524" on="1"/>
        <pt x="476" y="605" on="0"/>
        <pt x="519" y="685" on="1"/>
        <pt x="503" y="695" on="0"/>
        <pt x="451" y="697" on="1"/>
        <pt x="451" y="715" on="0"/>
        <pt x="456" y="724" on="1"/>
        <pt x="547" y="720" on="0"/>
        <pt x="584" y="720" on="0"/>
        <pt x="639" y="725" on="1"/>
        <pt x="645" y="719" on="0"/>
        <pt x="645" y="704" on="0"/>
        <pt x="644" y="700" on="1"/>
        <pt x="585" y="665" on="0"/>
        <pt x="544" y="624" on="1"/>
        <pt x="345" y="429" on="1"/>
        <pt x="447" y="225" on="1"/>
        <pt x="497" y="123" on="0"/>
        <pt x="559" y="32" on="0"/>
        <pt x="597" y="27" on="0"/>
      </contour>
      <contour>
        <pt x="111" y="723" on="1"/>
        <pt x="207" y="720" on="1"/>
        <pt x="288" y="720" on="0"/>
        <pt x="335" y="724" on="1"/>
        <pt x="339" y="718" on="0"/>
        <pt x="339" y="709" on="1"/>
        <pt x="337" y="699" on="1"/>
        <pt x="299" y="688" on="0"/>
        <pt x="271" y="650" on="0"/>
        <pt x="250" y="556" on="0"/>
        <pt x="239" y="435" on="1"/>
        <pt x="216" y="168" on="1"/>
        <pt x="211" y="108" on="0"/>
        <pt x="211" y="31" on="0"/>
        <pt x="215" y="31" on="1"/>
        <pt x="235" y="28" on="0"/>
        <pt x="287" y="28" on="1"/>
        <pt x="288" y="23" on="0"/>
        <pt x="288" y="6" on="0"/>
        <pt x="284" y="-3" on="1"/>
        <pt x="184" y="0" on="1"/>
        <pt x="84" y="0" on="0"/>
        <pt x="21" y="-8" on="1"/>
        <pt x="19" y="0" on="0"/>
        <pt x="19" y="5" on="1"/>
        <pt x="20" y="17" on="1"/>
        <pt x="75" y="28" on="0"/>
        <pt x="112" y="66" on="0"/>
        <pt x="119" y="104" on="1"/>
        <pt x="138" y="218" on="0"/>
        <pt x="173" y="618" on="0"/>
        <pt x="173" y="693" on="0"/>
        <pt x="169" y="693" on="1"/>
        <pt x="152" y="696" on="0"/>
        <pt x="108" y="696" on="1"/>
        <pt x="107" y="700" on="0"/>
        <pt x="107" y="714" on="0"/>
      </contour>
    </TTGlyph>
    <TTGlyph name="L" xMin="19" yMin="-8" xMax="544" yMax="724">
      <contour>
        <pt x="391" y="-4" on="1"/>
        <pt x="237" y="0" on="1"/>
        <pt x="171" y="0" on="1"/>
        <pt x="79" y="0" on="0"/>
        <pt x="21" y="-8" on="1"/>
        <pt x="19" y="0" on="0"/>
        <pt x="19" y="5" on="1"/>
        <pt x="20" y="17" on="1"/>
        <pt x="52" y="24" on="0"/>
        <pt x="89" y="55" on="0"/>
        <pt x="94" y="68" on="1"/>
        <pt x="117" y="121" on="0"/>
        <pt x="160" y="618" on="0"/>
        <pt x="160" y="693" on="0"/>
        <pt x="156" y="693" on="1"/>
        <pt x="139" y="696" on="0"/>
        <pt x="95" y="696" on="1"/>
        <pt x="93" y="700" on="0"/>
        <pt x="93" y="709" on="0"/>
        <pt x="97" y="723" on="1"/>
        <pt x="193" y="720" on="1"/>
        <pt x="287" y="720" on="0"/>
        <pt x="344" y="724" on="1"/>
        <pt x="348" y="720" on="0"/>
        <pt x="348" y="709" on="1"/>
        <pt x="347" y="699" on="1"/>
        <pt x="296" y="688" on="0"/>
        <pt x="260" y="653" on="0"/>
        <pt x="251" y="621" on="1"/>
        <pt x="236" y="558" on="0"/>
        <pt x="225" y="435" on="1"/>
        <pt x="203" y="168" on="1"/>
        <pt x="197" y="106" on="0"/>
        <pt x="197" y="45" on="0"/>
        <pt x="199" y="36" on="1"/>
        <pt x="228" y="32" on="0"/>
        <pt x="272" y="32" on="1"/>
        <pt x="366" y="32" on="0"/>
        <pt x="463" y="59" on="1"/>
        <pt x="481" y="87" on="0"/>
        <pt x="512" y="169" on="0"/>
        <pt x="515" y="176" on="1"/>
        <pt x="530" y="176" on="0"/>
        <pt x="544" y="168" on="1"/>
        <pt x="534" y="131" on="0"/>
        <pt x="512" y="28" on="0"/>
        <pt x="509" y="15" on="1"/>
        <pt x="508" y="4" on="0"/>
        <pt x="496" y="3" on="1"/>
        <pt x="459" y="-4" on="0"/>
      </contour>
    </TTGlyph>
    <TTGlyph name="Lslash" xMin="19" yMin="-8" xMax="544" yMax="724">
      <contour>
        <pt x="391" y="-4" on="1"/>
        <pt x="237" y="0" on="1"/>
        <pt x="171" y="0" on="1"/>
        <pt x="79" y="0" on="0"/>
        <pt x="21" y="-8" on="1"/>
        <pt x="19" y="0" on="0"/>
        <pt x="19" y="5" on="1"/>
        <pt x="20" y="17" on="1"/>
        <pt x="52" y="24" on="0"/>
        <pt x="89" y="55" on="0"/>
        <pt x="94" y="68" on="1"/>
        <pt x="112" y="109" on="0"/>
        <pt x="131" y="289" on="1"/>
        <pt x="89" y="263" on="0"/>
        <pt x="55" y="236" on="1"/>
        <pt x="42" y="236" on="0"/>
        <pt x="40" y="245" on="1"/>
        <pt x="45" y="292" on="1"/>
        <pt x="136" y="345" on="1"/>
        <pt x="140" y="385" on="1"/>
        <pt x="160" y="584" on="0"/>
        <pt x="160" y="693" on="0"/>
        <pt x="156" y="693" on="1"/>
        <pt x="139" y="696" on="0"/>
        <pt x="95" y="696" on="1"/>
        <pt x="93" y="700" on="0"/>
        <pt x="93" y="709" on="0"/>
        <pt x="97" y="723" on="1"/>
        <pt x="193" y="720" on="1"/>
        <pt x="287" y="720" on="0"/>
        <pt x="344" y="724" on="1"/>
        <pt x="348" y="720" on="0"/>
        <pt x="348" y="709" on="1"/>
        <pt x="347" y="699" on="1"/>
        <pt x="296" y="688" on="0"/>
        <pt x="260" y="653" on="0"/>
        <pt x="251" y="621" on="1"/>
        <pt x="236" y="558" on="0"/>
        <pt x="225" y="435" on="1"/>
        <pt x="221" y="395" on="1"/>
        <pt x="235" y="403" on="1"/>
        <pt x="258" y="416" on="0"/>
        <pt x="417" y="517" on="0"/>
        <pt x="451" y="541" on="1"/>
        <pt x="461" y="539" on="0"/>
        <pt x="464" y="532" on="1"/>
        <pt x="459" y="480" on="1"/>
        <pt x="217" y="339" on="1"/>
        <pt x="203" y="168" on="1"/>
        <pt x="197" y="106" on="0"/>
        <pt x="197" y="45" on="0"/>
        <pt x="199" y="36" on="1"/>
        <pt x="228" y="32" on="0"/>
        <pt x="272" y="32" on="1"/>
        <pt x="366" y="32" on="0"/>
        <pt x="463" y="59" on="1"/>
        <pt x="481" y="87" on="0"/>
        <pt x="512" y="169" on="0"/>
        <pt x="515" y="176" on="1"/>
        <pt x="530" y="176" on="0"/>
        <pt x="544" y="168" on="1"/>
        <pt x="534" y="131" on="0"/>
        <pt x="512" y="28" on="0"/>
        <pt x="509" y="15" on="1"/>
        <pt x="508" y="4" on="0"/>
        <pt x="496" y="3" on="1"/>
        <pt x="459" y="-4" on="0"/>
      </contour>
    </TTGlyph>
    <TTGlyph name="M" xMin="11" yMin="-23" xMax="899" yMax="731">
      <contour>
        <pt x="849" y="-3" on="1"/>
        <pt x="756" y="0" on="1"/>
        <pt x="662" y="0" on="0"/>
        <pt x="603" y="-8" on="1"/>
        <pt x="599" y="-3" on="0"/>
        <pt x="599" y="7" on="1"/>
        <pt x="600" y="17" on="1"/>
        <pt x="651" y="27" on="0"/>
        <pt x="690" y="66" on="0"/>
        <pt x="695" y="101" on="1"/>
        <pt x="705" y="181" on="0"/>
        <pt x="716" y="396" on="1"/>
        <pt x="724" y="560" on="1"/>
        <pt x="679" y="489" on="0"/>
        <pt x="467" y="76" on="0"/>
        <pt x="429" y="-23" on="1"/>
        <pt x="404" y="-16" on="1"/>
        <pt x="267" y="425" on="0"/>
        <pt x="227" y="517" on="1"/>
        <pt x="195" y="591" on="1"/>
        <pt x="167" y="330" on="0"/>
        <pt x="152" y="147" on="0"/>
        <pt x="152" y="27" on="1"/>
        <pt x="173" y="24" on="0"/>
        <pt x="224" y="24" on="1"/>
        <pt x="225" y="20" on="0"/>
        <pt x="225" y="6" on="0"/>
        <pt x="221" y="-3" on="1"/>
        <pt x="119" y="0" on="1"/>
        <pt x="57" y="0" on="0"/>
        <pt x="15" y="-8" on="1"/>
        <pt x="11" y="-3" on="0"/>
        <pt x="11" y="7" on="1"/>
        <pt x="12" y="17" on="1"/>
        <pt x="55" y="27" on="0"/>
        <pt x="92" y="71" on="0"/>
        <pt x="99" y="103" on="1"/>
        <pt x="137" y="292" on="0"/>
        <pt x="169" y="643" on="1"/>
        <pt x="152" y="676" on="0"/>
        <pt x="121" y="692" on="1"/>
        <pt x="104" y="699" on="0"/>
        <pt x="61" y="703" on="1"/>
        <pt x="61" y="718" on="0"/>
        <pt x="68" y="729" on="1"/>
        <pt x="102" y="727" on="0"/>
        <pt x="120" y="727" on="1"/>
        <pt x="217" y="731" on="1"/>
        <pt x="241" y="731" on="0"/>
        <pt x="308" y="572" on="1"/>
        <pt x="360" y="448" on="0"/>
        <pt x="431" y="208" on="1"/>
        <pt x="455" y="127" on="0"/>
        <pt x="456" y="124" on="1"/>
        <pt x="477" y="168" on="0"/>
        <pt x="711" y="631" on="0"/>
        <pt x="749" y="720" on="1"/>
        <pt x="842" y="720" on="0"/>
        <pt x="896" y="729" on="1"/>
        <pt x="899" y="717" on="0"/>
        <pt x="899" y="716" on="1"/>
        <pt x="897" y="704" on="1"/>
        <pt x="851" y="693" on="0"/>
        <pt x="814" y="649" on="0"/>
        <pt x="809" y="616" on="1"/>
        <pt x="797" y="544" on="0"/>
        <pt x="779" y="219" on="0"/>
        <pt x="779" y="55" on="0"/>
        <pt x="780" y="27" on="1"/>
        <pt x="796" y="24" on="0"/>
        <pt x="852" y="24" on="1"/>
        <pt x="853" y="20" on="0"/>
        <pt x="853" y="6" on="0"/>
      </contour>
    </TTGlyph>
    <TTGlyph name="N" xMin="15" yMin="-25" xMax="787" yMax="733">
      <contour>
        <pt x="224" y="-3" on="1"/>
        <pt x="123" y="0" on="1"/>
        <pt x="60" y="0" on="0"/>
        <pt x="17" y="-8" on="1"/>
        <pt x="15" y="-4" on="0"/>
        <pt x="15" y="5" on="1"/>
        <pt x="16" y="17" on="1"/>
        <pt x="60" y="28" on="0"/>
        <pt x="93" y="70" on="0"/>
        <pt x="101" y="104" on="1"/>
        <pt x="132" y="247" on="0"/>
        <pt x="169" y="653" on="1"/>
        <pt x="143" y="682" on="0"/>
        <pt x="112" y="698" on="0"/>
        <pt x="67" y="703" on="1"/>
        <pt x="65" y="707" on="0"/>
        <pt x="65" y="724" on="0"/>
        <pt x="69" y="729" on="1"/>
        <pt x="88" y="728" on="0"/>
        <pt x="113" y="728" on="1"/>
        <pt x="216" y="733" on="1"/>
        <pt x="244" y="733" on="0"/>
        <pt x="504" y="344" on="0"/>
        <pt x="624" y="136" on="1"/>
        <pt x="627" y="215" on="0"/>
        <pt x="657" y="596" on="0"/>
        <pt x="657" y="672" on="0"/>
        <pt x="656" y="693" on="1"/>
        <pt x="635" y="696" on="0"/>
        <pt x="583" y="696" on="1"/>
        <pt x="580" y="701" on="0"/>
        <pt x="580" y="715" on="0"/>
        <pt x="584" y="723" on="1"/>
        <pt x="680" y="720" on="1"/>
        <pt x="743" y="720" on="0"/>
        <pt x="785" y="728" on="1"/>
        <pt x="787" y="725" on="0"/>
        <pt x="787" y="717" on="1"/>
        <pt x="785" y="703" on="1"/>
        <pt x="741" y="692" on="0"/>
        <pt x="712" y="652" on="0"/>
        <pt x="708" y="616" on="1"/>
        <pt x="688" y="478" on="0"/>
        <pt x="644" y="-15" on="1"/>
        <pt x="620" y="-25" on="1"/>
        <pt x="589" y="28" on="0"/>
        <pt x="380" y="356" on="0"/>
        <pt x="340" y="421" on="1"/>
        <pt x="255" y="559" on="0"/>
        <pt x="196" y="623" on="1"/>
        <pt x="193" y="585" on="0"/>
        <pt x="174" y="370" on="0"/>
        <pt x="169" y="308" on="1"/>
        <pt x="155" y="134" on="0"/>
        <pt x="155" y="43" on="0"/>
        <pt x="156" y="27" on="1"/>
        <pt x="176" y="24" on="0"/>
        <pt x="227" y="24" on="1"/>
        <pt x="228" y="20" on="0"/>
        <pt x="228" y="3" on="0"/>
      </contour>
    </TTGlyph>
    <TTGlyph name="Nacute" xMin="15" yMin="-25" xMax="787" yMax="943">
      <contour>
        <pt x="340" y="773" on="1"/>
        <pt x="331" y="782" on="0"/>
        <pt x="329" y="795" on="1"/>
        <pt x="452" y="864" on="0"/>
        <pt x="543" y="943" on="1"/>
        <pt x="575" y="925" on="0"/>
        <pt x="589" y="889" on="1"/>
        <pt x="548" y="862" on="0"/>
        <pt x="424" y="804" on="0"/>
        <pt x="382" y="788" on="1"/>
      </contour>
      <contour>
        <pt x="224" y="-3" on="1"/>
        <pt x="123" y="0" on="1"/>
        <pt x="60" y="0" on="0"/>
        <pt x="17" y="-8" on="1"/>
        <pt x="15" y="-4" on="0"/>
        <pt x="15" y="5" on="1"/>
        <pt x="16" y="17" on="1"/>
        <pt x="60" y="28" on="0"/>
        <pt x="93" y="70" on="0"/>
        <pt x="101" y="104" on="1"/>
        <pt x="132" y="247" on="0"/>
        <pt x="169" y="653" on="1"/>
        <pt x="143" y="682" on="0"/>
        <pt x="112" y="698" on="0"/>
        <pt x="67" y="703" on="1"/>
        <pt x="65" y="707" on="0"/>
        <pt x="65" y="724" on="0"/>
        <pt x="69" y="729" on="1"/>
        <pt x="88" y="728" on="0"/>
        <pt x="113" y="728" on="1"/>
        <pt x="216" y="733" on="1"/>
        <pt x="244" y="733" on="0"/>
        <pt x="504" y="344" on="0"/>
        <pt x="624" y="136" on="1"/>
        <pt x="627" y="215" on="0"/>
        <pt x="657" y="596" on="0"/>
        <pt x="657" y="672" on="0"/>
        <pt x="656" y="693" on="1"/>
        <pt x="635" y="696" on="0"/>
        <pt x="583" y="696" on="1"/>
        <pt x="580" y="701" on="0"/>
        <pt x="580" y="715" on="0"/>
        <pt x="584" y="723" on="1"/>
        <pt x="680" y="720" on="1"/>
        <pt x="743" y="720" on="0"/>
        <pt x="785" y="728" on="1"/>
        <pt x="787" y="725" on="0"/>
        <pt x="787" y="717" on="1"/>
        <pt x="785" y="703" on="1"/>
        <pt x="741" y="692" on="0"/>
        <pt x="712" y="652" on="0"/>
        <pt x="708" y="616" on="1"/>
        <pt x="688" y="478" on="0"/>
        <pt x="644" y="-15" on="1"/>
        <pt x="620" y="-25" on="1"/>
        <pt x="589" y="28" on="0"/>
        <pt x="380" y="356" on="0"/>
        <pt x="340" y="421" on="1"/>
        <pt x="255" y="559" on="0"/>
        <pt x="196" y="623" on="1"/>
        <pt x="193" y="585" on="0"/>
        <pt x="174" y="370" on="0"/>
        <pt x="169" y="308" on="1"/>
        <pt x="155" y="134" on="0"/>
        <pt x="155" y="43" on="0"/>
        <pt x="156" y="27" on="1"/>
        <pt x="176" y="24" on="0"/>
        <pt x="227" y="24" on="1"/>
        <pt x="228" y="20" on="0"/>
        <pt x="228" y="3" on="0"/>
      </contour>
    </TTGlyph>
    <TTGlyph name="Ntilde" xMin="15" yMin="-25" xMax="787" yMax="888">
      <contour>
        <pt x="541" y="797" on="0"/>
        <pt x="530" y="793" on="0"/>
        <pt x="501" y="793" on="0"/>
        <pt x="410" y="829" on="0"/>
        <pt x="374" y="829" on="0"/>
        <pt x="362" y="826" on="0"/>
        <pt x="346" y="818" on="0"/>
        <pt x="342" y="816" on="1"/>
        <pt x="323" y="805" on="0"/>
        <pt x="318" y="800" on="1"/>
        <pt x="303" y="806" on="0"/>
        <pt x="303" y="819" on="1"/>
        <pt x="361" y="867" on="1"/>
        <pt x="387" y="888" on="0"/>
        <pt x="429" y="888" on="0"/>
        <pt x="516" y="853" on="0"/>
        <pt x="569" y="853" on="0"/>
        <pt x="609" y="883" on="1"/>
        <pt x="622" y="877" on="0"/>
        <pt x="623" y="864" on="1"/>
        <pt x="587" y="833" on="1"/>
        <pt x="584" y="831" on="0"/>
        <pt x="564" y="814" on="0"/>
        <pt x="556" y="808" on="0"/>
      </contour>
      <contour>
        <pt x="224" y="-3" on="1"/>
        <pt x="123" y="0" on="1"/>
        <pt x="60" y="0" on="0"/>
        <pt x="17" y="-8" on="1"/>
        <pt x="15" y="-4" on="0"/>
        <pt x="15" y="5" on="1"/>
        <pt x="16" y="17" on="1"/>
        <pt x="60" y="28" on="0"/>
        <pt x="93" y="70" on="0"/>
        <pt x="101" y="104" on="1"/>
        <pt x="132" y="247" on="0"/>
        <pt x="169" y="653" on="1"/>
        <pt x="143" y="682" on="0"/>
        <pt x="112" y="698" on="0"/>
        <pt x="67" y="703" on="1"/>
        <pt x="65" y="707" on="0"/>
        <pt x="65" y="724" on="0"/>
        <pt x="69" y="729" on="1"/>
        <pt x="88" y="728" on="0"/>
        <pt x="113" y="728" on="1"/>
        <pt x="216" y="733" on="1"/>
        <pt x="244" y="733" on="0"/>
        <pt x="504" y="344" on="0"/>
        <pt x="624" y="136" on="1"/>
        <pt x="627" y="215" on="0"/>
        <pt x="657" y="596" on="0"/>
        <pt x="657" y="672" on="0"/>
        <pt x="656" y="693" on="1"/>
        <pt x="635" y="696" on="0"/>
        <pt x="583" y="696" on="1"/>
        <pt x="580" y="701" on="0"/>
        <pt x="580" y="715" on="0"/>
        <pt x="584" y="723" on="1"/>
        <pt x="680" y="720" on="1"/>
        <pt x="743" y="720" on="0"/>
        <pt x="785" y="728" on="1"/>
        <pt x="787" y="725" on="0"/>
        <pt x="787" y="717" on="1"/>
        <pt x="785" y="703" on="1"/>
        <pt x="741" y="692" on="0"/>
        <pt x="712" y="652" on="0"/>
        <pt x="708" y="616" on="1"/>
        <pt x="688" y="478" on="0"/>
        <pt x="644" y="-15" on="1"/>
        <pt x="620" y="-25" on="1"/>
        <pt x="589" y="28" on="0"/>
        <pt x="380" y="356" on="0"/>
        <pt x="340" y="421" on="1"/>
        <pt x="255" y="559" on="0"/>
        <pt x="196" y="623" on="1"/>
        <pt x="193" y="585" on="0"/>
        <pt x="174" y="370" on="0"/>
        <pt x="169" y="308" on="1"/>
        <pt x="155" y="134" on="0"/>
        <pt x="155" y="43" on="0"/>
        <pt x="156" y="27" on="1"/>
        <pt x="176" y="24" on="0"/>
        <pt x="227" y="24" on="1"/>
        <pt x="228" y="20" on="0"/>
        <pt x="228" y="3" on="0"/>
      </contour>
    </TTGlyph>
    <TTGlyph name="O" xMin="55" yMin="-20" xMax="700" yMax="736">
      <contour>
        <pt x="700" y="431" on="1"/>
        <pt x="700" y="349" on="0"/>
        <pt x="664" y="212" on="0"/>
        <pt x="609" y="121" on="0"/>
        <pt x="536" y="51" on="0"/>
        <pt x="466" y="12" on="0"/>
        <pt x="431" y="0" on="1"/>
        <pt x="376" y="-20" on="0"/>
        <pt x="340" y="-20" on="1"/>
        <pt x="215" y="-20" on="0"/>
        <pt x="55" y="154" on="0"/>
        <pt x="55" y="283" on="1"/>
        <pt x="55" y="365" on="0"/>
        <pt x="92" y="503" on="0"/>
        <pt x="151" y="593" on="0"/>
        <pt x="226" y="665" on="0"/>
        <pt x="298" y="703" on="0"/>
        <pt x="332" y="716" on="1"/>
        <pt x="389" y="736" on="0"/>
        <pt x="416" y="736" on="1"/>
        <pt x="540" y="736" on="0"/>
        <pt x="700" y="559" on="0"/>
      </contour>
      <contour>
        <pt x="372" y="32" on="1"/>
        <pt x="432" y="32" on="0"/>
        <pt x="525" y="93" on="0"/>
        <pt x="552" y="144" on="1"/>
        <pt x="605" y="247" on="0"/>
        <pt x="605" y="502" on="0"/>
        <pt x="488" y="685" on="0"/>
        <pt x="387" y="685" on="1"/>
        <pt x="309" y="685" on="0"/>
        <pt x="254" y="632" on="1"/>
        <pt x="149" y="531" on="0"/>
        <pt x="149" y="335" on="1"/>
        <pt x="149" y="213" on="0"/>
        <pt x="272" y="32" on="0"/>
      </contour>
    </TTGlyph>
    <TTGlyph name="OE" xMin="55" yMin="-15" xMax="939" yMax="731">
      <contour>
        <pt x="548" y="0" on="1"/>
        <pt x="340" y="-15" on="1"/>
        <pt x="214" y="-15" on="0"/>
        <pt x="55" y="154" on="0"/>
        <pt x="55" y="395" on="0"/>
        <pt x="126" y="569" on="0"/>
        <pt x="221" y="659" on="0"/>
        <pt x="278" y="688" on="1"/>
        <pt x="364" y="731" on="0"/>
        <pt x="416" y="731" on="1"/>
        <pt x="603" y="720" on="1"/>
        <pt x="711" y="720" on="1"/>
        <pt x="925" y="727" on="1"/>
        <pt x="939" y="727" on="0"/>
        <pt x="939" y="717" on="1"/>
        <pt x="939" y="715" on="0"/>
        <pt x="934" y="692" on="1"/>
        <pt x="918" y="619" on="0"/>
        <pt x="909" y="544" on="1"/>
        <pt x="903" y="541" on="0"/>
        <pt x="891" y="541" on="0"/>
        <pt x="879" y="544" on="1"/>
        <pt x="878" y="560" on="0"/>
        <pt x="876" y="590" on="1"/>
        <pt x="873" y="661" on="0"/>
        <pt x="871" y="668" on="1"/>
        <pt x="790" y="689" on="0"/>
        <pt x="696" y="689" on="1"/>
        <pt x="657" y="689" on="0"/>
        <pt x="632" y="685" on="1"/>
        <pt x="620" y="661" on="0"/>
        <pt x="596" y="392" on="1"/>
        <pt x="611" y="388" on="0"/>
        <pt x="734" y="388" on="0"/>
        <pt x="817" y="398" on="0"/>
        <pt x="829" y="433" on="1"/>
        <pt x="844" y="433" on="0"/>
        <pt x="853" y="427" on="1"/>
        <pt x="841" y="361" on="0"/>
        <pt x="835" y="269" on="1"/>
        <pt x="827" y="267" on="0"/>
        <pt x="824" y="267" on="1"/>
        <pt x="809" y="271" on="1"/>
        <pt x="809" y="347" on="1"/>
        <pt x="755" y="356" on="0"/>
        <pt x="630" y="356" on="0"/>
        <pt x="592" y="351" on="1"/>
        <pt x="576" y="169" on="1"/>
        <pt x="571" y="116" on="0"/>
        <pt x="571" y="36" on="1"/>
        <pt x="595" y="32" on="0"/>
        <pt x="633" y="32" on="1"/>
        <pt x="727" y="32" on="0"/>
        <pt x="824" y="59" on="1"/>
        <pt x="841" y="85" on="0"/>
        <pt x="873" y="167" on="1"/>
        <pt x="887" y="167" on="0"/>
        <pt x="903" y="159" on="1"/>
        <pt x="891" y="117" on="0"/>
        <pt x="871" y="15" on="1"/>
        <pt x="867" y="4" on="0"/>
        <pt x="857" y="3" on="1"/>
        <pt x="817" y="-4" on="0"/>
        <pt x="752" y="-4" on="1"/>
        <pt x="599" y="0" on="1"/>
      </contour>
      <contour>
        <pt x="372" y="32" on="1"/>
        <pt x="423" y="32" on="0"/>
        <pt x="468" y="56" on="1"/>
        <pt x="494" y="101" on="0"/>
        <pt x="537" y="635" on="0"/>
        <pt x="537" y="664" on="1"/>
        <pt x="487" y="683" on="0"/>
        <pt x="387" y="683" on="1"/>
        <pt x="309" y="683" on="0"/>
        <pt x="254" y="630" on="1"/>
        <pt x="149" y="530" on="0"/>
        <pt x="149" y="335" on="1"/>
        <pt x="149" y="213" on="0"/>
        <pt x="272" y="32" on="0"/>
      </contour>
    </TTGlyph>
    <TTGlyph name="Oacute" xMin="55" yMin="-20" xMax="700" yMax="943">
      <contour>
        <pt x="337" y="773" on="1"/>
        <pt x="329" y="783" on="0"/>
        <pt x="327" y="795" on="1"/>
        <pt x="449" y="864" on="0"/>
        <pt x="540" y="943" on="1"/>
        <pt x="572" y="925" on="0"/>
        <pt x="587" y="889" on="1"/>
        <pt x="546" y="862" on="0"/>
        <pt x="421" y="804" on="0"/>
        <pt x="379" y="788" on="1"/>
      </contour>
      <contour>
        <pt x="700" y="431" on="1"/>
        <pt x="700" y="349" on="0"/>
        <pt x="664" y="212" on="0"/>
        <pt x="609" y="121" on="0"/>
        <pt x="536" y="51" on="0"/>
        <pt x="466" y="12" on="0"/>
        <pt x="431" y="0" on="1"/>
        <pt x="376" y="-20" on="0"/>
        <pt x="340" y="-20" on="1"/>
        <pt x="215" y="-20" on="0"/>
        <pt x="55" y="154" on="0"/>
        <pt x="55" y="283" on="1"/>
        <pt x="55" y="365" on="0"/>
        <pt x="92" y="503" on="0"/>
        <pt x="151" y="593" on="0"/>
        <pt x="226" y="665" on="0"/>
        <pt x="298" y="703" on="0"/>
        <pt x="332" y="716" on="1"/>
        <pt x="389" y="736" on="0"/>
        <pt x="416" y="736" on="1"/>
        <pt x="540" y="736" on="0"/>
        <pt x="700" y="559" on="0"/>
      </contour>
      <contour>
        <pt x="372" y="32" on="1"/>
        <pt x="432" y="32" on="0"/>
        <pt x="525" y="93" on="0"/>
        <pt x="552" y="144" on="1"/>
        <pt x="605" y="247" on="0"/>
        <pt x="605" y="502" on="0"/>
        <pt x="488" y="685" on="0"/>
        <pt x="387" y="685" on="1"/>
        <pt x="309" y="685" on="0"/>
        <pt x="254" y="632" on="1"/>
        <pt x="149" y="531" on="0"/>
        <pt x="149" y="335" on="1"/>
        <pt x="149" y="213" on="0"/>
        <pt x="272" y="32" on="0"/>
      </contour>
    </TTGlyph>
    <TTGlyph name="Ocircumflex" xMin="55" yMin="-20" xMax="700" yMax="944">
      <contour>
        <pt x="460" y="861" on="1"/>
        <pt x="309" y="761" on="1"/>
        <pt x="303" y="761" on="0"/>
        <pt x="295" y="770" on="0"/>
        <pt x="293" y="779" on="1"/>
        <pt x="399" y="869" on="0"/>
        <pt x="472" y="944" on="1"/>
        <pt x="484" y="944" on="1"/>
        <pt x="568" y="776" on="1"/>
        <pt x="560" y="761" on="0"/>
        <pt x="545" y="761" on="1"/>
      </contour>
      <contour>
        <pt x="700" y="431" on="1"/>
        <pt x="700" y="349" on="0"/>
        <pt x="664" y="212" on="0"/>
        <pt x="609" y="121" on="0"/>
        <pt x="536" y="51" on="0"/>
        <pt x="466" y="12" on="0"/>
        <pt x="431" y="0" on="1"/>
        <pt x="376" y="-20" on="0"/>
        <pt x="340" y="-20" on="1"/>
        <pt x="215" y="-20" on="0"/>
        <pt x="55" y="154" on="0"/>
        <pt x="55" y="283" on="1"/>
        <pt x="55" y="365" on="0"/>
        <pt x="92" y="503" on="0"/>
        <pt x="151" y="593" on="0"/>
        <pt x="226" y="665" on="0"/>
        <pt x="298" y="703" on="0"/>
        <pt x="332" y="716" on="1"/>
        <pt x="389" y="736" on="0"/>
        <pt x="416" y="736" on="1"/>
        <pt x="540" y="736" on="0"/>
        <pt x="700" y="559" on="0"/>
      </contour>
      <contour>
        <pt x="372" y="32" on="1"/>
        <pt x="432" y="32" on="0"/>
        <pt x="525" y="93" on="0"/>
        <pt x="552" y="144" on="1"/>
        <pt x="605" y="247" on="0"/>
        <pt x="605" y="502" on="0"/>
        <pt x="488" y="685" on="0"/>
        <pt x="387" y="685" on="1"/>
        <pt x="309" y="685" on="0"/>
        <pt x="254" y="632" on="1"/>
        <pt x="149" y="531" on="0"/>
        <pt x="149" y="335" on="1"/>
        <pt x="149" y="213" on="0"/>
        <pt x="272" y="32" on="0"/>
      </contour>
    </TTGlyph>
    <TTGlyph name="Odieresis" xMin="55" yMin="-20" xMax="700" yMax="905">
      <contour>
        <pt x="700" y="431" on="1"/>
        <pt x="700" y="349" on="0"/>
        <pt x="664" y="212" on="0"/>
        <pt x="609" y="121" on="0"/>
        <pt x="536" y="51" on="0"/>
        <pt x="466" y="12" on="0"/>
        <pt x="431" y="0" on="1"/>
        <pt x="376" y="-20" on="0"/>
        <pt x="340" y="-20" on="1"/>
        <pt x="215" y="-20" on="0"/>
        <pt x="55" y="154" on="0"/>
        <pt x="55" y="283" on="1"/>
        <pt x="55" y="365" on="0"/>
        <pt x="92" y="503" on="0"/>
        <pt x="151" y="593" on="0"/>
        <pt x="226" y="665" on="0"/>
        <pt x="298" y="703" on="0"/>
        <pt x="332" y="716" on="1"/>
        <pt x="389" y="736" on="0"/>
        <pt x="416" y="736" on="1"/>
        <pt x="540" y="736" on="0"/>
        <pt x="700" y="559" on="0"/>
      </contour>
      <contour>
        <pt x="372" y="32" on="1"/>
        <pt x="432" y="32" on="0"/>
        <pt x="525" y="93" on="0"/>
        <pt x="552" y="144" on="1"/>
        <pt x="605" y="247" on="0"/>
        <pt x="605" y="502" on="0"/>
        <pt x="488" y="685" on="0"/>
        <pt x="387" y="685" on="1"/>
        <pt x="309" y="685" on="0"/>
        <pt x="254" y="632" on="1"/>
        <pt x="149" y="531" on="0"/>
        <pt x="149" y="335" on="1"/>
        <pt x="149" y="213" on="0"/>
        <pt x="272" y="32" on="0"/>
      </contour>
      <contour>
        <pt x="396" y="841" on="1"/>
        <pt x="396" y="826" on="0"/>
        <pt x="348" y="791" on="0"/>
        <pt x="327" y="791" on="1"/>
        <pt x="312" y="833" on="0"/>
        <pt x="293" y="853" on="1"/>
        <pt x="316" y="890" on="0"/>
        <pt x="361" y="905" on="1"/>
        <pt x="396" y="874" on="0"/>
      </contour>
      <contour>
        <pt x="569" y="841" on="1"/>
        <pt x="569" y="826" on="0"/>
        <pt x="521" y="791" on="0"/>
        <pt x="500" y="791" on="1"/>
        <pt x="484" y="835" on="0"/>
        <pt x="467" y="853" on="1"/>
        <pt x="488" y="889" on="0"/>
        <pt x="535" y="905" on="1"/>
        <pt x="569" y="874" on="0"/>
      </contour>
    </TTGlyph>
    <TTGlyph name="Ograve" xMin="55" yMin="-20" xMax="700" yMax="943">
      <contour>
        <pt x="507" y="773" on="1"/>
        <pt x="349" y="829" on="0"/>
        <pt x="257" y="889" on="1"/>
        <pt x="272" y="925" on="0"/>
        <pt x="304" y="943" on="1"/>
        <pt x="382" y="875" on="0"/>
        <pt x="484" y="814" on="1"/>
        <pt x="517" y="795" on="1"/>
        <pt x="517" y="784" on="0"/>
      </contour>
      <contour>
        <pt x="700" y="431" on="1"/>
        <pt x="700" y="349" on="0"/>
        <pt x="664" y="212" on="0"/>
        <pt x="609" y="121" on="0"/>
        <pt x="536" y="51" on="0"/>
        <pt x="466" y="12" on="0"/>
        <pt x="431" y="0" on="1"/>
        <pt x="376" y="-20" on="0"/>
        <pt x="340" y="-20" on="1"/>
        <pt x="215" y="-20" on="0"/>
        <pt x="55" y="154" on="0"/>
        <pt x="55" y="283" on="1"/>
        <pt x="55" y="365" on="0"/>
        <pt x="92" y="503" on="0"/>
        <pt x="151" y="593" on="0"/>
        <pt x="226" y="665" on="0"/>
        <pt x="298" y="703" on="0"/>
        <pt x="332" y="716" on="1"/>
        <pt x="389" y="736" on="0"/>
        <pt x="416" y="736" on="1"/>
        <pt x="540" y="736" on="0"/>
        <pt x="700" y="559" on="0"/>
      </contour>
      <contour>
        <pt x="372" y="32" on="1"/>
        <pt x="432" y="32" on="0"/>
        <pt x="525" y="93" on="0"/>
        <pt x="552" y="144" on="1"/>
        <pt x="605" y="247" on="0"/>
        <pt x="605" y="502" on="0"/>
        <pt x="488" y="685" on="0"/>
        <pt x="387" y="685" on="1"/>
        <pt x="309" y="685" on="0"/>
        <pt x="254" y="632" on="1"/>
        <pt x="149" y="531" on="0"/>
        <pt x="149" y="335" on="1"/>
        <pt x="149" y="213" on="0"/>
        <pt x="272" y="32" on="0"/>
      </contour>
    </TTGlyph>
    <TTGlyph name="Oslash" xMin="55" yMin="-87" xMax="700" yMax="800">
      <contour>
        <pt x="700" y="431" on="1"/>
        <pt x="700" y="349" on="0"/>
        <pt x="664" y="212" on="0"/>
        <pt x="609" y="121" on="0"/>
        <pt x="536" y="51" on="0"/>
        <pt x="466" y="12" on="0"/>
        <pt x="431" y="0" on="1"/>
        <pt x="376" y="-20" on="0"/>
        <pt x="340" y="-20" on="1"/>
        <pt x="258" y="-20" on="0"/>
        <pt x="195" y="17" on="1"/>
        <pt x="156" y="-46" on="0"/>
        <pt x="137" y="-84" on="1"/>
        <pt x="134" y="-87" on="0"/>
        <pt x="127" y="-87" on="0"/>
        <pt x="124" y="-85" on="1"/>
        <pt x="116" y="-60" on="0"/>
        <pt x="99" y="-45" on="1"/>
        <pt x="156" y="47" on="1"/>
        <pt x="108" y="88" on="0"/>
        <pt x="55" y="211" on="0"/>
        <pt x="55" y="365" on="0"/>
        <pt x="92" y="503" on="0"/>
        <pt x="151" y="593" on="0"/>
        <pt x="226" y="665" on="0"/>
        <pt x="298" y="703" on="0"/>
        <pt x="332" y="716" on="1"/>
        <pt x="389" y="736" on="0"/>
        <pt x="416" y="736" on="1"/>
        <pt x="491" y="736" on="0"/>
        <pt x="559" y="697" on="1"/>
        <pt x="599" y="767" on="0"/>
        <pt x="613" y="796" on="1"/>
        <pt x="617" y="800" on="0"/>
        <pt x="625" y="800" on="0"/>
        <pt x="629" y="799" on="1"/>
        <pt x="637" y="782" on="0"/>
        <pt x="657" y="756" on="1"/>
        <pt x="600" y="667" on="1"/>
        <pt x="700" y="578" on="0"/>
      </contour>
      <contour>
        <pt x="372" y="32" on="1"/>
        <pt x="432" y="32" on="0"/>
        <pt x="525" y="93" on="0"/>
        <pt x="552" y="144" on="1"/>
        <pt x="605" y="247" on="0"/>
        <pt x="605" y="504" on="0"/>
        <pt x="549" y="588" on="1"/>
        <pt x="435" y="407" on="1"/>
        <pt x="352" y="278" on="0"/>
        <pt x="239" y="89" on="1"/>
        <pt x="293" y="32" on="0"/>
      </contour>
      <contour>
        <pt x="517" y="629" on="1"/>
        <pt x="461" y="685" on="0"/>
        <pt x="309" y="685" on="0"/>
        <pt x="254" y="632" on="1"/>
        <pt x="149" y="531" on="0"/>
        <pt x="149" y="335" on="1"/>
        <pt x="149" y="213" on="0"/>
        <pt x="207" y="128" on="1"/>
      </contour>
    </TTGlyph>
    <TTGlyph name="Otilde" xMin="55" yMin="-20" xMax="700" yMax="888">
      <contour>
        <pt x="700" y="431" on="1"/>
        <pt x="700" y="349" on="0"/>
        <pt x="664" y="212" on="0"/>
        <pt x="609" y="121" on="0"/>
        <pt x="536" y="51" on="0"/>
        <pt x="466" y="12" on="0"/>
        <pt x="431" y="0" on="1"/>
        <pt x="376" y="-20" on="0"/>
        <pt x="340" y="-20" on="1"/>
        <pt x="215" y="-20" on="0"/>
        <pt x="55" y="154" on="0"/>
        <pt x="55" y="283" on="1"/>
        <pt x="55" y="365" on="0"/>
        <pt x="92" y="503" on="0"/>
        <pt x="151" y="593" on="0"/>
        <pt x="226" y="665" on="0"/>
        <pt x="298" y="703" on="0"/>
        <pt x="332" y="716" on="1"/>
        <pt x="389" y="736" on="0"/>
        <pt x="416" y="736" on="1"/>
        <pt x="540" y="736" on="0"/>
        <pt x="700" y="559" on="0"/>
      </contour>
      <contour>
        <pt x="372" y="32" on="1"/>
        <pt x="432" y="32" on="0"/>
        <pt x="525" y="93" on="0"/>
        <pt x="552" y="144" on="1"/>
        <pt x="605" y="247" on="0"/>
        <pt x="605" y="502" on="0"/>
        <pt x="488" y="685" on="0"/>
        <pt x="387" y="685" on="1"/>
        <pt x="309" y="685" on="0"/>
        <pt x="254" y="632" on="1"/>
        <pt x="149" y="531" on="0"/>
        <pt x="149" y="335" on="1"/>
        <pt x="149" y="213" on="0"/>
        <pt x="272" y="32" on="0"/>
      </contour>
      <contour>
        <pt x="575" y="833" on="1"/>
        <pt x="529" y="793" on="0"/>
        <pt x="488" y="793" on="0"/>
        <pt x="397" y="829" on="0"/>
        <pt x="361" y="829" on="0"/>
        <pt x="349" y="826" on="0"/>
        <pt x="333" y="818" on="0"/>
        <pt x="330" y="816" on="1"/>
        <pt x="310" y="805" on="0"/>
        <pt x="305" y="800" on="1"/>
        <pt x="291" y="805" on="0"/>
        <pt x="291" y="819" on="1"/>
        <pt x="348" y="867" on="1"/>
        <pt x="374" y="888" on="0"/>
        <pt x="416" y="888" on="0"/>
        <pt x="503" y="853" on="0"/>
        <pt x="556" y="853" on="0"/>
        <pt x="596" y="883" on="1"/>
        <pt x="609" y="878" on="0"/>
        <pt x="611" y="864" on="1"/>
      </contour>
    </TTGlyph>
    <TTGlyph name="P" xMin="19" yMin="-8" xMax="564" yMax="727">
      <contour>
        <pt x="249" y="284" on="1"/>
        <pt x="248" y="289" on="0"/>
        <pt x="248" y="309" on="0"/>
        <pt x="255" y="321" on="1"/>
        <pt x="267" y="320" on="0"/>
        <pt x="296" y="320" on="1"/>
        <pt x="372" y="320" on="0"/>
        <pt x="471" y="438" on="0"/>
        <pt x="471" y="597" on="0"/>
        <pt x="391" y="692" on="0"/>
        <pt x="323" y="692" on="1"/>
        <pt x="286" y="692" on="0"/>
        <pt x="252" y="684" on="1"/>
        <pt x="235" y="592" on="0"/>
        <pt x="213" y="352" on="1"/>
        <pt x="197" y="168" on="1"/>
        <pt x="192" y="106" on="0"/>
        <pt x="192" y="31" on="0"/>
        <pt x="196" y="31" on="1"/>
        <pt x="220" y="28" on="0"/>
        <pt x="303" y="28" on="1"/>
        <pt x="304" y="23" on="0"/>
        <pt x="304" y="6" on="0"/>
        <pt x="300" y="-3" on="1"/>
        <pt x="171" y="0" on="1"/>
        <pt x="79" y="0" on="0"/>
        <pt x="21" y="-8" on="1"/>
        <pt x="19" y="0" on="0"/>
        <pt x="19" y="5" on="1"/>
        <pt x="20" y="17" on="1"/>
        <pt x="52" y="24" on="0"/>
        <pt x="89" y="55" on="0"/>
        <pt x="94" y="68" on="1"/>
        <pt x="117" y="121" on="0"/>
        <pt x="156" y="554" on="0"/>
        <pt x="156" y="681" on="0"/>
        <pt x="148" y="681" on="1"/>
        <pt x="105" y="681" on="0"/>
        <pt x="75" y="679" on="1"/>
        <pt x="72" y="685" on="0"/>
        <pt x="72" y="702" on="0"/>
        <pt x="75" y="705" on="1"/>
        <pt x="80" y="705" on="0"/>
        <pt x="159" y="714" on="0"/>
        <pt x="191" y="718" on="1"/>
        <pt x="278" y="727" on="0"/>
        <pt x="352" y="727" on="1"/>
        <pt x="448" y="727" on="0"/>
        <pt x="564" y="628" on="0"/>
        <pt x="564" y="435" on="0"/>
        <pt x="421" y="283" on="0"/>
        <pt x="317" y="283" on="1"/>
        <pt x="265" y="283" on="0"/>
      </contour>
    </TTGlyph>
    <TTGlyph name="Q" xMin="55" yMin="-335" xMax="747" yMax="736">
      <contour>
        <pt x="700" y="431" on="1"/>
        <pt x="700" y="281" on="0"/>
        <pt x="652" y="182" on="1"/>
        <pt x="547" y="-30" on="0"/>
        <pt x="289" y="-161" on="1"/>
        <pt x="340" y="-165" on="0"/>
        <pt x="590" y="-256" on="0"/>
        <pt x="627" y="-256" on="1"/>
        <pt x="644" y="-256" on="0"/>
        <pt x="721" y="-188" on="1"/>
        <pt x="737" y="-193" on="0"/>
        <pt x="747" y="-211" on="1"/>
        <pt x="632" y="-335" on="1"/>
        <pt x="567" y="-332" on="0"/>
        <pt x="259" y="-227" on="0"/>
        <pt x="195" y="-227" on="1"/>
        <pt x="160" y="-227" on="0"/>
        <pt x="119" y="-243" on="1"/>
        <pt x="104" y="-228" on="0"/>
        <pt x="104" y="-208" on="1"/>
        <pt x="232" y="-153" on="0"/>
        <pt x="398" y="-52" on="0"/>
        <pt x="528" y="83" on="0"/>
        <pt x="605" y="287" on="0"/>
        <pt x="605" y="452" on="0"/>
        <pt x="558" y="589" on="0"/>
        <pt x="455" y="685" on="0"/>
        <pt x="309" y="685" on="0"/>
        <pt x="254" y="632" on="1"/>
        <pt x="149" y="531" on="0"/>
        <pt x="149" y="335" on="1"/>
        <pt x="149" y="267" on="0"/>
        <pt x="198" y="130" on="0"/>
        <pt x="297" y="32" on="0"/>
        <pt x="359" y="32" on="1"/>
        <pt x="359" y="26" on="0"/>
        <pt x="320" y="-13" on="0"/>
        <pt x="309" y="-20" on="1"/>
        <pt x="204" y="-20" on="0"/>
        <pt x="55" y="169" on="0"/>
        <pt x="55" y="283" on="1"/>
        <pt x="55" y="365" on="0"/>
        <pt x="92" y="503" on="0"/>
        <pt x="151" y="593" on="0"/>
        <pt x="226" y="665" on="0"/>
        <pt x="298" y="703" on="0"/>
        <pt x="332" y="716" on="1"/>
        <pt x="389" y="736" on="0"/>
        <pt x="416" y="736" on="1"/>
        <pt x="540" y="736" on="0"/>
        <pt x="700" y="559" on="0"/>
      </contour>
    </TTGlyph>
    <TTGlyph name="R" xMin="19" yMin="-20" xMax="615" yMax="727">
      <contour>
        <pt x="260" y="-3" on="1"/>
        <pt x="171" y="0" on="1"/>
        <pt x="79" y="0" on="0"/>
        <pt x="21" y="-8" on="1"/>
        <pt x="19" y="0" on="0"/>
        <pt x="19" y="5" on="1"/>
        <pt x="20" y="17" on="1"/>
        <pt x="52" y="24" on="0"/>
        <pt x="89" y="55" on="0"/>
        <pt x="94" y="68" on="1"/>
        <pt x="117" y="121" on="0"/>
        <pt x="156" y="554" on="0"/>
        <pt x="156" y="681" on="0"/>
        <pt x="148" y="681" on="1"/>
        <pt x="105" y="681" on="0"/>
        <pt x="75" y="679" on="1"/>
        <pt x="72" y="685" on="0"/>
        <pt x="72" y="702" on="0"/>
        <pt x="75" y="705" on="1"/>
        <pt x="77" y="705" on="0"/>
        <pt x="131" y="712" on="1"/>
        <pt x="247" y="727" on="0"/>
        <pt x="432" y="727" on="0"/>
        <pt x="543" y="630" on="0"/>
        <pt x="543" y="466" on="0"/>
        <pt x="458" y="365" on="0"/>
        <pt x="371" y="331" on="1"/>
        <pt x="396" y="273" on="0"/>
        <pt x="479" y="109" on="0"/>
        <pt x="532" y="33" on="0"/>
        <pt x="571" y="27" on="0"/>
        <pt x="612" y="27" on="1"/>
        <pt x="615" y="18" on="0"/>
        <pt x="615" y="8" on="0"/>
        <pt x="611" y="0" on="1"/>
        <pt x="554" y="-3" on="0"/>
        <pt x="470" y="-20" on="0"/>
        <pt x="465" y="-20" on="1"/>
        <pt x="439" y="-20" on="0"/>
        <pt x="337" y="200" on="1"/>
        <pt x="276" y="336" on="1"/>
        <pt x="373" y="370" on="0"/>
        <pt x="445" y="462" on="0"/>
        <pt x="445" y="599" on="0"/>
        <pt x="374" y="692" on="0"/>
        <pt x="309" y="692" on="1"/>
        <pt x="286" y="692" on="0"/>
        <pt x="252" y="684" on="1"/>
        <pt x="235" y="593" on="0"/>
        <pt x="213" y="352" on="1"/>
        <pt x="197" y="168" on="1"/>
        <pt x="192" y="106" on="0"/>
        <pt x="192" y="31" on="0"/>
        <pt x="196" y="31" on="1"/>
        <pt x="212" y="28" on="0"/>
        <pt x="263" y="28" on="1"/>
        <pt x="264" y="23" on="0"/>
        <pt x="264" y="6" on="0"/>
      </contour>
    </TTGlyph>
    <TTGlyph name="Racute" xMin="19" yMin="-20" xMax="615" yMax="943">
      <contour>
        <pt x="260" y="773" on="1"/>
        <pt x="251" y="782" on="0"/>
        <pt x="249" y="795" on="1"/>
        <pt x="372" y="864" on="0"/>
        <pt x="463" y="943" on="1"/>
        <pt x="495" y="925" on="0"/>
        <pt x="509" y="889" on="1"/>
        <pt x="468" y="862" on="0"/>
        <pt x="344" y="804" on="0"/>
        <pt x="302" y="788" on="1"/>
      </contour>
      <contour>
        <pt x="260" y="-3" on="1"/>
        <pt x="171" y="0" on="1"/>
        <pt x="79" y="0" on="0"/>
        <pt x="21" y="-8" on="1"/>
        <pt x="19" y="0" on="0"/>
        <pt x="19" y="5" on="1"/>
        <pt x="20" y="17" on="1"/>
        <pt x="52" y="24" on="0"/>
        <pt x="89" y="55" on="0"/>
        <pt x="94" y="68" on="1"/>
        <pt x="117" y="121" on="0"/>
        <pt x="156" y="554" on="0"/>
        <pt x="156" y="681" on="0"/>
        <pt x="148" y="681" on="1"/>
        <pt x="105" y="681" on="0"/>
        <pt x="75" y="679" on="1"/>
        <pt x="72" y="685" on="0"/>
        <pt x="72" y="702" on="0"/>
        <pt x="75" y="705" on="1"/>
        <pt x="77" y="705" on="0"/>
        <pt x="131" y="712" on="1"/>
        <pt x="247" y="727" on="0"/>
        <pt x="432" y="727" on="0"/>
        <pt x="543" y="630" on="0"/>
        <pt x="543" y="466" on="0"/>
        <pt x="458" y="365" on="0"/>
        <pt x="371" y="331" on="1"/>
        <pt x="396" y="273" on="0"/>
        <pt x="479" y="109" on="0"/>
        <pt x="532" y="33" on="0"/>
        <pt x="571" y="27" on="0"/>
        <pt x="612" y="27" on="1"/>
        <pt x="615" y="18" on="0"/>
        <pt x="615" y="8" on="0"/>
        <pt x="611" y="0" on="1"/>
        <pt x="554" y="-3" on="0"/>
        <pt x="470" y="-20" on="0"/>
        <pt x="465" y="-20" on="1"/>
        <pt x="439" y="-20" on="0"/>
        <pt x="337" y="200" on="1"/>
        <pt x="276" y="336" on="1"/>
        <pt x="373" y="370" on="0"/>
        <pt x="445" y="462" on="0"/>
        <pt x="445" y="599" on="0"/>
        <pt x="374" y="692" on="0"/>
        <pt x="309" y="692" on="1"/>
        <pt x="286" y="692" on="0"/>
        <pt x="252" y="684" on="1"/>
        <pt x="235" y="593" on="0"/>
        <pt x="213" y="352" on="1"/>
        <pt x="197" y="168" on="1"/>
        <pt x="192" y="106" on="0"/>
        <pt x="192" y="31" on="0"/>
        <pt x="196" y="31" on="1"/>
        <pt x="212" y="28" on="0"/>
        <pt x="263" y="28" on="1"/>
        <pt x="264" y="23" on="0"/>
        <pt x="264" y="6" on="0"/>
      </contour>
    </TTGlyph>
    <TTGlyph name="Rcaron" xMin="19" yMin="-20" xMax="615" yMax="944">
      <contour>
        <pt x="327" y="844" on="1"/>
        <pt x="477" y="944" on="1"/>
        <pt x="489" y="944" on="0"/>
        <pt x="493" y="927" on="1"/>
        <pt x="388" y="836" on="0"/>
        <pt x="315" y="761" on="1"/>
        <pt x="303" y="761" on="1"/>
        <pt x="219" y="929" on="1"/>
        <pt x="227" y="944" on="0"/>
        <pt x="241" y="944" on="1"/>
      </contour>
      <contour>
        <pt x="260" y="-3" on="1"/>
        <pt x="171" y="0" on="1"/>
        <pt x="79" y="0" on="0"/>
        <pt x="21" y="-8" on="1"/>
        <pt x="19" y="0" on="0"/>
        <pt x="19" y="5" on="1"/>
        <pt x="20" y="17" on="1"/>
        <pt x="52" y="24" on="0"/>
        <pt x="89" y="55" on="0"/>
        <pt x="94" y="68" on="1"/>
        <pt x="117" y="121" on="0"/>
        <pt x="156" y="554" on="0"/>
        <pt x="156" y="681" on="0"/>
        <pt x="148" y="681" on="1"/>
        <pt x="105" y="681" on="0"/>
        <pt x="75" y="679" on="1"/>
        <pt x="72" y="685" on="0"/>
        <pt x="72" y="702" on="0"/>
        <pt x="75" y="705" on="1"/>
        <pt x="77" y="705" on="0"/>
        <pt x="131" y="712" on="1"/>
        <pt x="247" y="727" on="0"/>
        <pt x="432" y="727" on="0"/>
        <pt x="543" y="630" on="0"/>
        <pt x="543" y="466" on="0"/>
        <pt x="458" y="365" on="0"/>
        <pt x="371" y="331" on="1"/>
        <pt x="396" y="273" on="0"/>
        <pt x="479" y="109" on="0"/>
        <pt x="532" y="33" on="0"/>
        <pt x="571" y="27" on="0"/>
        <pt x="612" y="27" on="1"/>
        <pt x="615" y="18" on="0"/>
        <pt x="615" y="8" on="0"/>
        <pt x="611" y="0" on="1"/>
        <pt x="554" y="-3" on="0"/>
        <pt x="470" y="-20" on="0"/>
        <pt x="465" y="-20" on="1"/>
        <pt x="439" y="-20" on="0"/>
        <pt x="337" y="200" on="1"/>
        <pt x="276" y="336" on="1"/>
        <pt x="373" y="370" on="0"/>
        <pt x="445" y="462" on="0"/>
        <pt x="445" y="599" on="0"/>
        <pt x="374" y="692" on="0"/>
        <pt x="309" y="692" on="1"/>
        <pt x="286" y="692" on="0"/>
        <pt x="252" y="684" on="1"/>
        <pt x="235" y="593" on="0"/>
        <pt x="213" y="352" on="1"/>
        <pt x="197" y="168" on="1"/>
        <pt x="192" y="106" on="0"/>
        <pt x="192" y="31" on="0"/>
        <pt x="196" y="31" on="1"/>
        <pt x="212" y="28" on="0"/>
        <pt x="263" y="28" on="1"/>
        <pt x="264" y="23" on="0"/>
        <pt x="264" y="6" on="0"/>
      </contour>
    </TTGlyph>
    <TTGlyph name="Rcommaaccent" xMin="19" yMin="-331" xMax="615" yMax="727">
      <contour>
        <pt x="273" y="-212" on="1"/>
        <pt x="273" y="-185" on="0"/>
        <pt x="232" y="-140" on="1"/>
        <pt x="264" y="-94" on="0"/>
        <pt x="309" y="-80" on="1"/>
        <pt x="347" y="-126" on="0"/>
        <pt x="347" y="-156" on="1"/>
        <pt x="347" y="-208" on="0"/>
        <pt x="277" y="-287" on="0"/>
        <pt x="208" y="-331" on="1"/>
        <pt x="195" y="-321" on="0"/>
        <pt x="195" y="-309" on="1"/>
        <pt x="273" y="-250" on="0"/>
      </contour>
      <contour>
        <pt x="260" y="-3" on="1"/>
        <pt x="171" y="0" on="1"/>
        <pt x="79" y="0" on="0"/>
        <pt x="21" y="-8" on="1"/>
        <pt x="19" y="0" on="0"/>
        <pt x="19" y="5" on="1"/>
        <pt x="20" y="17" on="1"/>
        <pt x="52" y="24" on="0"/>
        <pt x="89" y="55" on="0"/>
        <pt x="94" y="68" on="1"/>
        <pt x="117" y="121" on="0"/>
        <pt x="156" y="554" on="0"/>
        <pt x="156" y="681" on="0"/>
        <pt x="148" y="681" on="1"/>
        <pt x="105" y="681" on="0"/>
        <pt x="75" y="679" on="1"/>
        <pt x="72" y="685" on="0"/>
        <pt x="72" y="702" on="0"/>
        <pt x="75" y="705" on="1"/>
        <pt x="77" y="705" on="0"/>
        <pt x="131" y="712" on="1"/>
        <pt x="247" y="727" on="0"/>
        <pt x="432" y="727" on="0"/>
        <pt x="543" y="630" on="0"/>
        <pt x="543" y="466" on="0"/>
        <pt x="458" y="365" on="0"/>
        <pt x="371" y="331" on="1"/>
        <pt x="396" y="273" on="0"/>
        <pt x="479" y="109" on="0"/>
        <pt x="532" y="33" on="0"/>
        <pt x="571" y="27" on="0"/>
        <pt x="612" y="27" on="1"/>
        <pt x="615" y="18" on="0"/>
        <pt x="615" y="8" on="0"/>
        <pt x="611" y="0" on="1"/>
        <pt x="554" y="-3" on="0"/>
        <pt x="470" y="-20" on="0"/>
        <pt x="465" y="-20" on="1"/>
        <pt x="439" y="-20" on="0"/>
        <pt x="337" y="200" on="1"/>
        <pt x="276" y="336" on="1"/>
        <pt x="373" y="370" on="0"/>
        <pt x="445" y="462" on="0"/>
        <pt x="445" y="599" on="0"/>
        <pt x="374" y="692" on="0"/>
        <pt x="309" y="692" on="1"/>
        <pt x="286" y="692" on="0"/>
        <pt x="252" y="684" on="1"/>
        <pt x="235" y="593" on="0"/>
        <pt x="213" y="352" on="1"/>
        <pt x="197" y="168" on="1"/>
        <pt x="192" y="106" on="0"/>
        <pt x="192" y="31" on="0"/>
        <pt x="196" y="31" on="1"/>
        <pt x="212" y="28" on="0"/>
        <pt x="263" y="28" on="1"/>
        <pt x="264" y="23" on="0"/>
        <pt x="264" y="6" on="0"/>
      </contour>
    </TTGlyph>
    <TTGlyph name="S" xMin="33" yMin="-20" xMax="504" yMax="736">
      <contour>
        <pt x="312" y="703" on="1"/>
        <pt x="254" y="703" on="0"/>
        <pt x="176" y="629" on="0"/>
        <pt x="176" y="568" on="1"/>
        <pt x="176" y="526" on="0"/>
        <pt x="242" y="458" on="0"/>
        <pt x="351" y="391" on="0"/>
        <pt x="397" y="357" on="0"/>
        <pt x="424" y="330" on="1"/>
        <pt x="480" y="276" on="0"/>
        <pt x="480" y="197" on="1"/>
        <pt x="480" y="97" on="0"/>
        <pt x="326" y="-20" on="0"/>
        <pt x="227" y="-20" on="1"/>
        <pt x="174" y="-20" on="0"/>
        <pt x="55" y="4" on="0"/>
        <pt x="33" y="16" on="1"/>
        <pt x="52" y="209" on="1"/>
        <pt x="59" y="213" on="0"/>
        <pt x="81" y="213" on="0"/>
        <pt x="91" y="208" on="1"/>
        <pt x="92" y="107" on="0"/>
        <pt x="112" y="76" on="1"/>
        <pt x="148" y="16" on="0"/>
        <pt x="249" y="16" on="1"/>
        <pt x="307" y="16" on="0"/>
        <pt x="388" y="99" on="0"/>
        <pt x="388" y="212" on="0"/>
        <pt x="325" y="287" on="0"/>
        <pt x="163" y="385" on="0"/>
        <pt x="85" y="468" on="0"/>
        <pt x="85" y="527" on="1"/>
        <pt x="85" y="625" on="0"/>
        <pt x="236" y="736" on="0"/>
        <pt x="340" y="736" on="1"/>
        <pt x="381" y="736" on="0"/>
        <pt x="478" y="712" on="0"/>
        <pt x="504" y="699" on="1"/>
        <pt x="479" y="527" on="1"/>
        <pt x="471" y="523" on="0"/>
        <pt x="453" y="523" on="0"/>
        <pt x="445" y="527" on="1"/>
        <pt x="440" y="638" on="0"/>
        <pt x="406" y="678" on="0"/>
        <pt x="345" y="703" on="0"/>
      </contour>
    </TTGlyph>
    <TTGlyph name="T" xMin="20" yMin="-8" xMax="635" yMax="727">
      <contour>
        <pt x="423" y="-3" on="1"/>
        <pt x="275" y="0" on="1"/>
        <pt x="164" y="0" on="0"/>
        <pt x="99" y="-8" on="1"/>
        <pt x="96" y="-3" on="0"/>
        <pt x="96" y="3" on="1"/>
        <pt x="99" y="17" on="1"/>
        <pt x="163" y="28" on="0"/>
        <pt x="216" y="61" on="0"/>
        <pt x="225" y="93" on="1"/>
        <pt x="245" y="171" on="0"/>
        <pt x="280" y="558" on="0"/>
        <pt x="280" y="664" on="0"/>
        <pt x="279" y="684" on="1"/>
        <pt x="255" y="689" on="0"/>
        <pt x="223" y="689" on="1"/>
        <pt x="138" y="689" on="0"/>
        <pt x="101" y="669" on="1"/>
        <pt x="97" y="660" on="0"/>
        <pt x="62" y="568" on="0"/>
        <pt x="49" y="540" on="1"/>
        <pt x="29" y="540" on="0"/>
        <pt x="20" y="548" on="1"/>
        <pt x="52" y="716" on="1"/>
        <pt x="55" y="727" on="0"/>
        <pt x="69" y="727" on="1"/>
        <pt x="225" y="720" on="1"/>
        <pt x="447" y="720" on="1"/>
        <pt x="620" y="727" on="1"/>
        <pt x="635" y="727" on="0"/>
        <pt x="635" y="719" on="1"/>
        <pt x="635" y="718" on="0"/>
        <pt x="630" y="694" on="1"/>
        <pt x="612" y="617" on="0"/>
        <pt x="605" y="555" on="1"/>
        <pt x="598" y="551" on="0"/>
        <pt x="578" y="551" on="0"/>
        <pt x="573" y="555" on="1"/>
        <pt x="565" y="669" on="1"/>
        <pt x="528" y="689" on="0"/>
        <pt x="441" y="689" on="1"/>
        <pt x="408" y="689" on="0"/>
        <pt x="387" y="684" on="1"/>
        <pt x="366" y="639" on="0"/>
        <pt x="349" y="412" on="1"/>
        <pt x="335" y="228" on="1"/>
        <pt x="329" y="156" on="0"/>
        <pt x="329" y="51" on="0"/>
        <pt x="331" y="35" on="1"/>
        <pt x="371" y="28" on="0"/>
        <pt x="425" y="28" on="1"/>
        <pt x="427" y="23" on="0"/>
        <pt x="427" y="11" on="0"/>
      </contour>
    </TTGlyph>
    <TTGlyph name="Thorn" xMin="9" yMin="-8" xMax="535" yMax="723">
      <contour>
        <pt x="83" y="723" on="1"/>
        <pt x="211" y="720" on="1"/>
        <pt x="325" y="723" on="1"/>
        <pt x="327" y="719" on="0"/>
        <pt x="327" y="712" on="1"/>
        <pt x="323" y="696" on="1"/>
        <pt x="284" y="696" on="0"/>
        <pt x="263" y="693" on="1"/>
        <pt x="252" y="691" on="0"/>
        <pt x="240" y="587" on="1"/>
        <pt x="296" y="589" on="0"/>
        <pt x="323" y="589" on="1"/>
        <pt x="418" y="589" on="0"/>
        <pt x="535" y="490" on="0"/>
        <pt x="535" y="298" on="0"/>
        <pt x="391" y="145" on="0"/>
        <pt x="288" y="145" on="1"/>
        <pt x="229" y="145" on="0"/>
        <pt x="204" y="148" on="1"/>
        <pt x="201" y="112" on="0"/>
        <pt x="201" y="31" on="0"/>
        <pt x="204" y="31" on="1"/>
        <pt x="232" y="28" on="0"/>
        <pt x="305" y="28" on="1"/>
        <pt x="307" y="20" on="0"/>
        <pt x="307" y="11" on="0"/>
        <pt x="303" y="-3" on="1"/>
        <pt x="167" y="0" on="1"/>
        <pt x="75" y="0" on="0"/>
        <pt x="13" y="-8" on="1"/>
        <pt x="9" y="0" on="0"/>
        <pt x="9" y="8" on="1"/>
        <pt x="11" y="16" on="1"/>
        <pt x="67" y="28" on="0"/>
        <pt x="100" y="61" on="0"/>
        <pt x="107" y="97" on="1"/>
        <pt x="128" y="212" on="0"/>
        <pt x="139" y="352" on="1"/>
        <pt x="148" y="464" on="1"/>
        <pt x="159" y="593" on="0"/>
        <pt x="159" y="693" on="0"/>
        <pt x="152" y="693" on="1"/>
        <pt x="119" y="696" on="0"/>
        <pt x="80" y="696" on="1"/>
        <pt x="79" y="700" on="0"/>
        <pt x="79" y="716" on="0"/>
      </contour>
      <contour>
        <pt x="267" y="183" on="1"/>
        <pt x="343" y="183" on="0"/>
        <pt x="441" y="301" on="0"/>
        <pt x="441" y="460" on="0"/>
        <pt x="361" y="555" on="0"/>
        <pt x="293" y="555" on="1"/>
        <pt x="262" y="555" on="0"/>
        <pt x="236" y="549" on="1"/>
        <pt x="205" y="185" on="1"/>
        <pt x="224" y="183" on="0"/>
      </contour>
    </TTGlyph>
    <TTGlyph name="U" xMin="80" yMin="-20" xMax="763" yMax="728">
      <contour>
        <pt x="547" y="723" on="1"/>
        <pt x="655" y="720" on="1"/>
        <pt x="721" y="720" on="0"/>
        <pt x="759" y="728" on="1"/>
        <pt x="763" y="722" on="0"/>
        <pt x="763" y="713" on="1"/>
        <pt x="761" y="703" on="1"/>
        <pt x="731" y="696" on="0"/>
        <pt x="693" y="656" on="0"/>
        <pt x="688" y="640" on="1"/>
        <pt x="665" y="573" on="0"/>
        <pt x="640" y="284" on="1"/>
        <pt x="627" y="137" on="0"/>
        <pt x="482" y="-20" on="0"/>
        <pt x="353" y="-20" on="1"/>
        <pt x="108" y="-20" on="0"/>
        <pt x="108" y="229" on="1"/>
        <pt x="108" y="263" on="0"/>
        <pt x="137" y="687" on="0"/>
        <pt x="137" y="693" on="1"/>
        <pt x="120" y="696" on="0"/>
        <pt x="81" y="696" on="1"/>
        <pt x="80" y="700" on="0"/>
        <pt x="80" y="714" on="0"/>
        <pt x="84" y="723" on="1"/>
        <pt x="84" y="723" on="0"/>
        <pt x="171" y="720" on="1"/>
        <pt x="253" y="720" on="0"/>
        <pt x="303" y="728" on="1"/>
        <pt x="307" y="722" on="0"/>
        <pt x="307" y="713" on="1"/>
        <pt x="305" y="703" on="1"/>
        <pt x="260" y="692" on="0"/>
        <pt x="230" y="660" on="0"/>
        <pt x="224" y="628" on="1"/>
        <pt x="211" y="557" on="0"/>
        <pt x="185" y="252" on="0"/>
        <pt x="185" y="245" on="1"/>
        <pt x="185" y="141" on="0"/>
        <pt x="275" y="23" on="0"/>
        <pt x="365" y="23" on="1"/>
        <pt x="482" y="23" on="0"/>
        <pt x="586" y="164" on="0"/>
        <pt x="599" y="309" on="1"/>
        <pt x="601" y="337" on="0"/>
        <pt x="611" y="446" on="0"/>
        <pt x="614" y="484" on="0"/>
        <pt x="620" y="558" on="0"/>
        <pt x="621" y="601" on="0"/>
        <pt x="623" y="661" on="0"/>
        <pt x="623" y="693" on="1"/>
        <pt x="603" y="696" on="0"/>
        <pt x="545" y="696" on="1"/>
        <pt x="544" y="701" on="0"/>
        <pt x="544" y="717" on="0"/>
      </contour>
    </TTGlyph>
    <TTGlyph name="Uacute" xMin="80" yMin="-20" xMax="763" yMax="943">
      <contour>
        <pt x="385" y="773" on="1"/>
        <pt x="377" y="783" on="0"/>
        <pt x="375" y="795" on="1"/>
        <pt x="497" y="864" on="0"/>
        <pt x="588" y="943" on="1"/>
        <pt x="620" y="925" on="0"/>
        <pt x="635" y="889" on="1"/>
        <pt x="594" y="862" on="0"/>
        <pt x="469" y="804" on="0"/>
        <pt x="427" y="788" on="1"/>
      </contour>
      <contour>
        <pt x="547" y="723" on="1"/>
        <pt x="655" y="720" on="1"/>
        <pt x="721" y="720" on="0"/>
        <pt x="759" y="728" on="1"/>
        <pt x="763" y="722" on="0"/>
        <pt x="763" y="713" on="1"/>
        <pt x="761" y="703" on="1"/>
        <pt x="731" y="696" on="0"/>
        <pt x="693" y="656" on="0"/>
        <pt x="688" y="640" on="1"/>
        <pt x="665" y="573" on="0"/>
        <pt x="640" y="284" on="1"/>
        <pt x="627" y="137" on="0"/>
        <pt x="482" y="-20" on="0"/>
        <pt x="353" y="-20" on="1"/>
        <pt x="108" y="-20" on="0"/>
        <pt x="108" y="229" on="1"/>
        <pt x="108" y="263" on="0"/>
        <pt x="137" y="687" on="0"/>
        <pt x="137" y="693" on="1"/>
        <pt x="120" y="696" on="0"/>
        <pt x="81" y="696" on="1"/>
        <pt x="80" y="700" on="0"/>
        <pt x="80" y="714" on="0"/>
        <pt x="84" y="723" on="1"/>
        <pt x="171" y="720" on="1"/>
        <pt x="253" y="720" on="0"/>
        <pt x="303" y="728" on="1"/>
        <pt x="307" y="722" on="0"/>
        <pt x="307" y="713" on="1"/>
        <pt x="305" y="703" on="1"/>
        <pt x="260" y="692" on="0"/>
        <pt x="230" y="660" on="0"/>
        <pt x="224" y="628" on="1"/>
        <pt x="211" y="557" on="0"/>
        <pt x="185" y="252" on="0"/>
        <pt x="185" y="245" on="1"/>
        <pt x="185" y="141" on="0"/>
        <pt x="275" y="23" on="0"/>
        <pt x="365" y="23" on="1"/>
        <pt x="482" y="23" on="0"/>
        <pt x="586" y="164" on="0"/>
        <pt x="599" y="309" on="1"/>
        <pt x="601" y="337" on="0"/>
        <pt x="611" y="446" on="0"/>
        <pt x="614" y="484" on="0"/>
        <pt x="620" y="558" on="0"/>
        <pt x="621" y="601" on="0"/>
        <pt x="623" y="661" on="0"/>
        <pt x="623" y="693" on="1"/>
        <pt x="603" y="696" on="0"/>
        <pt x="545" y="696" on="1"/>
        <pt x="544" y="701" on="0"/>
        <pt x="544" y="717" on="0"/>
      </contour>
    </TTGlyph>
    <TTGlyph name="Ucircumflex" xMin="80" yMin="-20" xMax="763" yMax="944">
      <contour>
        <pt x="464" y="861" on="1"/>
        <pt x="313" y="761" on="1"/>
        <pt x="307" y="761" on="0"/>
        <pt x="299" y="770" on="0"/>
        <pt x="297" y="779" on="1"/>
        <pt x="403" y="869" on="0"/>
        <pt x="476" y="944" on="1"/>
        <pt x="488" y="944" on="1"/>
        <pt x="572" y="776" on="1"/>
        <pt x="564" y="761" on="0"/>
        <pt x="549" y="761" on="1"/>
      </contour>
      <contour>
        <pt x="547" y="723" on="1"/>
        <pt x="655" y="720" on="1"/>
        <pt x="721" y="720" on="0"/>
        <pt x="759" y="728" on="1"/>
        <pt x="763" y="722" on="0"/>
        <pt x="763" y="713" on="1"/>
        <pt x="761" y="703" on="1"/>
        <pt x="731" y="696" on="0"/>
        <pt x="693" y="656" on="0"/>
        <pt x="688" y="640" on="1"/>
        <pt x="665" y="573" on="0"/>
        <pt x="640" y="284" on="1"/>
        <pt x="627" y="137" on="0"/>
        <pt x="482" y="-20" on="0"/>
        <pt x="353" y="-20" on="1"/>
        <pt x="108" y="-20" on="0"/>
        <pt x="108" y="229" on="1"/>
        <pt x="108" y="263" on="0"/>
        <pt x="137" y="687" on="0"/>
        <pt x="137" y="693" on="1"/>
        <pt x="120" y="696" on="0"/>
        <pt x="81" y="696" on="1"/>
        <pt x="80" y="700" on="0"/>
        <pt x="80" y="714" on="0"/>
        <pt x="84" y="723" on="1"/>
        <pt x="171" y="720" on="1"/>
        <pt x="253" y="720" on="0"/>
        <pt x="303" y="728" on="1"/>
        <pt x="307" y="722" on="0"/>
        <pt x="307" y="713" on="1"/>
        <pt x="305" y="703" on="1"/>
        <pt x="260" y="692" on="0"/>
        <pt x="230" y="660" on="0"/>
        <pt x="224" y="628" on="1"/>
        <pt x="211" y="557" on="0"/>
        <pt x="185" y="252" on="0"/>
        <pt x="185" y="245" on="1"/>
        <pt x="185" y="141" on="0"/>
        <pt x="275" y="23" on="0"/>
        <pt x="365" y="23" on="1"/>
        <pt x="482" y="23" on="0"/>
        <pt x="586" y="164" on="0"/>
        <pt x="599" y="309" on="1"/>
        <pt x="601" y="337" on="0"/>
        <pt x="611" y="446" on="0"/>
        <pt x="614" y="484" on="0"/>
        <pt x="620" y="558" on="0"/>
        <pt x="621" y="601" on="0"/>
        <pt x="623" y="661" on="0"/>
        <pt x="623" y="693" on="1"/>
        <pt x="603" y="696" on="0"/>
        <pt x="545" y="696" on="1"/>
        <pt x="544" y="701" on="0"/>
        <pt x="544" y="717" on="0"/>
      </contour>
    </TTGlyph>
    <TTGlyph name="Udieresis" xMin="80" yMin="-20" xMax="763" yMax="905">
      <contour>
        <pt x="547" y="723" on="1"/>
        <pt x="655" y="720" on="1"/>
        <pt x="721" y="720" on="0"/>
        <pt x="759" y="728" on="1"/>
        <pt x="763" y="722" on="0"/>
        <pt x="763" y="713" on="1"/>
        <pt x="761" y="703" on="1"/>
        <pt x="731" y="696" on="0"/>
        <pt x="693" y="656" on="0"/>
        <pt x="688" y="640" on="1"/>
        <pt x="665" y="573" on="0"/>
        <pt x="640" y="284" on="1"/>
        <pt x="627" y="137" on="0"/>
        <pt x="482" y="-20" on="0"/>
        <pt x="353" y="-20" on="1"/>
        <pt x="108" y="-20" on="0"/>
        <pt x="108" y="229" on="1"/>
        <pt x="108" y="263" on="0"/>
        <pt x="137" y="687" on="0"/>
        <pt x="137" y="693" on="1"/>
        <pt x="120" y="696" on="0"/>
        <pt x="81" y="696" on="1"/>
        <pt x="80" y="700" on="0"/>
        <pt x="80" y="714" on="0"/>
        <pt x="84" y="723" on="1"/>
        <pt x="84" y="723" on="0"/>
        <pt x="171" y="720" on="1"/>
        <pt x="253" y="720" on="0"/>
        <pt x="303" y="728" on="1"/>
        <pt x="307" y="722" on="0"/>
        <pt x="307" y="713" on="1"/>
        <pt x="305" y="703" on="1"/>
        <pt x="260" y="692" on="0"/>
        <pt x="230" y="660" on="0"/>
        <pt x="224" y="628" on="1"/>
        <pt x="211" y="557" on="0"/>
        <pt x="185" y="252" on="0"/>
        <pt x="185" y="245" on="1"/>
        <pt x="185" y="141" on="0"/>
        <pt x="275" y="23" on="0"/>
        <pt x="365" y="23" on="1"/>
        <pt x="482" y="23" on="0"/>
        <pt x="586" y="164" on="0"/>
        <pt x="599" y="309" on="1"/>
        <pt x="601" y="337" on="0"/>
        <pt x="611" y="446" on="0"/>
        <pt x="614" y="484" on="0"/>
        <pt x="620" y="558" on="0"/>
        <pt x="621" y="601" on="0"/>
        <pt x="623" y="661" on="0"/>
        <pt x="623" y="693" on="1"/>
        <pt x="603" y="696" on="0"/>
        <pt x="545" y="696" on="1"/>
        <pt x="544" y="701" on="0"/>
        <pt x="544" y="717" on="0"/>
      </contour>
      <contour>
        <pt x="411" y="841" on="1"/>
        <pt x="411" y="826" on="0"/>
        <pt x="362" y="791" on="0"/>
        <pt x="341" y="791" on="1"/>
        <pt x="325" y="835" on="0"/>
        <pt x="308" y="853" on="1"/>
        <pt x="331" y="890" on="0"/>
        <pt x="376" y="905" on="1"/>
        <pt x="411" y="874" on="0"/>
      </contour>
      <contour>
        <pt x="584" y="841" on="1"/>
        <pt x="584" y="826" on="0"/>
        <pt x="536" y="791" on="0"/>
        <pt x="515" y="791" on="1"/>
        <pt x="500" y="833" on="0"/>
        <pt x="481" y="853" on="1"/>
        <pt x="504" y="890" on="0"/>
        <pt x="549" y="905" on="1"/>
        <pt x="584" y="874" on="0"/>
      </contour>
    </TTGlyph>
    <TTGlyph name="Ugrave" xMin="80" yMin="-20" xMax="763" yMax="943">
      <contour>
        <pt x="555" y="773" on="1"/>
        <pt x="397" y="829" on="0"/>
        <pt x="305" y="889" on="1"/>
        <pt x="320" y="925" on="0"/>
        <pt x="352" y="943" on="1"/>
        <pt x="430" y="875" on="0"/>
        <pt x="532" y="814" on="1"/>
        <pt x="565" y="795" on="1"/>
        <pt x="565" y="784" on="0"/>
      </contour>
      <contour>
        <pt x="547" y="723" on="1"/>
        <pt x="655" y="720" on="1"/>
        <pt x="721" y="720" on="0"/>
        <pt x="759" y="728" on="1"/>
        <pt x="763" y="722" on="0"/>
        <pt x="763" y="713" on="1"/>
        <pt x="761" y="703" on="1"/>
        <pt x="731" y="696" on="0"/>
        <pt x="693" y="656" on="0"/>
        <pt x="688" y="640" on="1"/>
        <pt x="665" y="573" on="0"/>
        <pt x="640" y="284" on="1"/>
        <pt x="627" y="137" on="0"/>
        <pt x="482" y="-20" on="0"/>
        <pt x="353" y="-20" on="1"/>
        <pt x="108" y="-20" on="0"/>
        <pt x="108" y="229" on="1"/>
        <pt x="108" y="263" on="0"/>
        <pt x="137" y="687" on="0"/>
        <pt x="137" y="693" on="1"/>
        <pt x="120" y="696" on="0"/>
        <pt x="81" y="696" on="1"/>
        <pt x="80" y="700" on="0"/>
        <pt x="80" y="714" on="0"/>
        <pt x="84" y="723" on="1"/>
        <pt x="171" y="720" on="1"/>
        <pt x="253" y="720" on="0"/>
        <pt x="303" y="728" on="1"/>
        <pt x="307" y="722" on="0"/>
        <pt x="307" y="713" on="1"/>
        <pt x="305" y="703" on="1"/>
        <pt x="260" y="692" on="0"/>
        <pt x="230" y="660" on="0"/>
        <pt x="224" y="628" on="1"/>
        <pt x="211" y="557" on="0"/>
        <pt x="185" y="252" on="0"/>
        <pt x="185" y="245" on="1"/>
        <pt x="185" y="141" on="0"/>
        <pt x="275" y="23" on="0"/>
        <pt x="365" y="23" on="1"/>
        <pt x="482" y="23" on="0"/>
        <pt x="586" y="164" on="0"/>
        <pt x="599" y="309" on="1"/>
        <pt x="601" y="337" on="0"/>
        <pt x="611" y="446" on="0"/>
        <pt x="614" y="484" on="0"/>
        <pt x="620" y="558" on="0"/>
        <pt x="621" y="601" on="0"/>
        <pt x="623" y="661" on="0"/>
        <pt x="623" y="693" on="1"/>
        <pt x="603" y="696" on="0"/>
        <pt x="545" y="696" on="1"/>
        <pt x="544" y="701" on="0"/>
        <pt x="544" y="717" on="0"/>
      </contour>
    </TTGlyph>
    <TTGlyph name="V" xMin="41" yMin="-39" xMax="764" yMax="728">
      <contour>
        <pt x="48" y="728" on="1"/>
        <pt x="104" y="720" on="0"/>
        <pt x="236" y="720" on="0"/>
        <pt x="311" y="723" on="1"/>
        <pt x="312" y="716" on="0"/>
        <pt x="312" y="708" on="1"/>
        <pt x="309" y="696" on="1"/>
        <pt x="257" y="696" on="0"/>
        <pt x="236" y="695" on="1"/>
        <pt x="236" y="574" on="0"/>
        <pt x="284" y="404" on="1"/>
        <pt x="368" y="108" on="1"/>
        <pt x="513" y="404" on="1"/>
        <pt x="557" y="495" on="0"/>
        <pt x="626" y="667" on="0"/>
        <pt x="628" y="692" on="1"/>
        <pt x="611" y="696" on="0"/>
        <pt x="560" y="696" on="1"/>
        <pt x="559" y="700" on="0"/>
        <pt x="559" y="716" on="0"/>
        <pt x="563" y="723" on="1"/>
        <pt x="620" y="720" on="0"/>
        <pt x="715" y="720" on="0"/>
        <pt x="761" y="728" on="1"/>
        <pt x="764" y="723" on="0"/>
        <pt x="764" y="716" on="1"/>
        <pt x="763" y="703" on="1"/>
        <pt x="726" y="692" on="0"/>
        <pt x="673" y="633" on="0"/>
        <pt x="618" y="534" on="0"/>
        <pt x="553" y="404" on="1"/>
        <pt x="333" y="-39" on="1"/>
        <pt x="319" y="-39" on="1"/>
        <pt x="169" y="480" on="1"/>
        <pt x="128" y="631" on="0"/>
        <pt x="100" y="672" on="1"/>
        <pt x="88" y="689" on="0"/>
        <pt x="41" y="703" on="1"/>
        <pt x="41" y="716" on="0"/>
      </contour>
    </TTGlyph>
    <TTGlyph name="W" xMin="15" yMin="-39" xMax="1015" yMax="728">
      <contour>
        <pt x="821" y="696" on="1"/>
        <pt x="820" y="700" on="0"/>
        <pt x="820" y="714" on="0"/>
        <pt x="824" y="723" on="1"/>
        <pt x="884" y="720" on="0"/>
        <pt x="965" y="720" on="0"/>
        <pt x="1012" y="728" on="1"/>
        <pt x="1015" y="719" on="0"/>
        <pt x="1015" y="717" on="1"/>
        <pt x="1012" y="703" on="1"/>
        <pt x="989" y="694" on="0"/>
        <pt x="949" y="653" on="0"/>
        <pt x="884" y="539" on="0"/>
        <pt x="868" y="504" on="1"/>
        <pt x="620" y="-39" on="1"/>
        <pt x="597" y="-39" on="1"/>
        <pt x="495" y="332" on="1"/>
        <pt x="300" y="-39" on="1"/>
        <pt x="285" y="-39" on="1"/>
        <pt x="141" y="480" on="1"/>
        <pt x="96" y="642" on="0"/>
        <pt x="73" y="672" on="1"/>
        <pt x="59" y="690" on="0"/>
        <pt x="15" y="703" on="1"/>
        <pt x="15" y="717" on="0"/>
        <pt x="20" y="728" on="1"/>
        <pt x="76" y="720" on="0"/>
        <pt x="202" y="720" on="0"/>
        <pt x="276" y="723" on="1"/>
        <pt x="279" y="714" on="0"/>
        <pt x="279" y="712" on="1"/>
        <pt x="275" y="696" on="1"/>
        <pt x="224" y="696" on="0"/>
        <pt x="201" y="695" on="1"/>
        <pt x="201" y="595" on="0"/>
        <pt x="251" y="404" on="1"/>
        <pt x="331" y="101" on="1"/>
        <pt x="480" y="380" on="1"/>
        <pt x="472" y="409" on="0"/>
        <pt x="447" y="503" on="0"/>
        <pt x="432" y="556" on="0"/>
        <pt x="422" y="588" on="1"/>
        <pt x="404" y="649" on="0"/>
        <pt x="383" y="689" on="0"/>
        <pt x="351" y="699" on="1"/>
        <pt x="351" y="713" on="0"/>
        <pt x="355" y="724" on="1"/>
        <pt x="399" y="720" on="0"/>
        <pt x="540" y="719" on="0"/>
        <pt x="569" y="719" on="1"/>
        <pt x="657" y="720" on="1"/>
        <pt x="703" y="720" on="0"/>
        <pt x="736" y="724" on="1"/>
        <pt x="740" y="717" on="0"/>
        <pt x="740" y="709" on="1"/>
        <pt x="739" y="699" on="1"/>
        <pt x="718" y="692" on="0"/>
        <pt x="704" y="673" on="1"/>
        <pt x="670" y="627" on="0"/>
        <pt x="555" y="425" on="1"/>
        <pt x="645" y="101" on="1"/>
        <pt x="780" y="404" on="1"/>
        <pt x="874" y="614" on="0"/>
        <pt x="889" y="692" on="1"/>
        <pt x="873" y="696" on="0"/>
      </contour>
      <contour>
        <pt x="641" y="693" on="1"/>
        <pt x="568" y="696" on="1"/>
        <pt x="550" y="696" on="0"/>
        <pt x="521" y="694" on="1"/>
        <pt x="492" y="693" on="1"/>
        <pt x="492" y="620" on="0"/>
        <pt x="540" y="463" on="1"/>
        <pt x="630" y="646" on="0"/>
      </contour>
    </TTGlyph>
    <TTGlyph name="X" xMin="13" yMin="-20" xMax="715" yMax="733">
      <contour>
        <pt x="109" y="728" on="1"/>
        <pt x="216" y="733" on="1"/>
        <pt x="228" y="733" on="0"/>
        <pt x="262" y="676" on="1"/>
        <pt x="310" y="595" on="0"/>
        <pt x="385" y="417" on="1"/>
        <pt x="456" y="505" on="1"/>
        <pt x="506" y="566" on="0"/>
        <pt x="546" y="623" on="0"/>
        <pt x="581" y="687" on="1"/>
        <pt x="536" y="689" on="0"/>
        <pt x="497" y="689" on="1"/>
        <pt x="496" y="695" on="0"/>
        <pt x="496" y="712" on="0"/>
        <pt x="500" y="720" on="1"/>
        <pt x="592" y="720" on="1"/>
        <pt x="648" y="720" on="0"/>
        <pt x="711" y="728" on="1"/>
        <pt x="715" y="718" on="0"/>
        <pt x="715" y="713" on="1"/>
        <pt x="713" y="703" on="1"/>
        <pt x="668" y="679" on="0"/>
        <pt x="577" y="594" on="0"/>
        <pt x="511" y="515" on="1"/>
        <pt x="400" y="379" on="1"/>
        <pt x="418" y="334" on="0"/>
        <pt x="479" y="201" on="1"/>
        <pt x="554" y="39" on="0"/>
        <pt x="611" y="32" on="1"/>
        <pt x="627" y="31" on="0"/>
        <pt x="664" y="31" on="1"/>
        <pt x="665" y="27" on="0"/>
        <pt x="665" y="10" on="0"/>
        <pt x="663" y="0" on="1"/>
        <pt x="609" y="-3" on="0"/>
        <pt x="522" y="-20" on="0"/>
        <pt x="508" y="-20" on="0"/>
        <pt x="492" y="-4" on="1"/>
        <pt x="453" y="39" on="0"/>
        <pt x="352" y="256" on="0"/>
        <pt x="328" y="316" on="1"/>
        <pt x="281" y="259" on="1"/>
        <pt x="187" y="143" on="0"/>
        <pt x="132" y="33" on="1"/>
        <pt x="176" y="31" on="0"/>
        <pt x="209" y="31" on="1"/>
        <pt x="211" y="25" on="0"/>
        <pt x="211" y="5" on="0"/>
        <pt x="207" y="0" on="1"/>
        <pt x="116" y="0" on="1"/>
        <pt x="80" y="0" on="0"/>
        <pt x="19" y="-8" on="1"/>
        <pt x="13" y="-1" on="0"/>
        <pt x="13" y="8" on="1"/>
        <pt x="15" y="17" on="1"/>
        <pt x="80" y="71" on="0"/>
        <pt x="196" y="212" on="1"/>
        <pt x="312" y="351" on="1"/>
        <pt x="306" y="364" on="0"/>
        <pt x="257" y="479" on="0"/>
        <pt x="199" y="609" on="0"/>
        <pt x="164" y="655" on="1"/>
        <pt x="142" y="681" on="0"/>
        <pt x="107" y="700" on="0"/>
        <pt x="67" y="703" on="1"/>
        <pt x="64" y="708" on="0"/>
        <pt x="64" y="724" on="0"/>
        <pt x="68" y="729" on="1"/>
        <pt x="84" y="728" on="0"/>
      </contour>
    </TTGlyph>
    <TTGlyph name="Y" xMin="0" yMin="-8" xMax="608" yMax="736">
      <contour>
        <pt x="51" y="728" on="1"/>
        <pt x="140" y="733" on="1"/>
        <pt x="145" y="733" on="0"/>
        <pt x="176" y="695" on="0"/>
        <pt x="218" y="624" on="0"/>
        <pt x="239" y="580" on="1"/>
        <pt x="289" y="474" on="0"/>
        <pt x="305" y="369" on="1"/>
        <pt x="336" y="457" on="0"/>
        <pt x="425" y="645" on="0"/>
        <pt x="511" y="736" on="0"/>
        <pt x="545" y="736" on="1"/>
        <pt x="577" y="736" on="0"/>
        <pt x="600" y="714" on="1"/>
        <pt x="608" y="707" on="1"/>
        <pt x="593" y="661" on="0"/>
        <pt x="565" y="632" on="1"/>
        <pt x="551" y="645" on="0"/>
        <pt x="534" y="653" on="0"/>
        <pt x="519" y="653" on="1"/>
        <pt x="493" y="653" on="0"/>
        <pt x="425" y="566" on="0"/>
        <pt x="395" y="500" on="1"/>
        <pt x="322" y="337" on="0"/>
        <pt x="315" y="220" on="1"/>
        <pt x="312" y="180" on="0"/>
        <pt x="312" y="113" on="1"/>
        <pt x="313" y="35" on="1"/>
        <pt x="350" y="28" on="0"/>
        <pt x="405" y="28" on="1"/>
        <pt x="405" y="8" on="0"/>
        <pt x="403" y="-3" on="1"/>
        <pt x="271" y="0" on="1"/>
        <pt x="167" y="0" on="0"/>
        <pt x="97" y="-8" on="1"/>
        <pt x="95" y="-4" on="0"/>
        <pt x="95" y="5" on="1"/>
        <pt x="96" y="17" on="1"/>
        <pt x="161" y="25" on="0"/>
        <pt x="212" y="64" on="0"/>
        <pt x="221" y="96" on="1"/>
        <pt x="236" y="156" on="0"/>
        <pt x="236" y="357" on="0"/>
        <pt x="146" y="580" on="0"/>
        <pt x="91" y="656" on="1"/>
        <pt x="72" y="682" on="0"/>
        <pt x="38" y="701" on="0"/>
        <pt x="1" y="703" on="1"/>
        <pt x="0" y="707" on="0"/>
        <pt x="0" y="721" on="0"/>
        <pt x="4" y="729" on="1"/>
      </contour>
    </TTGlyph>
    <TTGlyph name="Yacute" xMin="0" yMin="-8" xMax="608" yMax="943">
      <contour>
        <pt x="319" y="773" on="1"/>
        <pt x="310" y="782" on="0"/>
        <pt x="308" y="795" on="1"/>
        <pt x="431" y="864" on="0"/>
        <pt x="521" y="943" on="1"/>
        <pt x="552" y="926" on="0"/>
        <pt x="568" y="889" on="1"/>
        <pt x="527" y="862" on="0"/>
        <pt x="403" y="804" on="0"/>
        <pt x="361" y="788" on="1"/>
      </contour>
      <contour>
        <pt x="51" y="728" on="1"/>
        <pt x="140" y="733" on="1"/>
        <pt x="145" y="733" on="0"/>
        <pt x="176" y="695" on="0"/>
        <pt x="218" y="624" on="0"/>
        <pt x="239" y="580" on="1"/>
        <pt x="289" y="474" on="0"/>
        <pt x="305" y="369" on="1"/>
        <pt x="336" y="457" on="0"/>
        <pt x="425" y="645" on="0"/>
        <pt x="511" y="736" on="0"/>
        <pt x="545" y="736" on="1"/>
        <pt x="577" y="736" on="0"/>
        <pt x="600" y="714" on="1"/>
        <pt x="608" y="707" on="1"/>
        <pt x="593" y="661" on="0"/>
        <pt x="565" y="632" on="1"/>
        <pt x="551" y="645" on="0"/>
        <pt x="534" y="653" on="0"/>
        <pt x="519" y="653" on="1"/>
        <pt x="493" y="653" on="0"/>
        <pt x="425" y="566" on="0"/>
        <pt x="395" y="500" on="1"/>
        <pt x="322" y="337" on="0"/>
        <pt x="315" y="220" on="1"/>
        <pt x="312" y="180" on="0"/>
        <pt x="312" y="113" on="1"/>
        <pt x="313" y="35" on="1"/>
        <pt x="350" y="28" on="0"/>
        <pt x="405" y="28" on="1"/>
        <pt x="405" y="8" on="0"/>
        <pt x="403" y="-3" on="1"/>
        <pt x="271" y="0" on="1"/>
        <pt x="167" y="0" on="0"/>
        <pt x="97" y="-8" on="1"/>
        <pt x="95" y="-4" on="0"/>
        <pt x="95" y="5" on="1"/>
        <pt x="96" y="17" on="1"/>
        <pt x="161" y="25" on="0"/>
        <pt x="212" y="64" on="0"/>
        <pt x="221" y="96" on="1"/>
        <pt x="236" y="156" on="0"/>
        <pt x="236" y="357" on="0"/>
        <pt x="146" y="580" on="0"/>
        <pt x="91" y="656" on="1"/>
        <pt x="72" y="682" on="0"/>
        <pt x="38" y="701" on="0"/>
        <pt x="1" y="703" on="1"/>
        <pt x="0" y="707" on="0"/>
        <pt x="0" y="721" on="0"/>
        <pt x="4" y="729" on="1"/>
      </contour>
    </TTGlyph>
    <TTGlyph name="Z" xMin="21" yMin="-12" xMax="640" yMax="733">
      <contour>
        <pt x="520" y="1" on="1"/>
        <pt x="272" y="5" on="1"/>
        <pt x="145" y="5" on="0"/>
        <pt x="28" y="-12" on="1"/>
        <pt x="21" y="-2" on="0"/>
        <pt x="21" y="12" on="0"/>
        <pt x="23" y="16" on="1"/>
        <pt x="513" y="681" on="1"/>
        <pt x="393" y="681" on="1"/>
        <pt x="232" y="681" on="0"/>
        <pt x="157" y="656" on="1"/>
        <pt x="108" y="537" on="1"/>
        <pt x="103" y="536" on="0"/>
        <pt x="88" y="536" on="0"/>
        <pt x="79" y="543" on="1"/>
        <pt x="109" y="712" on="1"/>
        <pt x="111" y="723" on="0"/>
        <pt x="128" y="723" on="1"/>
        <pt x="377" y="720" on="1"/>
        <pt x="432" y="720" on="1"/>
        <pt x="542" y="720" on="0"/>
        <pt x="632" y="733" on="1"/>
        <pt x="640" y="727" on="0"/>
        <pt x="640" y="716" on="1"/>
        <pt x="639" y="707" on="1"/>
        <pt x="147" y="40" on="1"/>
        <pt x="222" y="45" on="0"/>
        <pt x="305" y="45" on="1"/>
        <pt x="472" y="45" on="0"/>
        <pt x="516" y="77" on="1"/>
        <pt x="551" y="103" on="0"/>
        <pt x="587" y="185" on="1"/>
        <pt x="591" y="187" on="0"/>
        <pt x="609" y="187" on="0"/>
        <pt x="620" y="177" on="1"/>
        <pt x="591" y="78" on="0"/>
        <pt x="577" y="16" on="1"/>
        <pt x="574" y="4" on="0"/>
        <pt x="564" y="3" on="1"/>
        <pt x="557" y="1" on="0"/>
      </contour>
    </TTGlyph>
    <TTGlyph name="a" xMin="40" yMin="-24" xMax="513" yMax="528">
      <contour>
        <pt x="167" y="60" on="1"/>
        <pt x="214" y="60" on="0"/>
        <pt x="366" y="271" on="0"/>
        <pt x="387" y="371" on="1"/>
        <pt x="404" y="453" on="1"/>
        <pt x="337" y="453" on="0"/>
        <pt x="297" y="448" on="1"/>
        <pt x="241" y="441" on="0"/>
        <pt x="117" y="272" on="0"/>
        <pt x="117" y="60" on="0"/>
      </contour>
      <contour>
        <pt x="483" y="521" on="1"/>
        <pt x="423" y="196" on="0"/>
        <pt x="423" y="68" on="0"/>
        <pt x="441" y="68" on="1"/>
        <pt x="445" y="68" on="0"/>
        <pt x="504" y="89" on="1"/>
        <pt x="513" y="82" on="0"/>
        <pt x="513" y="65" on="1"/>
        <pt x="444" y="36" on="0"/>
        <pt x="422" y="20" on="1"/>
        <pt x="378" y="-13" on="0"/>
        <pt x="367" y="-24" on="1"/>
        <pt x="351" y="-17" on="1"/>
        <pt x="340" y="-1" on="0"/>
        <pt x="340" y="113" on="0"/>
        <pt x="360" y="225" on="1"/>
        <pt x="231" y="19" on="0"/>
        <pt x="129" y="-20" on="1"/>
        <pt x="92" y="-13" on="0"/>
        <pt x="40" y="63" on="0"/>
        <pt x="40" y="125" on="1"/>
        <pt x="40" y="222" on="0"/>
        <pt x="84" y="299" on="1"/>
        <pt x="147" y="412" on="0"/>
        <pt x="262" y="467" on="1"/>
        <pt x="316" y="493" on="0"/>
        <pt x="348" y="499" on="1"/>
        <pt x="415" y="506" on="0"/>
        <pt x="419" y="508" on="1"/>
        <pt x="471" y="528" on="1"/>
        <pt x="476" y="528" on="0"/>
      </contour>
    </TTGlyph>
    <TTGlyph name="aacute" xMin="40" yMin="-24" xMax="519" yMax="795">
      <contour>
        <pt x="167" y="60" on="1"/>
        <pt x="214" y="60" on="0"/>
        <pt x="366" y="271" on="0"/>
        <pt x="387" y="371" on="1"/>
        <pt x="404" y="453" on="1"/>
        <pt x="337" y="453" on="0"/>
        <pt x="297" y="448" on="1"/>
        <pt x="241" y="441" on="0"/>
        <pt x="117" y="272" on="0"/>
        <pt x="117" y="60" on="0"/>
      </contour>
      <contour>
        <pt x="483" y="521" on="1"/>
        <pt x="423" y="196" on="0"/>
        <pt x="423" y="68" on="0"/>
        <pt x="441" y="68" on="1"/>
        <pt x="445" y="68" on="0"/>
        <pt x="504" y="89" on="1"/>
        <pt x="513" y="82" on="0"/>
        <pt x="513" y="65" on="1"/>
        <pt x="444" y="36" on="0"/>
        <pt x="422" y="20" on="1"/>
        <pt x="378" y="-13" on="0"/>
        <pt x="367" y="-24" on="1"/>
        <pt x="351" y="-17" on="1"/>
        <pt x="340" y="-1" on="0"/>
        <pt x="340" y="113" on="0"/>
        <pt x="360" y="225" on="1"/>
        <pt x="231" y="19" on="0"/>
        <pt x="129" y="-20" on="1"/>
        <pt x="92" y="-13" on="0"/>
        <pt x="40" y="63" on="0"/>
        <pt x="40" y="125" on="1"/>
        <pt x="40" y="222" on="0"/>
        <pt x="84" y="299" on="1"/>
        <pt x="147" y="412" on="0"/>
        <pt x="262" y="467" on="1"/>
        <pt x="316" y="493" on="0"/>
        <pt x="348" y="499" on="1"/>
        <pt x="415" y="506" on="0"/>
        <pt x="419" y="508" on="1"/>
        <pt x="471" y="528" on="1"/>
        <pt x="476" y="528" on="0"/>
      </contour>
      <contour>
        <pt x="304" y="573" on="1"/>
        <pt x="292" y="581" on="0"/>
        <pt x="288" y="592" on="1"/>
        <pt x="396" y="693" on="0"/>
        <pt x="465" y="795" on="1"/>
        <pt x="507" y="785" on="0"/>
        <pt x="519" y="745" on="1"/>
        <pt x="485" y="709" on="0"/>
        <pt x="378" y="623" on="0"/>
        <pt x="341" y="598" on="1"/>
      </contour>
    </TTGlyph>
    <TTGlyph name="acircumflex" xMin="40" yMin="-24" xMax="513" yMax="756">
      <contour>
        <pt x="167" y="60" on="1"/>
        <pt x="214" y="60" on="0"/>
        <pt x="366" y="271" on="0"/>
        <pt x="387" y="371" on="1"/>
        <pt x="404" y="453" on="1"/>
        <pt x="337" y="453" on="0"/>
        <pt x="297" y="448" on="1"/>
        <pt x="241" y="441" on="0"/>
        <pt x="117" y="272" on="0"/>
        <pt x="117" y="60" on="0"/>
      </contour>
      <contour>
        <pt x="483" y="521" on="1"/>
        <pt x="423" y="196" on="0"/>
        <pt x="423" y="68" on="0"/>
        <pt x="441" y="68" on="1"/>
        <pt x="445" y="68" on="0"/>
        <pt x="504" y="89" on="1"/>
        <pt x="513" y="82" on="0"/>
        <pt x="513" y="65" on="1"/>
        <pt x="444" y="36" on="0"/>
        <pt x="422" y="20" on="1"/>
        <pt x="378" y="-13" on="0"/>
        <pt x="367" y="-24" on="1"/>
        <pt x="351" y="-17" on="1"/>
        <pt x="340" y="-1" on="0"/>
        <pt x="340" y="113" on="0"/>
        <pt x="360" y="225" on="1"/>
        <pt x="231" y="19" on="0"/>
        <pt x="129" y="-20" on="1"/>
        <pt x="92" y="-13" on="0"/>
        <pt x="40" y="63" on="0"/>
        <pt x="40" y="125" on="1"/>
        <pt x="40" y="222" on="0"/>
        <pt x="84" y="299" on="1"/>
        <pt x="147" y="412" on="0"/>
        <pt x="262" y="467" on="1"/>
        <pt x="316" y="493" on="0"/>
        <pt x="348" y="499" on="1"/>
        <pt x="415" y="506" on="0"/>
        <pt x="419" y="508" on="1"/>
        <pt x="471" y="528" on="1"/>
        <pt x="476" y="528" on="0"/>
      </contour>
      <contour>
        <pt x="365" y="661" on="1"/>
        <pt x="215" y="547" on="1"/>
        <pt x="208" y="547" on="0"/>
        <pt x="199" y="556" on="0"/>
        <pt x="197" y="564" on="1"/>
        <pt x="304" y="669" on="0"/>
        <pt x="377" y="756" on="1"/>
        <pt x="389" y="756" on="1"/>
        <pt x="476" y="559" on="1"/>
        <pt x="465" y="547" on="0"/>
        <pt x="451" y="547" on="1"/>
      </contour>
    </TTGlyph>
    <TTGlyph name="acute" xMin="279" yMin="573" xMax="509" yMax="795">
      <contour>
        <pt x="295" y="573" on="1"/>
        <pt x="283" y="581" on="0"/>
        <pt x="279" y="592" on="1"/>
        <pt x="387" y="693" on="0"/>
        <pt x="456" y="795" on="1"/>
        <pt x="497" y="785" on="0"/>
        <pt x="509" y="745" on="1"/>
        <pt x="475" y="709" on="0"/>
        <pt x="368" y="623" on="0"/>
        <pt x="332" y="598" on="1"/>
      </contour>
    </TTGlyph>
    <TTGlyph name="adieresis" xMin="40" yMin="-24" xMax="513" yMax="729">
      <contour>
        <pt x="167" y="60" on="1"/>
        <pt x="214" y="60" on="0"/>
        <pt x="366" y="271" on="0"/>
        <pt x="387" y="371" on="1"/>
        <pt x="404" y="453" on="1"/>
        <pt x="337" y="453" on="0"/>
        <pt x="297" y="448" on="1"/>
        <pt x="241" y="441" on="0"/>
        <pt x="117" y="272" on="0"/>
        <pt x="117" y="60" on="0"/>
      </contour>
      <contour>
        <pt x="483" y="521" on="1"/>
        <pt x="423" y="196" on="0"/>
        <pt x="423" y="68" on="0"/>
        <pt x="441" y="68" on="1"/>
        <pt x="445" y="68" on="0"/>
        <pt x="504" y="89" on="1"/>
        <pt x="513" y="82" on="0"/>
        <pt x="513" y="65" on="1"/>
        <pt x="444" y="36" on="0"/>
        <pt x="422" y="20" on="1"/>
        <pt x="378" y="-13" on="0"/>
        <pt x="367" y="-24" on="1"/>
        <pt x="351" y="-17" on="1"/>
        <pt x="340" y="-1" on="0"/>
        <pt x="340" y="113" on="0"/>
        <pt x="360" y="225" on="1"/>
        <pt x="231" y="19" on="0"/>
        <pt x="129" y="-20" on="1"/>
        <pt x="92" y="-13" on="0"/>
        <pt x="40" y="63" on="0"/>
        <pt x="40" y="125" on="1"/>
        <pt x="40" y="222" on="0"/>
        <pt x="84" y="299" on="1"/>
        <pt x="147" y="412" on="0"/>
        <pt x="262" y="467" on="1"/>
        <pt x="316" y="493" on="0"/>
        <pt x="348" y="499" on="1"/>
        <pt x="415" y="506" on="0"/>
        <pt x="419" y="508" on="1"/>
        <pt x="471" y="528" on="1"/>
        <pt x="476" y="528" on="0"/>
      </contour>
      <contour>
        <pt x="317" y="665" on="1"/>
        <pt x="317" y="650" on="0"/>
        <pt x="269" y="615" on="0"/>
        <pt x="248" y="615" on="1"/>
        <pt x="232" y="659" on="0"/>
        <pt x="215" y="677" on="1"/>
        <pt x="236" y="713" on="0"/>
        <pt x="283" y="729" on="1"/>
        <pt x="317" y="698" on="0"/>
      </contour>
      <contour>
        <pt x="491" y="665" on="1"/>
        <pt x="491" y="650" on="0"/>
        <pt x="442" y="615" on="0"/>
        <pt x="421" y="615" on="1"/>
        <pt x="405" y="659" on="0"/>
        <pt x="388" y="677" on="1"/>
        <pt x="411" y="714" on="0"/>
        <pt x="456" y="729" on="1"/>
        <pt x="491" y="698" on="0"/>
      </contour>
    </TTGlyph>
    <TTGlyph name="ae" xMin="40" yMin="-20" xMax="691" yMax="528">
      <contour>
        <pt x="691" y="411" on="1"/>
        <pt x="691" y="328" on="0"/>
        <pt x="579" y="255" on="1"/>
        <pt x="505" y="205" on="0"/>
        <pt x="424" y="192" on="1"/>
        <pt x="424" y="125" on="0"/>
        <pt x="463" y="41" on="0"/>
        <pt x="500" y="41" on="1"/>
        <pt x="561" y="41" on="0"/>
        <pt x="651" y="101" on="1"/>
        <pt x="662" y="99" on="0"/>
        <pt x="664" y="81" on="1"/>
        <pt x="543" y="1" on="1"/>
        <pt x="512" y="-20" on="0"/>
        <pt x="403" y="-20" on="0"/>
        <pt x="343" y="76" on="0"/>
        <pt x="343" y="152" on="1"/>
        <pt x="343" y="181" on="0"/>
        <pt x="347" y="204" on="1"/>
        <pt x="226" y="16" on="0"/>
        <pt x="129" y="-20" on="1"/>
        <pt x="92" y="-13" on="0"/>
        <pt x="40" y="63" on="0"/>
        <pt x="40" y="125" on="1"/>
        <pt x="40" y="222" on="0"/>
        <pt x="84" y="299" on="1"/>
        <pt x="147" y="412" on="0"/>
        <pt x="262" y="467" on="1"/>
        <pt x="316" y="493" on="0"/>
        <pt x="348" y="499" on="1"/>
        <pt x="415" y="506" on="0"/>
        <pt x="419" y="508" on="1"/>
        <pt x="471" y="528" on="1"/>
        <pt x="476" y="528" on="0"/>
        <pt x="483" y="521" on="1"/>
        <pt x="468" y="440" on="1"/>
        <pt x="516" y="483" on="0"/>
        <pt x="572" y="509" on="1"/>
        <pt x="629" y="509" on="0"/>
        <pt x="691" y="466" on="0"/>
      </contour>
      <contour>
        <pt x="167" y="60" on="1"/>
        <pt x="214" y="60" on="0"/>
        <pt x="366" y="271" on="0"/>
        <pt x="387" y="371" on="1"/>
        <pt x="404" y="453" on="1"/>
        <pt x="337" y="453" on="0"/>
        <pt x="297" y="448" on="1"/>
        <pt x="241" y="441" on="0"/>
        <pt x="117" y="272" on="0"/>
        <pt x="117" y="60" on="0"/>
      </contour>
      <contour>
        <pt x="552" y="468" on="1"/>
        <pt x="518" y="468" on="0"/>
        <pt x="432" y="302" on="0"/>
        <pt x="425" y="215" on="1"/>
        <pt x="492" y="231" on="0"/>
        <pt x="545" y="276" on="1"/>
        <pt x="609" y="333" on="0"/>
        <pt x="609" y="385" on="1"/>
        <pt x="609" y="468" on="0"/>
      </contour>
    </TTGlyph>
    <TTGlyph name="agrave" xMin="40" yMin="-24" xMax="513" yMax="795">
      <contour>
        <pt x="167" y="60" on="1"/>
        <pt x="214" y="60" on="0"/>
        <pt x="366" y="271" on="0"/>
        <pt x="387" y="371" on="1"/>
        <pt x="404" y="453" on="1"/>
        <pt x="337" y="453" on="0"/>
        <pt x="297" y="448" on="1"/>
        <pt x="241" y="441" on="0"/>
        <pt x="117" y="272" on="0"/>
        <pt x="117" y="60" on="0"/>
      </contour>
      <contour>
        <pt x="483" y="521" on="1"/>
        <pt x="423" y="196" on="0"/>
        <pt x="423" y="68" on="0"/>
        <pt x="441" y="68" on="1"/>
        <pt x="445" y="68" on="0"/>
        <pt x="504" y="89" on="1"/>
        <pt x="513" y="82" on="0"/>
        <pt x="513" y="65" on="1"/>
        <pt x="444" y="36" on="0"/>
        <pt x="422" y="20" on="1"/>
        <pt x="378" y="-13" on="0"/>
        <pt x="367" y="-24" on="1"/>
        <pt x="351" y="-17" on="1"/>
        <pt x="340" y="-1" on="0"/>
        <pt x="340" y="113" on="0"/>
        <pt x="360" y="225" on="1"/>
        <pt x="231" y="19" on="0"/>
        <pt x="129" y="-20" on="1"/>
        <pt x="92" y="-13" on="0"/>
        <pt x="40" y="63" on="0"/>
        <pt x="40" y="125" on="1"/>
        <pt x="40" y="222" on="0"/>
        <pt x="84" y="299" on="1"/>
        <pt x="147" y="412" on="0"/>
        <pt x="262" y="467" on="1"/>
        <pt x="316" y="493" on="0"/>
        <pt x="348" y="499" on="1"/>
        <pt x="415" y="506" on="0"/>
        <pt x="419" y="508" on="1"/>
        <pt x="471" y="528" on="1"/>
        <pt x="476" y="528" on="0"/>
      </contour>
      <contour>
        <pt x="425" y="573" on="1"/>
        <pt x="287" y="665" on="0"/>
        <pt x="211" y="745" on="1"/>
        <pt x="223" y="785" on="0"/>
        <pt x="264" y="795" on="1"/>
        <pt x="295" y="750" on="0"/>
        <pt x="383" y="648" on="0"/>
        <pt x="412" y="620" on="1"/>
        <pt x="441" y="592" on="1"/>
        <pt x="439" y="581" on="0"/>
      </contour>
    </TTGlyph>
    <TTGlyph name="ampersand" xMin="43" yMin="-189" xMax="769" yMax="533">
      <contour>
        <pt x="744" y="444" on="1"/>
        <pt x="769" y="409" on="0"/>
        <pt x="769" y="341" on="0"/>
        <pt x="670" y="260" on="0"/>
        <pt x="601" y="260" on="1"/>
        <pt x="576" y="104" on="1"/>
        <pt x="559" y="-9" on="0"/>
        <pt x="559" y="-55" on="1"/>
        <pt x="559" y="-84" on="0"/>
        <pt x="577" y="-84" on="1"/>
        <pt x="611" y="-84" on="0"/>
        <pt x="680" y="-59" on="1"/>
        <pt x="688" y="-72" on="0"/>
        <pt x="688" y="-88" on="1"/>
        <pt x="597" y="-126" on="0"/>
        <pt x="538" y="-161" on="0"/>
        <pt x="495" y="-189" on="1"/>
        <pt x="479" y="-183" on="1"/>
        <pt x="475" y="-167" on="0"/>
        <pt x="475" y="-62" on="0"/>
        <pt x="504" y="116" on="1"/>
        <pt x="391" y="-20" on="0"/>
        <pt x="249" y="-20" on="1"/>
        <pt x="158" y="-20" on="0"/>
        <pt x="43" y="124" on="0"/>
        <pt x="43" y="329" on="0"/>
        <pt x="137" y="490" on="0"/>
        <pt x="223" y="533" on="1"/>
        <pt x="273" y="533" on="0"/>
        <pt x="341" y="489" on="0"/>
        <pt x="341" y="437" on="1"/>
        <pt x="341" y="357" on="0"/>
        <pt x="229" y="308" on="1"/>
        <pt x="587" y="308" on="1"/>
        <pt x="652" y="308" on="0"/>
        <pt x="728" y="333" on="0"/>
        <pt x="728" y="374" on="0"/>
        <pt x="696" y="409" on="1"/>
        <pt x="706" y="432" on="0"/>
        <pt x="734" y="441" on="1"/>
      </contour>
      <contour>
        <pt x="121" y="259" on="1"/>
        <pt x="121" y="176" on="0"/>
        <pt x="210" y="44" on="0"/>
        <pt x="276" y="44" on="1"/>
        <pt x="373" y="44" on="0"/>
        <pt x="514" y="183" on="0"/>
        <pt x="527" y="260" on="1"/>
        <pt x="254" y="260" on="0"/>
        <pt x="121" y="269" on="1"/>
      </contour>
      <contour>
        <pt x="267" y="449" on="0"/>
        <pt x="234" y="491" on="0"/>
        <pt x="182" y="491" on="0"/>
        <pt x="131" y="374" on="0"/>
        <pt x="123" y="301" on="1"/>
        <pt x="178" y="307" on="0"/>
        <pt x="267" y="377" on="0"/>
        <pt x="267" y="419" on="1"/>
      </contour>
    </TTGlyph>
    <TTGlyph name="aring" xMin="40" yMin="-24" xMax="513" yMax="753">
      <contour>
        <pt x="167" y="60" on="1"/>
        <pt x="214" y="60" on="0"/>
        <pt x="366" y="271" on="0"/>
        <pt x="387" y="371" on="1"/>
        <pt x="404" y="453" on="1"/>
        <pt x="337" y="453" on="0"/>
        <pt x="297" y="448" on="1"/>
        <pt x="241" y="441" on="0"/>
        <pt x="117" y="272" on="0"/>
        <pt x="117" y="60" on="0"/>
      </contour>
      <contour>
        <pt x="483" y="521" on="1"/>
        <pt x="423" y="196" on="0"/>
        <pt x="423" y="68" on="0"/>
        <pt x="441" y="68" on="1"/>
        <pt x="445" y="68" on="0"/>
        <pt x="504" y="89" on="1"/>
        <pt x="513" y="82" on="0"/>
        <pt x="513" y="65" on="1"/>
        <pt x="444" y="36" on="0"/>
        <pt x="422" y="20" on="1"/>
        <pt x="378" y="-13" on="0"/>
        <pt x="367" y="-24" on="1"/>
        <pt x="351" y="-17" on="1"/>
        <pt x="340" y="-1" on="0"/>
        <pt x="340" y="113" on="0"/>
        <pt x="360" y="225" on="1"/>
        <pt x="231" y="19" on="0"/>
        <pt x="129" y="-20" on="1"/>
        <pt x="92" y="-13" on="0"/>
        <pt x="40" y="63" on="0"/>
        <pt x="40" y="125" on="1"/>
        <pt x="40" y="222" on="0"/>
        <pt x="84" y="299" on="1"/>
        <pt x="147" y="412" on="0"/>
        <pt x="262" y="467" on="1"/>
        <pt x="316" y="493" on="0"/>
        <pt x="348" y="499" on="1"/>
        <pt x="415" y="506" on="0"/>
        <pt x="419" y="508" on="1"/>
        <pt x="471" y="528" on="1"/>
        <pt x="476" y="528" on="0"/>
      </contour>
      <contour>
        <pt x="456" y="685" on="1"/>
        <pt x="456" y="641" on="0"/>
        <pt x="376" y="559" on="0"/>
        <pt x="317" y="553" on="1"/>
        <pt x="289" y="553" on="0"/>
        <pt x="255" y="586" on="0"/>
        <pt x="255" y="613" on="1"/>
        <pt x="255" y="658" on="0"/>
        <pt x="323" y="745" on="0"/>
        <pt x="392" y="753" on="1"/>
        <pt x="421" y="753" on="0"/>
        <pt x="456" y="715" on="0"/>
      </contour>
      <contour>
        <pt x="341" y="723" on="0"/>
        <pt x="304" y="664" on="0"/>
        <pt x="304" y="584" on="0"/>
        <pt x="367" y="584" on="0"/>
        <pt x="404" y="644" on="0"/>
        <pt x="404" y="723" on="0"/>
      </contour>
    </TTGlyph>
    <TTGlyph name="asciicircum" xMin="23" yMin="348" xMax="449" yMax="856">
      <contour>
        <pt x="307" y="856" on="1"/>
        <pt x="335" y="856" on="1"/>
        <pt x="374" y="710" on="0"/>
        <pt x="449" y="365" on="1"/>
        <pt x="431" y="348" on="0"/>
        <pt x="409" y="348" on="1"/>
        <pt x="305" y="748" on="1"/>
        <pt x="56" y="348" on="1"/>
        <pt x="37" y="348" on="0"/>
        <pt x="23" y="368" on="1"/>
        <pt x="226" y="727" on="0"/>
      </contour>
    </TTGlyph>
    <TTGlyph name="asciitilde" xMin="40" yMin="315" xMax="565" yMax="443">
      <contour>
        <pt x="40" y="355" on="1"/>
        <pt x="167" y="443" on="0"/>
        <pt x="197" y="443" on="1"/>
        <pt x="222" y="443" on="0"/>
        <pt x="305" y="419" on="0"/>
        <pt x="324" y="415" on="1"/>
        <pt x="389" y="395" on="0"/>
        <pt x="448" y="395" on="1"/>
        <pt x="479" y="395" on="0"/>
        <pt x="509" y="407" on="0"/>
        <pt x="544" y="423" on="0"/>
        <pt x="553" y="427" on="1"/>
        <pt x="565" y="415" on="0"/>
        <pt x="565" y="403" on="1"/>
        <pt x="553" y="395" on="0"/>
        <pt x="504" y="361" on="0"/>
        <pt x="479" y="345" on="0"/>
        <pt x="462" y="334" on="1"/>
        <pt x="430" y="315" on="0"/>
        <pt x="395" y="315" on="0"/>
        <pt x="283" y="343" on="1"/>
        <pt x="211" y="363" on="0"/>
        <pt x="142" y="363" on="0"/>
        <pt x="113" y="357" on="0"/>
        <pt x="96" y="350" on="0"/>
        <pt x="63" y="335" on="0"/>
        <pt x="52" y="331" on="1"/>
        <pt x="40" y="343" on="0"/>
      </contour>
    </TTGlyph>
    <TTGlyph name="asterisk" xMin="80" yMin="480" xMax="447" yMax="880">
      <contour>
        <pt x="333" y="872" on="1"/>
        <pt x="293" y="791" on="0"/>
        <pt x="280" y="709" on="1"/>
        <pt x="408" y="787" on="1"/>
        <pt x="431" y="749" on="0"/>
        <pt x="447" y="735" on="1"/>
        <pt x="443" y="724" on="1"/>
        <pt x="360" y="713" on="0"/>
        <pt x="293" y="680" on="1"/>
        <pt x="405" y="600" on="1"/>
        <pt x="385" y="557" on="0"/>
        <pt x="380" y="533" on="1"/>
        <pt x="372" y="531" on="1"/>
        <pt x="332" y="599" on="0"/>
        <pt x="276" y="652" on="1"/>
        <pt x="261" y="496" on="1"/>
        <pt x="223" y="491" on="0"/>
        <pt x="199" y="480" on="1"/>
        <pt x="192" y="488" on="1"/>
        <pt x="227" y="556" on="0"/>
        <pt x="247" y="652" on="1"/>
        <pt x="117" y="576" on="1"/>
        <pt x="94" y="614" on="0"/>
        <pt x="80" y="628" on="1"/>
        <pt x="80" y="634" on="0"/>
        <pt x="84" y="639" on="1"/>
        <pt x="154" y="646" on="0"/>
        <pt x="232" y="679" on="1"/>
        <pt x="119" y="756" on="1"/>
        <pt x="134" y="791" on="0"/>
        <pt x="143" y="823" on="1"/>
        <pt x="152" y="827" on="1"/>
        <pt x="192" y="759" on="0"/>
        <pt x="249" y="708" on="1"/>
        <pt x="264" y="864" on="1"/>
        <pt x="302" y="869" on="0"/>
        <pt x="327" y="880" on="1"/>
      </contour>
    </TTGlyph>
    <TTGlyph name="at" xMin="45" yMin="-180" xMax="827" yMax="636">
      <contour>
        <pt x="607" y="44" on="1"/>
        <pt x="646" y="44" on="0"/>
        <pt x="716" y="142" on="0"/>
        <pt x="755" y="286" on="0"/>
        <pt x="755" y="356" on="1"/>
        <pt x="755" y="474" on="0"/>
        <pt x="644" y="604" on="0"/>
        <pt x="430" y="604" on="0"/>
        <pt x="243" y="471" on="0"/>
        <pt x="129" y="245" on="0"/>
        <pt x="129" y="117" on="1"/>
        <pt x="129" y="19" on="0"/>
        <pt x="250" y="-141" on="0"/>
        <pt x="435" y="-141" on="0"/>
        <pt x="508" y="-105" on="1"/>
        <pt x="520" y="-112" on="0"/>
        <pt x="520" y="-135" on="1"/>
        <pt x="423" y="-180" on="0"/>
        <pt x="341" y="-180" on="1"/>
        <pt x="208" y="-180" on="0"/>
        <pt x="45" y="-3" on="0"/>
        <pt x="45" y="234" on="0"/>
        <pt x="134" y="429" on="0"/>
        <pt x="279" y="560" on="0"/>
        <pt x="464" y="636" on="0"/>
        <pt x="559" y="636" on="1"/>
        <pt x="690" y="636" on="0"/>
        <pt x="827" y="483" on="0"/>
        <pt x="827" y="211" on="0"/>
        <pt x="679" y="22" on="0"/>
        <pt x="549" y="-23" on="1"/>
        <pt x="531" y="-14" on="0"/>
        <pt x="509" y="32" on="0"/>
        <pt x="509" y="127" on="0"/>
        <pt x="529" y="213" on="1"/>
        <pt x="494" y="160" on="0"/>
        <pt x="444" y="89" on="0"/>
        <pt x="352" y="-3" on="0"/>
        <pt x="311" y="-20" on="1"/>
        <pt x="276" y="-14" on="0"/>
        <pt x="229" y="55" on="0"/>
        <pt x="229" y="111" on="1"/>
        <pt x="229" y="191" on="0"/>
        <pt x="274" y="265" on="1"/>
        <pt x="341" y="375" on="0"/>
        <pt x="458" y="430" on="1"/>
        <pt x="513" y="457" on="0"/>
        <pt x="537" y="460" on="1"/>
        <pt x="584" y="465" on="0"/>
        <pt x="592" y="468" on="1"/>
        <pt x="641" y="488" on="1"/>
        <pt x="647" y="488" on="0"/>
        <pt x="652" y="481" on="1"/>
        <pt x="581" y="142" on="0"/>
        <pt x="581" y="70" on="0"/>
        <pt x="592" y="44" on="0"/>
      </contour>
      <contour>
        <pt x="304" y="143" on="1"/>
        <pt x="304" y="56" on="0"/>
        <pt x="391" y="56" on="0"/>
        <pt x="539" y="260" on="0"/>
        <pt x="560" y="352" on="1"/>
        <pt x="575" y="416" on="1"/>
        <pt x="517" y="416" on="0"/>
        <pt x="488" y="412" on="1"/>
        <pt x="440" y="406" on="0"/>
        <pt x="353" y="312" on="0"/>
        <pt x="304" y="192" on="0"/>
      </contour>
    </TTGlyph>
    <TTGlyph name="atilde" xMin="40" yMin="-24" xMax="519" yMax="708">
      <contour>
        <pt x="167" y="60" on="1"/>
        <pt x="214" y="60" on="0"/>
        <pt x="366" y="271" on="0"/>
        <pt x="387" y="371" on="1"/>
        <pt x="404" y="453" on="1"/>
        <pt x="337" y="453" on="0"/>
        <pt x="297" y="448" on="1"/>
        <pt x="241" y="441" on="0"/>
        <pt x="117" y="272" on="0"/>
        <pt x="117" y="60" on="0"/>
      </contour>
      <contour>
        <pt x="483" y="521" on="1"/>
        <pt x="423" y="196" on="0"/>
        <pt x="423" y="68" on="0"/>
        <pt x="441" y="68" on="1"/>
        <pt x="445" y="68" on="0"/>
        <pt x="504" y="89" on="1"/>
        <pt x="513" y="82" on="0"/>
        <pt x="513" y="65" on="1"/>
        <pt x="444" y="36" on="0"/>
        <pt x="422" y="20" on="1"/>
        <pt x="378" y="-13" on="0"/>
        <pt x="367" y="-24" on="1"/>
        <pt x="351" y="-17" on="1"/>
        <pt x="340" y="-1" on="0"/>
        <pt x="340" y="113" on="0"/>
        <pt x="360" y="225" on="1"/>
        <pt x="231" y="19" on="0"/>
        <pt x="129" y="-20" on="1"/>
        <pt x="92" y="-13" on="0"/>
        <pt x="40" y="63" on="0"/>
        <pt x="40" y="125" on="1"/>
        <pt x="40" y="222" on="0"/>
        <pt x="84" y="299" on="1"/>
        <pt x="147" y="412" on="0"/>
        <pt x="262" y="467" on="1"/>
        <pt x="316" y="493" on="0"/>
        <pt x="348" y="499" on="1"/>
        <pt x="415" y="506" on="0"/>
        <pt x="419" y="508" on="1"/>
        <pt x="471" y="528" on="1"/>
        <pt x="476" y="528" on="0"/>
      </contour>
      <contour>
        <pt x="420" y="613" on="1"/>
        <pt x="396" y="613" on="0"/>
        <pt x="305" y="649" on="0"/>
        <pt x="269" y="649" on="0"/>
        <pt x="257" y="646" on="0"/>
        <pt x="241" y="638" on="0"/>
        <pt x="238" y="636" on="1"/>
        <pt x="218" y="625" on="0"/>
        <pt x="213" y="620" on="1"/>
        <pt x="199" y="625" on="0"/>
        <pt x="199" y="639" on="1"/>
        <pt x="256" y="687" on="1"/>
        <pt x="282" y="708" on="0"/>
        <pt x="324" y="708" on="0"/>
        <pt x="411" y="673" on="0"/>
        <pt x="464" y="673" on="0"/>
        <pt x="504" y="703" on="1"/>
        <pt x="517" y="698" on="0"/>
        <pt x="519" y="684" on="1"/>
        <pt x="483" y="653" on="1"/>
        <pt x="435" y="613" on="0"/>
      </contour>
    </TTGlyph>
    <TTGlyph name="b" xMin="44" yMin="-21" xMax="484" yMax="876">
      <contour>
        <pt x="405" y="366" on="0"/>
        <pt x="370" y="429" on="0"/>
        <pt x="307" y="429" on="0"/>
        <pt x="218" y="328" on="0"/>
        <pt x="150" y="189" on="0"/>
        <pt x="144" y="136" on="1"/>
        <pt x="136" y="61" on="1"/>
        <pt x="179" y="43" on="0"/>
        <pt x="261" y="31" on="0"/>
        <pt x="267" y="31" on="1"/>
        <pt x="317" y="31" on="0"/>
        <pt x="405" y="204" on="0"/>
        <pt x="405" y="313" on="1"/>
      </contour>
      <contour>
        <pt x="61" y="-21" on="1"/>
        <pt x="50" y="-19" on="0"/>
        <pt x="44" y="-9" on="1"/>
        <pt x="57" y="35" on="0"/>
        <pt x="75" y="172" on="1"/>
        <pt x="123" y="549" on="1"/>
        <pt x="148" y="741" on="0"/>
        <pt x="148" y="767" on="1"/>
        <pt x="148" y="807" on="0"/>
        <pt x="117" y="808" on="1"/>
        <pt x="55" y="811" on="1"/>
        <pt x="52" y="817" on="0"/>
        <pt x="52" y="823" on="1"/>
        <pt x="55" y="836" on="1"/>
        <pt x="147" y="850" on="0"/>
        <pt x="225" y="876" on="1"/>
        <pt x="235" y="876" on="0"/>
        <pt x="237" y="867" on="1"/>
        <pt x="217" y="728" on="0"/>
        <pt x="155" y="253" on="1"/>
        <pt x="266" y="482" on="0"/>
        <pt x="376" y="509" on="1"/>
        <pt x="423" y="503" on="0"/>
        <pt x="484" y="415" on="0"/>
        <pt x="484" y="267" on="0"/>
        <pt x="436" y="130" on="0"/>
        <pt x="368" y="52" on="0"/>
        <pt x="328" y="26" on="1"/>
        <pt x="261" y="-20" on="0"/>
        <pt x="219" y="-20" on="1"/>
        <pt x="202" y="-20" on="0"/>
        <pt x="118" y="0" on="0"/>
        <pt x="112" y="0" on="1"/>
      </contour>
    </TTGlyph>
    <TTGlyph name="backslash" xMin="41" yMin="-104" xMax="284" yMax="897">
      <contour>
        <pt x="195" y="387" on="1"/>
        <pt x="284" y="-73" on="1"/>
        <pt x="254" y="-88" on="0"/>
        <pt x="233" y="-103" on="1"/>
        <pt x="231" y="-104" on="0"/>
        <pt x="227" y="-104" on="1"/>
        <pt x="215" y="-99" on="1"/>
        <pt x="210" y="-24" on="0"/>
        <pt x="137" y="369" on="1"/>
        <pt x="41" y="868" on="1"/>
        <pt x="75" y="883" on="0"/>
        <pt x="92" y="896" on="1"/>
        <pt x="95" y="897" on="0"/>
        <pt x="100" y="897" on="1"/>
        <pt x="111" y="892" on="1"/>
        <pt x="115" y="817" on="0"/>
      </contour>
    </TTGlyph>
    <TTGlyph name="bar" xMin="56" yMin="-424" xMax="227" yMax="856">
      <contour>
        <pt x="104" y="68" on="1"/>
        <pt x="164" y="840" on="1"/>
        <pt x="191" y="846" on="0"/>
        <pt x="213" y="856" on="1"/>
        <pt x="222" y="856" on="0"/>
        <pt x="227" y="847" on="1"/>
        <pt x="212" y="772" on="0"/>
        <pt x="179" y="364" on="1"/>
        <pt x="119" y="-408" on="1"/>
        <pt x="92" y="-414" on="0"/>
        <pt x="69" y="-424" on="1"/>
        <pt x="61" y="-424" on="0"/>
        <pt x="56" y="-415" on="1"/>
        <pt x="70" y="-345" on="0"/>
      </contour>
    </TTGlyph>
    <TTGlyph name="braceleft" xMin="73" yMin="-228" xMax="359" yMax="903">
      <contour>
        <pt x="200" y="276" on="1"/>
        <pt x="192" y="175" on="0"/>
        <pt x="192" y="-143" on="0"/>
        <pt x="208" y="-160" on="1"/>
        <pt x="229" y="-181" on="0"/>
        <pt x="254" y="-197" on="1"/>
        <pt x="264" y="-203" on="1"/>
        <pt x="264" y="-218" on="0"/>
        <pt x="252" y="-228" on="1"/>
        <pt x="141" y="-187" on="1"/>
        <pt x="136" y="-125" on="0"/>
        <pt x="125" y="203" on="0"/>
        <pt x="120" y="260" on="0"/>
        <pt x="96" y="335" on="0"/>
        <pt x="73" y="359" on="1"/>
        <pt x="101" y="386" on="0"/>
        <pt x="138" y="460" on="0"/>
        <pt x="152" y="514" on="0"/>
        <pt x="213" y="796" on="0"/>
        <pt x="232" y="864" on="1"/>
        <pt x="348" y="903" on="1"/>
        <pt x="359" y="897" on="0"/>
        <pt x="359" y="877" on="1"/>
        <pt x="313" y="851" on="0"/>
        <pt x="272" y="816" on="0"/>
        <pt x="224" y="542" on="0"/>
        <pt x="215" y="432" on="1"/>
        <pt x="192" y="399" on="0"/>
        <pt x="127" y="359" on="1"/>
        <pt x="152" y="341" on="0"/>
        <pt x="189" y="300" on="0"/>
        <pt x="194" y="288" on="1"/>
      </contour>
    </TTGlyph>
    <TTGlyph name="braceright" xMin="-7" yMin="-227" xMax="287" yMax="903">
      <contour>
        <pt x="159" y="432" on="1"/>
        <pt x="168" y="540" on="0"/>
        <pt x="168" y="816" on="0"/>
        <pt x="152" y="833" on="1"/>
        <pt x="134" y="851" on="0"/>
        <pt x="106" y="870" on="1"/>
        <pt x="96" y="877" on="1"/>
        <pt x="96" y="893" on="0"/>
        <pt x="108" y="903" on="1"/>
        <pt x="216" y="864" on="1"/>
        <pt x="227" y="750" on="0"/>
        <pt x="235" y="512" on="0"/>
        <pt x="239" y="461" on="0"/>
        <pt x="264" y="386" on="0"/>
        <pt x="287" y="359" on="1"/>
        <pt x="259" y="335" on="0"/>
        <pt x="222" y="260" on="0"/>
        <pt x="207" y="203" on="0"/>
        <pt x="154" y="-67" on="0"/>
        <pt x="123" y="-187" on="1"/>
        <pt x="4" y="-227" on="1"/>
        <pt x="-7" y="-217" on="0"/>
        <pt x="-7" y="-201" on="1"/>
        <pt x="40" y="-176" on="0"/>
        <pt x="82" y="-135" on="0"/>
        <pt x="135" y="161" on="0"/>
        <pt x="144" y="276" on="1"/>
        <pt x="168" y="319" on="0"/>
        <pt x="232" y="359" on="1"/>
        <pt x="183" y="395" on="0"/>
        <pt x="165" y="422" on="1"/>
      </contour>
    </TTGlyph>
    <TTGlyph name="bracketleft" xMin="60" yMin="-197" xMax="327" yMax="875">
      <contour>
        <pt x="167" y="239" on="1"/>
        <pt x="143" y="-44" on="0"/>
        <pt x="143" y="-91" on="0"/>
        <pt x="154" y="-113" on="0"/>
        <pt x="176" y="-117" on="1"/>
        <pt x="240" y="-124" on="1"/>
        <pt x="243" y="-129" on="0"/>
        <pt x="243" y="-137" on="1"/>
        <pt x="237" y="-151" on="1"/>
        <pt x="147" y="-165" on="0"/>
        <pt x="72" y="-197" on="1"/>
        <pt x="64" y="-197" on="0"/>
        <pt x="60" y="-188" on="1"/>
        <pt x="81" y="-81" on="0"/>
        <pt x="109" y="255" on="1"/>
        <pt x="124" y="423" on="1"/>
        <pt x="152" y="765" on="0"/>
        <pt x="152" y="865" on="1"/>
        <pt x="157" y="875" on="0"/>
        <pt x="167" y="875" on="1"/>
        <pt x="239" y="842" on="0"/>
        <pt x="324" y="828" on="1"/>
        <pt x="327" y="824" on="0"/>
        <pt x="327" y="809" on="0"/>
        <pt x="321" y="801" on="1"/>
        <pt x="255" y="795" on="1"/>
        <pt x="229" y="791" on="0"/>
        <pt x="213" y="756" on="0"/>
        <pt x="210" y="721" on="1"/>
        <pt x="192" y="511" on="0"/>
        <pt x="184" y="439" on="1"/>
      </contour>
    </TTGlyph>
    <TTGlyph name="bracketright" xMin="0" yMin="-197" xMax="267" yMax="875">
      <contour>
        <pt x="160" y="439" on="1"/>
        <pt x="184" y="713" on="0"/>
        <pt x="184" y="768" on="0"/>
        <pt x="173" y="791" on="0"/>
        <pt x="151" y="795" on="1"/>
        <pt x="87" y="801" on="1"/>
        <pt x="84" y="807" on="0"/>
        <pt x="84" y="815" on="1"/>
        <pt x="89" y="828" on="1"/>
        <pt x="175" y="842" on="0"/>
        <pt x="255" y="875" on="1"/>
        <pt x="263" y="875" on="0"/>
        <pt x="267" y="865" on="1"/>
        <pt x="243" y="744" on="0"/>
        <pt x="217" y="423" on="1"/>
        <pt x="203" y="255" on="1"/>
        <pt x="203" y="252" on="0"/>
        <pt x="191" y="112" on="0"/>
        <pt x="187" y="61" on="1"/>
        <pt x="175" y="-92" on="0"/>
        <pt x="175" y="-188" on="1"/>
        <pt x="169" y="-197" on="0"/>
        <pt x="160" y="-197" on="1"/>
        <pt x="91" y="-165" on="0"/>
        <pt x="3" y="-151" on="1"/>
        <pt x="0" y="-147" on="0"/>
        <pt x="0" y="-134" on="0"/>
        <pt x="5" y="-124" on="1"/>
        <pt x="49" y="-120" on="0"/>
        <pt x="97" y="-114" on="0"/>
        <pt x="113" y="-79" on="0"/>
        <pt x="123" y="43" on="0"/>
        <pt x="143" y="239" on="1"/>
      </contour>
    </TTGlyph>
    <TTGlyph name="brokenbar" xMin="61" yMin="-415" xMax="232" yMax="856">
      <contour>
        <pt x="124" y="300" on="1"/>
        <pt x="171" y="840" on="1"/>
        <pt x="207" y="850" on="0"/>
        <pt x="220" y="856" on="1"/>
        <pt x="228" y="856" on="0"/>
        <pt x="232" y="847" on="1"/>
        <pt x="213" y="751" on="0"/>
        <pt x="176" y="323" on="1"/>
      </contour>
      <contour>
        <pt x="61" y="-415" on="1"/>
        <pt x="111" y="152" on="1"/>
        <pt x="135" y="159" on="0"/>
        <pt x="156" y="168" on="1"/>
        <pt x="164" y="168" on="0"/>
        <pt x="168" y="159" on="1"/>
        <pt x="156" y="92" on="0"/>
        <pt x="111" y="-392" on="1"/>
      </contour>
    </TTGlyph>
    <TTGlyph name="bullet" xMin="100" yMin="148" xMax="323" yMax="411">
      <contour>
        <pt x="280" y="379" on="0"/>
        <pt x="323" y="298" on="0"/>
        <pt x="323" y="231" on="0"/>
        <pt x="220" y="148" on="0"/>
        <pt x="175" y="148" on="1"/>
        <pt x="140" y="247" on="0"/>
        <pt x="100" y="291" on="1"/>
        <pt x="125" y="334" on="0"/>
        <pt x="192" y="391" on="0"/>
        <pt x="245" y="411" on="1"/>
      </contour>
    </TTGlyph>
    <TTGlyph name="c" xMin="45" yMin="-20" xMax="393" yMax="509">
      <contour>
        <pt x="255" y="459" on="1"/>
        <pt x="213" y="459" on="0"/>
        <pt x="127" y="287" on="0"/>
        <pt x="127" y="175" on="1"/>
        <pt x="127" y="120" on="0"/>
        <pt x="169" y="41" on="0"/>
        <pt x="203" y="41" on="1"/>
        <pt x="265" y="41" on="0"/>
        <pt x="353" y="101" on="1"/>
        <pt x="363" y="98" on="0"/>
        <pt x="367" y="81" on="1"/>
        <pt x="245" y="1" on="1"/>
        <pt x="219" y="-20" on="0"/>
        <pt x="106" y="-20" on="0"/>
        <pt x="45" y="74" on="0"/>
        <pt x="45" y="222" on="0"/>
        <pt x="95" y="359" on="0"/>
        <pt x="163" y="437" on="0"/>
        <pt x="202" y="464" on="1"/>
        <pt x="270" y="509" on="0"/>
        <pt x="304" y="509" on="1"/>
        <pt x="318" y="509" on="0"/>
        <pt x="393" y="496" on="1"/>
        <pt x="393" y="477" on="0"/>
        <pt x="375" y="433" on="0"/>
        <pt x="364" y="420" on="1"/>
        <pt x="286" y="459" on="0"/>
      </contour>
    </TTGlyph>
    <TTGlyph name="caron" xMin="132" yMin="547" xMax="411" yMax="756">
      <contour>
        <pt x="243" y="641" on="1"/>
        <pt x="393" y="756" on="1"/>
        <pt x="407" y="756" on="0"/>
        <pt x="410" y="744" on="1"/>
        <pt x="411" y="739" on="1"/>
        <pt x="304" y="633" on="0"/>
        <pt x="231" y="547" on="1"/>
        <pt x="219" y="547" on="1"/>
        <pt x="132" y="744" on="1"/>
        <pt x="143" y="756" on="0"/>
        <pt x="157" y="756" on="1"/>
      </contour>
    </TTGlyph>
    <TTGlyph name="ccedilla" xMin="45" yMin="-268" xMax="393" yMax="509">
      <contour>
        <pt x="255" y="459" on="1"/>
        <pt x="213" y="459" on="0"/>
        <pt x="127" y="287" on="0"/>
        <pt x="127" y="175" on="1"/>
        <pt x="127" y="120" on="0"/>
        <pt x="169" y="41" on="0"/>
        <pt x="203" y="41" on="1"/>
        <pt x="265" y="41" on="0"/>
        <pt x="353" y="101" on="1"/>
        <pt x="363" y="98" on="0"/>
        <pt x="367" y="81" on="1"/>
        <pt x="245" y="1" on="1"/>
        <pt x="201" y="-17" on="0"/>
        <pt x="188" y="-19" on="1"/>
        <pt x="177" y="-68" on="1"/>
        <pt x="216" y="-87" on="0"/>
        <pt x="252" y="-126" on="0"/>
        <pt x="252" y="-195" on="0"/>
        <pt x="210" y="-253" on="0"/>
        <pt x="175" y="-268" on="1"/>
        <pt x="75" y="-268" on="1"/>
        <pt x="73" y="-265" on="0"/>
        <pt x="73" y="-259" on="1"/>
        <pt x="77" y="-243" on="1"/>
        <pt x="204" y="-240" on="0"/>
        <pt x="204" y="-177" on="1"/>
        <pt x="204" y="-140" on="0"/>
        <pt x="131" y="-117" on="1"/>
        <pt x="124" y="-116" on="0"/>
        <pt x="124" y="-109" on="1"/>
        <pt x="128" y="-89" on="1"/>
        <pt x="151" y="-19" on="1"/>
        <pt x="99" y="-13" on="0"/>
        <pt x="45" y="78" on="0"/>
        <pt x="45" y="222" on="0"/>
        <pt x="95" y="359" on="0"/>
        <pt x="163" y="437" on="0"/>
        <pt x="202" y="464" on="1"/>
        <pt x="270" y="509" on="0"/>
        <pt x="304" y="509" on="1"/>
        <pt x="318" y="509" on="0"/>
        <pt x="393" y="496" on="1"/>
        <pt x="393" y="477" on="0"/>
        <pt x="375" y="433" on="0"/>
        <pt x="364" y="420" on="1"/>
        <pt x="286" y="459" on="0"/>
      </contour>
    </TTGlyph>
    <TTGlyph name="cedilla" xMin="31" yMin="-268" xMax="209" yMax="0">
      <contour>
        <pt x="174" y="-87" on="0"/>
        <pt x="209" y="-126" on="0"/>
        <pt x="209" y="-195" on="0"/>
        <pt x="168" y="-254" on="0"/>
        <pt x="132" y="-268" on="1"/>
        <pt x="32" y="-268" on="1"/>
        <pt x="31" y="-265" on="0"/>
        <pt x="31" y="-259" on="1"/>
        <pt x="35" y="-243" on="1"/>
        <pt x="161" y="-240" on="0"/>
        <pt x="161" y="-177" on="1"/>
        <pt x="161" y="-140" on="0"/>
        <pt x="88" y="-117" on="1"/>
        <pt x="81" y="-116" on="0"/>
        <pt x="81" y="-109" on="1"/>
        <pt x="85" y="-89" on="1"/>
        <pt x="115" y="0" on="1"/>
        <pt x="151" y="0" on="1"/>
        <pt x="135" y="-68" on="1"/>
      </contour>
    </TTGlyph>
    <TTGlyph name="cent" xMin="45" yMin="-132" xMax="375" yMax="625">
      <contour>
        <pt x="159" y="-20" on="1"/>
        <pt x="103" y="-20" on="0"/>
        <pt x="45" y="76" on="0"/>
        <pt x="45" y="221" on="0"/>
        <pt x="82" y="350" on="0"/>
        <pt x="112" y="392" on="1"/>
        <pt x="166" y="465" on="0"/>
        <pt x="233" y="503" on="1"/>
        <pt x="244" y="615" on="1"/>
        <pt x="259" y="618" on="0"/>
        <pt x="277" y="625" on="1"/>
        <pt x="282" y="625" on="0"/>
        <pt x="287" y="619" on="1"/>
        <pt x="280" y="585" on="0"/>
        <pt x="273" y="520" on="1"/>
        <pt x="284" y="524" on="0"/>
        <pt x="305" y="524" on="0"/>
        <pt x="375" y="511" on="1"/>
        <pt x="375" y="465" on="0"/>
        <pt x="348" y="432" on="1"/>
        <pt x="302" y="457" on="0"/>
        <pt x="268" y="467" on="1"/>
        <pt x="231" y="47" on="1"/>
        <pt x="274" y="58" on="0"/>
        <pt x="337" y="105" on="1"/>
        <pt x="348" y="99" on="0"/>
        <pt x="349" y="84" on="1"/>
        <pt x="227" y="-4" on="1"/>
        <pt x="216" y="-121" on="1"/>
        <pt x="209" y="-123" on="0"/>
        <pt x="184" y="-132" on="1"/>
        <pt x="178" y="-132" on="0"/>
        <pt x="173" y="-125" on="1"/>
        <pt x="181" y="-68" on="0"/>
        <pt x="187" y="-17" on="1"/>
        <pt x="175" y="-20" on="0"/>
      </contour>
      <contour>
        <pt x="121" y="180" on="1"/>
        <pt x="121" y="124" on="0"/>
        <pt x="161" y="43" on="0"/>
        <pt x="193" y="43" on="1"/>
        <pt x="231" y="442" on="0"/>
        <pt x="231" y="469" on="1"/>
        <pt x="192" y="453" on="0"/>
        <pt x="121" y="285" on="0"/>
      </contour>
    </TTGlyph>
    <TTGlyph name="circumflex" xMin="132" yMin="547" xMax="411" yMax="756">
      <contour>
        <pt x="300" y="661" on="1"/>
        <pt x="149" y="547" on="1"/>
        <pt x="142" y="547" on="0"/>
        <pt x="133" y="556" on="0"/>
        <pt x="132" y="564" on="1"/>
        <pt x="239" y="669" on="0"/>
        <pt x="312" y="756" on="1"/>
        <pt x="324" y="756" on="1"/>
        <pt x="411" y="559" on="1"/>
        <pt x="400" y="547" on="0"/>
        <pt x="385" y="547" on="1"/>
      </contour>
    </TTGlyph>
    <TTGlyph name="colon" xMin="16" yMin="-21" xMax="164" yMax="456">
      <contour>
        <pt x="164" y="383" on="1"/>
        <pt x="164" y="366" on="0"/>
        <pt x="112" y="324" on="0"/>
        <pt x="89" y="324" on="1"/>
        <pt x="73" y="371" on="0"/>
        <pt x="52" y="396" on="1"/>
        <pt x="77" y="439" on="0"/>
        <pt x="125" y="456" on="1"/>
        <pt x="164" y="420" on="0"/>
      </contour>
      <contour>
        <pt x="128" y="37" on="1"/>
        <pt x="128" y="20" on="0"/>
        <pt x="76" y="-21" on="0"/>
        <pt x="53" y="-21" on="1"/>
        <pt x="36" y="27" on="0"/>
        <pt x="16" y="51" on="1"/>
        <pt x="40" y="92" on="0"/>
        <pt x="89" y="111" on="1"/>
        <pt x="128" y="74" on="0"/>
      </contour>
    </TTGlyph>
    <TTGlyph name="comma" xMin="-21" yMin="-140" xMax="131" yMax="111">
      <contour>
        <pt x="57" y="-21" on="1"/>
        <pt x="57" y="6" on="0"/>
        <pt x="16" y="51" on="1"/>
        <pt x="48" y="97" on="0"/>
        <pt x="93" y="111" on="1"/>
        <pt x="131" y="63" on="0"/>
        <pt x="131" y="35" on="1"/>
        <pt x="131" y="-17" on="0"/>
        <pt x="61" y="-96" on="0"/>
        <pt x="-8" y="-140" on="1"/>
        <pt x="-21" y="-134" on="0"/>
        <pt x="-21" y="-119" on="1"/>
        <pt x="57" y="-57" on="0"/>
      </contour>
    </TTGlyph>
    <TTGlyph name="copyright" xMin="60" yMin="-21" xMax="809" yMax="736">
      <contour>
        <pt x="279" y="-21" on="0"/>
        <pt x="60" y="200" on="0"/>
        <pt x="60" y="515" on="0"/>
        <pt x="279" y="736" on="0"/>
        <pt x="591" y="736" on="0"/>
        <pt x="809" y="515" on="0"/>
        <pt x="809" y="200" on="0"/>
        <pt x="591" y="-21" on="0"/>
      </contour>
      <contour>
        <pt x="113" y="495" on="0"/>
        <pt x="113" y="219" on="0"/>
        <pt x="303" y="24" on="0"/>
        <pt x="567" y="24" on="0"/>
        <pt x="756" y="219" on="0"/>
        <pt x="756" y="495" on="0"/>
        <pt x="567" y="691" on="0"/>
        <pt x="303" y="691" on="0"/>
      </contour>
      <contour>
        <pt x="423" y="548" on="1"/>
        <pt x="377" y="548" on="0"/>
        <pt x="311" y="449" on="0"/>
        <pt x="311" y="307" on="0"/>
        <pt x="382" y="191" on="0"/>
        <pt x="452" y="191" on="1"/>
        <pt x="499" y="191" on="0"/>
        <pt x="580" y="225" on="1"/>
        <pt x="587" y="219" on="0"/>
        <pt x="587" y="208" on="1"/>
        <pt x="503" y="148" on="1"/>
        <pt x="496" y="145" on="0"/>
        <pt x="487" y="141" on="0"/>
        <pt x="472" y="137" on="0"/>
        <pt x="465" y="135" on="1"/>
        <pt x="451" y="131" on="0"/>
        <pt x="432" y="131" on="1"/>
        <pt x="335" y="131" on="0"/>
        <pt x="233" y="259" on="0"/>
        <pt x="233" y="355" on="1"/>
        <pt x="233" y="412" on="0"/>
        <pt x="274" y="502" on="0"/>
        <pt x="330" y="549" on="0"/>
        <pt x="364" y="564" on="1"/>
        <pt x="414" y="588" on="0"/>
        <pt x="448" y="588" on="1"/>
        <pt x="509" y="588" on="0"/>
        <pt x="587" y="564" on="1"/>
        <pt x="581" y="540" on="0"/>
        <pt x="572" y="452" on="1"/>
        <pt x="560" y="449" on="0"/>
        <pt x="552" y="449" on="0"/>
        <pt x="545" y="451" on="1"/>
        <pt x="545" y="454" on="0"/>
        <pt x="531" y="523" on="1"/>
        <pt x="485" y="548" on="0"/>
      </contour>
    </TTGlyph>
    <TTGlyph name="currency" xMin="51" yMin="12" xMax="516" yMax="483">
      <contour>
        <pt x="441" y="279" on="1"/>
        <pt x="441" y="198" on="0"/>
        <pt x="397" y="151" on="1"/>
        <pt x="473" y="69" on="1"/>
        <pt x="457" y="51" on="0"/>
        <pt x="436" y="13" on="1"/>
        <pt x="435" y="12" on="0"/>
        <pt x="432" y="12" on="1"/>
        <pt x="428" y="13" on="1"/>
        <pt x="414" y="53" on="0"/>
        <pt x="360" y="120" on="1"/>
        <pt x="320" y="95" on="0"/>
        <pt x="265" y="87" on="1"/>
        <pt x="220" y="87" on="0"/>
        <pt x="185" y="113" on="1"/>
        <pt x="96" y="19" on="1"/>
        <pt x="78" y="36" on="0"/>
        <pt x="52" y="51" on="1"/>
        <pt x="51" y="52" on="0"/>
        <pt x="51" y="55" on="1"/>
        <pt x="53" y="60" on="1"/>
        <pt x="91" y="81" on="0"/>
        <pt x="157" y="145" on="1"/>
        <pt x="136" y="182" on="0"/>
        <pt x="136" y="227" on="1"/>
        <pt x="136" y="296" on="0"/>
        <pt x="175" y="352" on="1"/>
        <pt x="111" y="428" on="1"/>
        <pt x="130" y="449" on="0"/>
        <pt x="149" y="481" on="1"/>
        <pt x="151" y="483" on="0"/>
        <pt x="153" y="483" on="1"/>
        <pt x="157" y="481" on="1"/>
        <pt x="169" y="446" on="0"/>
        <pt x="211" y="384" on="1"/>
        <pt x="250" y="409" on="0"/>
        <pt x="312" y="420" on="1"/>
        <pt x="355" y="420" on="0"/>
        <pt x="391" y="392" on="1"/>
        <pt x="469" y="483" on="1"/>
        <pt x="488" y="464" on="0"/>
        <pt x="515" y="452" on="1"/>
        <pt x="516" y="451" on="0"/>
        <pt x="516" y="448" on="1"/>
        <pt x="513" y="443" on="1"/>
        <pt x="483" y="424" on="0"/>
        <pt x="419" y="360" on="1"/>
        <pt x="441" y="324" on="0"/>
      </contour>
      <contour>
        <pt x="275" y="136" on="1"/>
        <pt x="332" y="136" on="0"/>
        <pt x="379" y="220" on="0"/>
        <pt x="379" y="269" on="1"/>
        <pt x="379" y="371" on="0"/>
        <pt x="304" y="371" on="1"/>
        <pt x="251" y="371" on="0"/>
        <pt x="196" y="296" on="0"/>
        <pt x="196" y="193" on="0"/>
        <pt x="236" y="136" on="0"/>
      </contour>
    </TTGlyph>
</ttFont>
